<?xml version="1.0" encoding="utf-8"?>
<svg version="1.1" xmlns:xlink="http://www.w3.org/1999/xlink" width="18px" height="23px" xmlns="http://www.w3.org/2000/svg">
  <g transform="matrix(1 0 0 1 -284 -594 )">
    <path d="M 17.703125 9.10877403846154  C 17.9010416666667 9.28385416666666  18 9.49118589743589  18 9.73076923076923  L 18 11.5  C 18 13.5364583333333  17.2317708333333 15.3079927884615  15.6953125 16.8146033653846  C 14.1588541666667 18.3212139423077  12.2604166666667 19.1850961538462  10 19.40625  L 10 21.2307692307692  L 14 21.2307692307692  C 14.2708333333333 21.2307692307692  14.5052083333333 21.3183092948718  14.703125 21.4933894230769  C 14.9010416666667 21.6684695512821  15 21.8758012820513  15 22.1153846153846  C 15 22.3549679487179  14.9010416666667 22.5622996794872  14.703125 22.7373798076923  C 14.5052083333333 22.9124599358974  14.2708333333333 23  14 23  L 4 23  C 3.72916666666667 23  3.49479166666667 22.9124599358974  3.296875 22.7373798076923  C 3.09895833333333 22.5622996794872  3 22.3549679487179  3 22.1153846153846  C 3 21.8758012820513  3.09895833333333 21.6684695512821  3.296875 21.4933894230769  C 3.49479166666667 21.3183092948718  3.72916666666667 21.2307692307692  4 21.2307692307692  L 8 21.2307692307692  L 8 19.40625  C 5.73958333333333 19.1850961538462  3.84114583333333 18.3212139423077  2.3046875 16.8146033653846  C 0.768229166666667 15.3079927884615  0 13.5364583333333  0 11.5  L 0 9.73076923076923  C 0 9.49118589743589  0.0989583333333333 9.28385416666666  0.296875 9.10877403846154  C 0.494791666666667 8.93369391025641  0.729166666666667 8.84615384615384  1 8.84615384615384  C 1.27083333333333 8.84615384615384  1.50520833333333 8.93369391025641  1.703125 9.10877403846154  C 1.90104166666667 9.28385416666666  2 9.49118589743589  2 9.73076923076923  L 2 11.5  C 2 13.2047275641026  2.68489583333333 14.6629607371795  4.0546875 15.8746995192308  C 5.42447916666667 17.086438301282  7.07291666666667 17.6923076923077  9 17.6923076923077  C 10.9270833333333 17.6923076923077  12.5755208333333 17.086438301282  13.9453125 15.8746995192308  C 15.3151041666667 14.6629607371795  16 13.2047275641026  16 11.5  L 16 9.73076923076923  C 16 9.49118589743589  16.0989583333333 9.28385416666666  16.296875 9.10877403846154  C 16.4947916666667 8.93369391025641  16.7291666666667 8.84615384615384  17 8.84615384615384  C 17.2708333333333 8.84615384615384  17.5052083333333 8.93369391025641  17.703125 9.10877403846154  Z M 12.53125 1.29927884615385  C 13.5104166666667 2.16546474358974  14 3.20673076923077  14 4.42307692307692  L 14 11.5  C 14 12.7163461538462  13.5104166666667 13.7576121794872  12.53125 14.6237980769231  C 11.5520833333333 15.489983974359  10.375 15.9230769230769  9 15.9230769230769  C 7.625 15.9230769230769  6.44791666666667 15.489983974359  5.46875 14.6237980769231  C 4.48958333333333 13.7576121794872  4 12.7163461538462  4 11.5  L 4 4.42307692307692  C 4 3.20673076923077  4.48958333333333 2.16546474358974  5.46875 1.29927884615385  C 6.44791666666667 0.433092948717951  7.625 0  9 0  C 10.375 0  11.5520833333333 0.433092948717951  12.53125 1.29927884615385  Z " fill-rule="nonzero" fill="#000000" stroke="none" transform="matrix(1 0 0 1 284 594 )" />
  </g>
</svg>