<?xml version="1.0" encoding="utf-8"?>
<svg version="1.1" xmlns:xlink="http://www.w3.org/1999/xlink" width="25px" height="19px" xmlns="http://www.w3.org/2000/svg">
  <g transform="matrix(1 0 0 1 -241 -587 )">
    <path d="M 18.3314732142857 3.43860894251242  C 19.2057291666667 4.49940856399337  19.6428571428571 5.65460137213153  19.6428571428571 6.9041873669269  C 19.6428571428571 8.15377336172226  19.2057291666667 9.30896616986042  18.3314732142857 10.3697657913414  C 17.4572172619048 11.4305654128223  16.2644159226191 12.2688668086113  14.7530691964286 12.8846699787083  C 13.2417224702381 13.5004731488053  11.5978422619048 13.8083747338538  9.82142857142857 13.8083747338538  C 9.02157738095238 13.8083747338538  8.203125 13.7364561154483  7.36607142857143 13.5926188786373  C 6.21279761904762 14.3837236810977  4.92001488095238 14.9590726283416  3.48772321428571 15.3186657203691  C 3.15290178571429 15.3995741660752  2.75297619047619 15.4714927844807  2.28794642857143 15.5344215755855  L 2.24609375 15.5344215755855  C 2.14378720238095 15.5344215755855  2.04845610119048 15.4984622663828  1.96010044642857 15.4265436479773  C 1.87174479166667 15.3546250295718  1.81826636904762 15.2602318429146  1.79966517857143 15.1433640880057  C 1.79036458333333 15.1163946061036  1.78571428571429 15.0871776673764  1.78571428571429 15.055713271824  C 1.78571428571429 15.0242488762716  1.78803943452381 14.9950319375444  1.79268973214286 14.9680624556423  C 1.7973400297619 14.9410929737402  1.806640625 14.9141234918382  1.82059151785714 14.8871540099361  L 1.85546875 14.819730305181  C 1.85546875 14.819730305181  1.87174479166667 14.7950082801041  1.904296875 14.7455642299503  C 1.93684895833333 14.6961201797965  1.95545014880952 14.6736456115448  1.96010044642857 14.6781405251952  C 1.96475074404762 14.6826354388455  1.98567708333333 14.6601608705938  2.02287946428571 14.61071682044  C 2.0600818452381 14.5612727702863  2.07868303571429 14.5410456588597  2.07868303571429 14.5500354861604  C 2.12518601190476 14.4960965223563  2.23214285714286 14.3837236810977  2.39955357142857 14.2129169623847  C 2.56696428571429 14.0421102436716  2.68787202380952 13.9095102909865  2.76227678571429 13.8151171043293  C 2.83668154761905 13.7207239176721  2.94131324404762 13.5903714218122  3.076171875 13.4240596167495  C 3.21103050595238 13.2577478116868  3.32728794642857 13.0846936361486  3.42494419642857 12.9048970901348  C 3.52260044642857 12.7251005441211  3.61793154761905 12.527324343506  3.7109375 12.3115684882896  C 2.55766369047619 11.6643009226402  1.6508556547619 10.8687012065295  0.990513392857143 9.92476933995742  C 0.330171130952381 8.98083747338538  0 7.97397681570854  0 6.9041873669269  C 0 5.65460137213153  0.437127976190476 4.49940856399337  1.31138392857143 3.43860894251242  C 2.18563988095238 2.37780932103146  3.3784412202381 1.53950792524249  4.88978794642857 0.923704755145494  C 6.40113467261905 0.307901585048497  8.04501488095238 0  9.82142857142857 0  C 11.5978422619048 0  13.2417224702381 0.307901585048497  14.7530691964286 0.923704755145494  C 16.2644159226191 1.53950792524249  17.4572172619048 2.37780932103146  18.3314732142857 3.43860894251242  Z M 23.9536830357143 7.25479063165366  C 24.6512276785714 8.21670215282706  25 9.25053229240596  25 10.3562810503903  C 25 11.4350603264727  24.6698288690476 12.4441684409747  24.0094866071429 13.3836053938964  C 23.3491443452381 14.3230423468181  22.4423363095238 15.1163946061036  21.2890625 15.763662171753  C 21.3820684523809 15.9794180269695  21.4773995535714 16.1771942275846  21.5750558035714 16.3569907735983  C 21.6727120535714 16.536787319612  21.7889694940476 16.7098414951502  21.923828125 16.8761533002129  C 22.0586867559524 17.0424651052756  22.163318452381 17.1728176011356  22.2377232142857 17.2672107877928  C 22.3121279761905 17.36160397445  22.4330357142857 17.4942039271351  22.6004464285714 17.6650106458481  C 22.7678571428571 17.8358173645612  22.8748139880952 17.9481902058197  22.9213169642857 18.0021291696238  C 22.9306175595238 18.0111189969245  22.94921875 18.0313461083511  22.9771205357143 18.0628105039035  C 23.0050223214286 18.0942748994559  23.0259486607143 18.1167494677076  23.0398995535714 18.1302342086586  C 23.0538504464286 18.1437189496097  23.0724516369048 18.1661935178614  23.095703125 18.1976579134138  C 23.1189546130952 18.2291223089662  23.1352306547619 18.2538443340431  23.14453125 18.2718239886444  L 23.1794084821429 18.3392476933996  C 23.1794084821429 18.3392476933996  23.188709077381 18.3662171753016  23.2073102678571 18.4201561391058  C 23.2259114583333 18.4740951029099  23.2282366071429 18.5033120416371  23.2142857142857 18.5078069552874  C 23.2003348214286 18.5123018689378  23.1956845238095 18.541518807665  23.2003348214286 18.5954577714691  C 23.1724330357143 18.7213153536787  23.1119791666667 18.8202034539863  23.0189732142857 18.8921220723918  C 22.9259672619048 18.9640406907973  22.8236607142857 18.9955050863497  22.7120535714286 18.986515259049  C 22.2470238095238 18.9235864679442  21.8470982142857 18.8516678495387  21.5122767857143 18.7707594038325  C 20.0799851190476 18.4111663118051  18.7872023809524 17.8358173645612  17.6339285714286 17.0447125621008  C 16.796875 17.1885497989118  15.9784226190476 17.2604684173172  15.1785714285714 17.2604684173172  C 12.6581101190476 17.2604684173172  10.4631696428571 16.667139815472  8.59375 15.4804826117814  C 9.13318452380953 15.5164419209842  9.54241071428571 15.5344215755855  9.82142857142857 15.5344215755855  C 11.3188244047619 15.5344215755855  12.7557663690476 15.3321504613201  14.1322544642857 14.9276082327892  C 15.5087425595238 14.5230660042583  16.7364211309524 13.9432221433641  17.8152901785714 13.1880766501065  C 18.9778645833333 12.3610125384433  19.8707217261905 11.4080908445706  20.4938616071429 10.3293115684883  C 21.1170014880952 9.25053229240596  21.4285714285714 8.10882422521883  21.4285714285714 6.9041873669269  C 21.4285714285714 6.21197066477407  21.3216145833333 5.52874378992193  21.1077008928571 4.85450674237048  C 22.3074776785714 5.49278448071918  23.2561383928571 6.29287911048024  23.9536830357143 7.25479063165366  Z " fill-rule="nonzero" fill="#000000" stroke="none" transform="matrix(1 0 0 1 241 587 )" />
  </g>
</svg>