<?xml version="1.0" encoding="utf-8"?>
<svg version="1.1" xmlns:xlink="http://www.w3.org/1999/xlink" width="22px" height="19px" xmlns="http://www.w3.org/2000/svg">
  <g transform="matrix(1 0 0 1 -88 -133 )">
    <path d="M 9.90264423076923 1.63009845288326  C 10.0701121794872 1.79934364744491  10.1538461538462 1.99976558837318  10.1538461538462 2.23136427566807  L 10.1538461538462 16.7686357243319  C 10.1538461538462 17.0002344116268  10.0701121794872 17.2006563525551  9.90264423076923 17.3699015471167  C 9.73517628205128 17.5391467416784  9.53685897435897 17.6237693389592  9.30769230769231 17.6237693389592  C 9.07852564102564 17.6237693389592  8.88020833333333 17.5391467416784  8.71274038461539 17.3699015471167  L 4.31009615384615 12.9205344585091  L 0.846153846153846 12.9205344585091  C 0.61698717948718 12.9205344585091  0.418669871794872 12.8359118612283  0.251201923076923 12.6666666666667  C 0.0837339743589744 12.497421472105  0 12.2969995311767  0 12.0654008438819  L 0 6.93459915611814  C 0 6.70300046882325  0.0837339743589744 6.50257852789498  0.251201923076923 6.33333333333333  C 0.418669871794872 6.16408813877168  0.61698717948718 6.07946554149086  0.846153846153846 6.07946554149086  L 4.31009615384615 6.07946554149086  L 8.71274038461539 1.63009845288326  C 8.88020833333333 1.46085325832161  9.07852564102564 1.37623066104079  9.30769230769231 1.37623066104079  C 9.53685897435897 1.37623066104079  9.73517628205128 1.46085325832161  9.90264423076923 1.63009845288326  Z M 14.6688701923077 7.60267229254571  C 15.0434695512821 8.19057665260197  15.2307692307692 8.8230192217534  15.2307692307692 9.5  C 15.2307692307692 10.1769807782466  15.0434695512821 10.8071964369433  14.6688701923077 11.39064697609  C 14.2942708333333 11.9740975152368  13.7984775641026 12.3905297702766  13.1814903846154 12.6399437412096  C 13.0933493589744 12.6844819503047  12.9831730769231 12.7067510548523  12.8509615384615 12.7067510548523  C 12.6217948717949 12.7067510548523  12.4234775641026 12.6243553680263  12.2560096153846 12.4595639943741  C 12.0885416666667 12.294772620722  12.0048076923077 12.092123769339  12.0048076923077 11.851617440225  C 12.0048076923077 11.6645569620253  12.0576923076923 11.5064463197375  12.1634615384615 11.3772855133615  C 12.2692307692308 11.2481247069855  12.3970352564103 11.1367791842475  12.546875 11.0432489451477  C 12.6967147435897 10.9497187060478  12.8465544871795 10.8472808251289  12.9963942307692 10.735935302391  C 13.146233974359 10.6245897796531  13.2740384615385 10.4642522269105  13.3798076923077 10.2549226441632  C 13.4855769230769 10.0455930614158  13.5384615384615 9.79395218002813  13.5384615384615 9.5  C 13.5384615384615 9.20604781997187  13.4855769230769 8.95440693858415  13.3798076923077 8.74507735583685  C 13.2740384615385 8.53574777308955  13.146233974359 8.37541022034693  12.9963942307692 8.264064697609  C 12.8465544871795 8.15271917487107  12.6967147435897 8.05028129395218  12.546875 7.95675105485232  C 12.3970352564103 7.86322081575246  12.2692307692308 7.75187529301453  12.1634615384615 7.62271448663854  C 12.0576923076923 7.49355368026254  12.0048076923077 7.33544303797468  12.0048076923077 7.14838255977496  C 12.0048076923077 6.90787623066104  12.0885416666667 6.70522737927801  12.2560096153846 6.54043600562588  C 12.4234775641026 6.37564463197375  12.6217948717949 6.29324894514768  12.8509615384615 6.29324894514768  C 12.9831730769231 6.29324894514768  13.0933493589744 6.31551804969526  13.1814903846154 6.36005625879044  C 13.7984775641026 6.60056258790436  14.2942708333333 7.01476793248945  14.6688701923077 7.60267229254571  Z M 17.4915865384615 5.72538677918425  C 18.2407852564103 6.87892639474918  18.6153846153846 8.13713080168776  18.6153846153846 9.5  C 18.6153846153846 10.8628691983122  18.2407852564103 12.1210736052508  17.4915865384615 13.2746132208158  C 16.7423878205128 14.4281528363807  15.7508012820513 15.2676980778247  14.5168269230769 15.7932489451477  C 14.4022435897436 15.8377871542429  14.2920673076923 15.8600562587904  14.1862980769231 15.8600562587904  C 13.9483173076923 15.8600562587904  13.7455929487179 15.7754336615096  13.578125 15.606188466948  C 13.4106570512821 15.4369432723863  13.3269230769231 15.236521331458  13.3269230769231 15.0049226441632  C 13.3269230769231 14.6575246132208  13.4987980769231 14.3947491795593  13.8425480769231 14.2165963431786  C 14.3361378205128 13.9582747304266  14.6710737179487 13.7623066104079  14.8473557692308 13.6286919831224  C 15.4995993589744 13.1476793248945  16.0086137820513 12.5441865916549  16.3743990384615 11.8182137834037  C 16.7401842948718 11.0922409751524  16.9230769230769 10.3195030473511  16.9230769230769 9.5  C 16.9230769230769 8.68049695264885  16.7401842948718 7.90775902484763  16.3743990384615 7.18178621659634  C 16.0086137820513 6.45581340834505  15.4995993589744 5.85232067510549  14.8473557692308 5.37130801687764  C 14.6710737179487 5.23769338959212  14.3361378205128 5.04172526957337  13.8425480769231 4.78340365682138  C 13.4987980769231 4.60525082044069  13.3269230769231 4.34247538677919  13.3269230769231 3.99507735583685  C 13.3269230769231 3.76347866854196  13.4106570512821 3.56305672761369  13.578125 3.39381153305204  C 13.7455929487179 3.22456633849039  13.9439102564103 3.13994374120956  14.1730769230769 3.13994374120956  C 14.2876602564103 3.13994374120956  14.4022435897436 3.16221284575715  14.5168269230769 3.20675105485232  C 15.7508012820513 3.73230192217534  16.7423878205128 4.57184716361931  17.4915865384615 5.72538677918425  Z M 20.3209134615385 3.85478199718706  C 21.4403044871795 5.56950304735115  22 7.45124238162213  22 9.5  C 22 11.5487576183779  21.4403044871795 13.4304969526488  20.3209134615385 15.1452180028129  C 19.2015224358974 16.859939052977  17.7119391025641 18.1225972808251  15.8521634615385 18.9331926863572  C 15.7375801282051 18.9777308954524  15.6229967948718 19  15.5084134615385 19  C 15.2792467948718 19  15.0809294871795 18.9153774027192  14.9134615384615 18.7461322081575  C 14.7459935897436 18.5768870135959  14.6622596153846 18.3764650726676  14.6622596153846 18.1448663853727  C 14.6622596153846 17.8241912798875  14.8341346153846 17.561415846226  15.1778846153846 17.3565400843882  C 15.2395833333333 17.3209095171121  15.3387419871795 17.2741443975621  15.4753605769231 17.2162447257384  C 15.6119791666667 17.1583450539147  15.7111378205128 17.1115799343647  15.7728365384615 17.0759493670886  C 16.1782852564103 16.8532583216128  16.5396634615385 16.6261134552274  16.8569711538462 16.3945147679325  C 17.9411057692308 15.5839193624004  18.7872596153846 14.57290201594  19.3954326923077 13.3614627285513  C 20.0036057692308 12.1500234411627  20.3076923076923 10.8628691983122  20.3076923076923 9.5  C 20.3076923076923 8.13713080168776  20.0036057692308 6.84997655883732  19.3954326923077 5.63853727144866  C 18.7872596153846 4.42709798406001  17.9411057692308 3.41608063759962  16.8569711538462 2.60548523206751  C 16.5396634615385 2.37388654477262  16.1782852564103 2.14674167838725  15.7728365384615 1.92405063291139  C 15.7111378205128 1.88842006563525  15.6119791666667 1.84165494608532  15.4753605769231 1.7837552742616  C 15.3387419871795 1.72585560243788  15.2395833333333 1.67909048288795  15.1778846153846 1.64345991561182  C 14.8341346153846 1.43858415377402  14.6622596153846 1.17580872011252  14.6622596153846 0.855133614627286  C 14.6622596153846 0.623534927332393  14.7459935897436 0.423112986404124  14.9134615384615 0.253867791842475  C 15.0809294871795 0.0846225972808243  15.2792467948718 0  15.5084134615385 0  C 15.6229967948718 0  15.7375801282051 0.0222691045475844  15.8521634615385 0.0668073136427573  C 17.7119391025641 0.877402719174869  19.2015224358974 2.14006094702297  20.3209134615385 3.85478199718706  Z " fill-rule="nonzero" fill="#ff4500" stroke="none" transform="matrix(1 0 0 1 88 133 )" />
  </g>
</svg>