<?xml version="1.0" encoding="utf-8"?>
<svg version="1.1" xmlns:xlink="http://www.w3.org/1999/xlink" width="11px" height="17px" xmlns="http://www.w3.org/2000/svg">
  <g transform="matrix(1 0 0 1 -345 -245 )">
    <path d="M 10.8109965635739 8.10821643286573  C 10.9369988545246 8.22177688710755  11 8.35237140948564  11 8.5  C 11 8.64762859051436  10.9369988545246 8.77822311289245  10.8109965635739 8.89178356713427  L 2.00343642611684 16.8296593186373  C 1.87743413516609 16.9432197728791  1.73253150057274 17  1.56872852233677 17  C 1.4049255441008 17  1.26002290950745 16.9432197728791  1.1340206185567 16.8296593186373  L 0.189003436426117 15.9779559118236  C 0.0630011454753723 15.8643954575818  0 15.7338009352037  0 15.5861723446894  C 0 15.438543754175  0.0630011454753723 15.3079492317969  0.189003436426117 15.1943887775551  L 7.61683848797251 8.5  L 0.189003436426117 1.80561122244489  C 0.0630011454753723 1.69205076820307  0 1.56145624582498  0 1.41382765531062  C 0 1.26619906479626  0.0630011454753723 1.13560454241817  0.189003436426117 1.02204408817635  L 1.1340206185567 0.170340681362726  C 1.26002290950745 0.0567802271209079  1.4049255441008 0  1.56872852233677 0  C 1.73253150057274 0  1.87743413516609 0.0567802271209079  2.00343642611684 0.170340681362726  L 10.8109965635739 8.10821643286573  Z " fill-rule="nonzero" fill="#d7d7d7" stroke="none" transform="matrix(1 0 0 1 345 245 )" />
  </g>
</svg>