<?xml version="1.0" encoding="utf-8"?>
<svg version="1.1" xmlns:xlink="http://www.w3.org/1999/xlink" width="33px" height="19px" xmlns="http://www.w3.org/2000/svg">
  <g transform="matrix(1 0 0 1 -323 -162 )">
    <path d="M 0.82177734375 13.188671875  C 0.27392578125 12.016015625  0 10.7864583333333  0 9.5  C 0 8.21354166666667  0.27392578125 6.983984375  0.82177734375 5.811328125  C 1.36962890625 4.638671875  2.102783203125 3.629296875  3.021240234375 2.783203125  C 3.939697265625 1.937109375  5.035400390625 1.26171875  6.308349609375 0.757031249999999  C 7.581298828125 0.25234375  8.916015625 0  10.3125 0  L 22.6875 0  C 24.083984375 0  25.418701171875 0.25234375  26.691650390625 0.757031249999999  C 27.964599609375 1.26171875  29.060302734375 1.937109375  29.978759765625 2.783203125  C 30.897216796875 3.629296875  31.63037109375 4.638671875  32.17822265625 5.811328125  C 32.72607421875 6.983984375  33 8.21354166666667  33 9.5  C 33 10.7864583333333  32.72607421875 12.016015625  32.17822265625 13.188671875  C 31.63037109375 14.361328125  30.897216796875 15.370703125  29.978759765625 16.216796875  C 29.060302734375 17.062890625  27.964599609375 17.73828125  26.691650390625 18.24296875  C 25.418701171875 18.74765625  24.083984375 19  22.6875 19  L 10.3125 19  C 8.916015625 19  7.581298828125 18.74765625  6.308349609375 18.24296875  C 5.035400390625 17.73828125  3.939697265625 17.062890625  3.021240234375 16.216796875  C 2.102783203125 15.370703125  1.36962890625 14.361328125  0.82177734375 13.188671875  Z M 19.489013671875 16.498828125  C 20.504150390625 16.899609375  21.5703125 17.1  22.6875 17.1  C 23.8046875 17.1  24.870849609375 16.899609375  25.885986328125 16.498828125  C 26.901123046875 16.098046875  27.779296875 15.55625  28.5205078125 14.8734375  C 29.26171875 14.190625  29.849853515625 13.381640625  30.284912109375 12.446484375  C 30.719970703125 11.511328125  30.9375 10.5291666666667  30.9375 9.5  C 30.9375 8.47083333333333  30.719970703125 7.488671875  30.284912109375 6.553515625  C 29.849853515625 5.618359375  29.26171875 4.809375  28.5205078125 4.1265625  C 27.779296875 3.44375  26.901123046875 2.901953125  25.885986328125 2.501171875  C 24.870849609375 2.100390625  23.8046875 1.9  22.6875 1.9  C 21.5703125 1.9  20.504150390625 2.100390625  19.489013671875 2.501171875  C 18.473876953125 2.901953125  17.595703125 3.44375  16.8544921875 4.1265625  C 16.11328125 4.809375  15.525146484375 5.618359375  15.090087890625 6.553515625  C 14.655029296875 7.488671875  14.4375 8.47083333333333  14.4375 9.5  C 14.4375 10.5291666666667  14.655029296875 11.511328125  15.090087890625 12.446484375  C 15.525146484375 13.381640625  16.11328125 14.190625  16.8544921875 14.8734375  C 17.595703125 15.55625  18.473876953125 16.098046875  19.489013671875 16.498828125  Z " fill-rule="nonzero" fill="#ff7a48" stroke="none" transform="matrix(1 0 0 1 323 162 )" />
  </g>
</svg>