<?xml version="1.0" encoding="utf-8"?>
<svg version="1.1" xmlns:xlink="http://www.w3.org/1999/xlink" width="33px" height="34px" xmlns="http://www.w3.org/2000/svg">
  <g transform="matrix(1 0 0 1 -73 -322 )">
    <path d="M 10.8304511278195 5.03738839285714  C 10.0778195488722 5.61290922619048  9.17218045112782 5.90066964285714  8.11353383458647 5.90066964285714  C 7.05488721804511 5.90066964285714  6.14511278195489 5.61290922619048  5.38421052631579 5.03738839285714  C 4.62330827067669 4.46186755952381  4.24285714285714 3.76302083333333  4.24285714285714 2.94084821428571  C 4.24285714285714 2.1313244047619  4.62330827067669 1.43880208333333  5.38421052631579 0.86328125  C 6.14511278195489 0.287760416666669  7.05488721804511 0  8.11353383458647 0  C 9.17218045112782 0  10.0778195488722 0.287760416666669  10.8304511278195 0.86328125  C 11.5830827067669 1.43880208333333  11.9593984962406 2.1313244047619  11.9593984962406 2.94084821428571  C 11.9593984962406 3.76302083333333  11.5830827067669 4.46186755952381  10.8304511278195 5.03738839285714  Z M 21.6112781954887 17.53125  C 21.7270676691729 17.6956845238095  21.784962406015 17.8790922619048  21.784962406015 18.0814732142857  C 21.784962406015 18.7139136904762  21.5368421052632 19.1408110119048  21.0406015037594 19.3621651785714  C 20.5443609022556 19.5835193452381  20.0191729323308 19.6246279761905  19.465037593985 19.4854910714286  C 18.9109022556391 19.3463541666667  18.518045112782 19.1313244047619  18.2864661654135 18.8404017857143  L 9.18045112781955 10.5301339285714  C 9.06466165413534 10.3783482142857  8.94887218045113 10.2803199404762  8.83308270676692 10.2360491071429  C 8.71729323308271 10.1917782738095  8.62631578947368 10.1822916666667  8.56015037593985 10.2075892857143  L 8.48571428571428 10.2645089285714  C 8.36992481203008 10.3656994047619  8.40300751879699 10.4985119047619  8.58496240601504 10.6629464285714  L 11.612030075188 13.3002232142857  L 11.6368421052632 20.0167410714286  L 7.64210526315789 28.6875  C 6.53383458646617 31.1160714285714  5.77293233082707 32.5959821428571  5.3593984962406 33.1272321428571  C 5.11127819548872 33.4561011904762  4.8796992481203 33.6584821428571  4.66466165413534 33.734375  C 3.83759398496241 34.0632440476191  2.98571428571429 34.0695684523809  2.10902255639098 33.7533482142857  C 1.62932330827068 33.5889136904762  1.28609022556391 33.3169642857143  1.07932330827068 32.9375  C 0.872556390977444 32.5580357142857  0.793984962406015 32.1975446428571  0.843609022556391 31.8560267857143  C 0.876691729323309 31.6409970238095  2.50601503759398 27.7325148809524  5.73157894736842 20.1305803571429  L 5.85563909774436 12.2377232142857  L 3.74661654135338 15.3493303571429  L 4.61503759398496 19.5613839285714  C 4.6812030075188 19.8649553571429  4.67293233082707 20.1305803571429  4.59022556390977 20.3582589285714  C 4.50751879699248 20.5859375  4.39172932330827 20.7598586309524  4.24285714285714 20.8800223214286  C 4.09398496240602 21.0001860119048  3.93684210526316 21.1013764880952  3.77142857142857 21.18359375  C 3.60601503759399 21.2658110119048  3.46541353383459 21.313244047619  3.34962406015038 21.3258928571429  L 3.17593984962406 21.3638392857143  C 2.86165413533835 21.4017857142857  2.57631578947368 21.3828125  2.31992481203008 21.3069196428571  C 2.06353383458647 21.2310267857143  1.86503759398496 21.1298363095238  1.72443609022556 21.0033482142857  C 1.58383458646617 20.8768601190476  1.46804511278195 20.7377232142857  1.37706766917293 20.5859375  C 1.28609022556391 20.4341517857143  1.22406015037594 20.3108258928571  1.19097744360902 20.2159598214286  C 1.15789473684211 20.12109375  1.14135338345865 20.0610119047619  1.14135338345865 20.0357142857143  L 0 14.3627232142857  L 5.23533834586466 7.13392857142857  C 5.61578947368421 6.70386904761904  6.55037593984962 6.48883928571429  8.0390977443609 6.48883928571429  C 9.2796992481203 6.48883928571429  10.1646616541353 6.74181547619048  10.693984962406 7.24776785714286  L 21.2142857142857 17.1328125  C 21.3300751879699 17.196056547619  21.4458646616541 17.3035714285714  21.5616541353383 17.4553571428571  L 21.6360902255639 17.5122767857143  L 21.6112781954887 17.53125  Z M 9.52781954887218 25.7276785714286  L 11.7857142857143 20.9274553571429  C 12.496992481203 22.3567708333333  13.2289473684211 23.7797619047619  13.9815789473684 25.1964285714286  C 14.7342105263158 26.6130952380952  15.309022556391 27.6755952380952  15.706015037594 28.3839285714286  L 16.3015037593985 29.4274553571429  C 16.896992481203 30.6037946428571  17.2443609022556 31.3943452380952  17.3436090225564 31.7991071428571  C 17.5255639097744 32.6845238095238  17.2278195488722 33.2979910714286  16.4503759398496 33.6395089285714  C 15.8714285714286 33.9177827380952  15.3255639097744 34.0189732142857  14.8127819548872 33.9430803571429  C 14.3 33.8671875  13.8781954887218 33.7280505952381  13.5473684210526 33.5256696428571  C 13.2165413533835 33.3232886904762  12.9766917293233 33.1019345238095  12.8278195488722 32.8616071428571  L 12.803007518797 32.8616071428571  C 12.7037593984962 32.6592261904762  12.6375939849624 32.5011160714286  12.6045112781955 32.3872767857143  L 9.52781954887218 25.7276785714286  Z M 21.9834586466165 19.2957589285714  L 32.2308270676692 32.1595982142857  C 32.7436090225564 32.7793898809524  33 33.139880952381  33 33.2410714285714  C 33 33.3043154761905  32.9751879699248 33.3485863095238  32.9255639097744 33.3738839285714  C 32.7766917293233 33.4371279761905  32.6567669172932 33.4339657738095  32.5657894736842 33.3643973214286  C 32.4748120300752 33.2948288690476  32.3466165413534 33.1303943452381  32.1812030075188 32.87109375  C 32.0157894736842 32.6117931547619  31.8834586466165 32.4188988095238  31.7842105263158 32.2924107142857  C 29.8984962406015 30.1168154761905  26.4 25.9363839285714  21.2887218045113 19.7511160714286  C 21.3383458646617 19.7637648809524  21.3962406015038 19.7574404761905  21.4624060150376 19.7321428571429  C 21.5285714285714 19.7068452380952  21.5864661654135 19.6815476190476  21.6360902255639 19.65625  L 21.7105263157895 19.6183035714286  C 21.8924812030075 19.5044642857143  21.9834586466165 19.3969494047619  21.9834586466165 19.2957589285714  Z " fill-rule="nonzero" fill="#ff4500" stroke="none" transform="matrix(1 0 0 1 73 322 )" />
  </g>
</svg>