<?xml version="1.0" encoding="utf-8"?>
<svg version="1.1" xmlns:xlink="http://www.w3.org/1999/xlink" width="30px" height="24px" xmlns="http://www.w3.org/2000/svg">
  <g transform="matrix(1 0 0 1 -68 -418 )">
    <path d="M 8 8.57142857142857  C 8 9.8125  8.421875 10.9553571428571  9.265625 12  C 7.578125 12.0446428571429  6.19791666666667 12.6160714285714  5.125 13.7142857142857  L 3.03125 13.7142857142857  C 2.17708333333333 13.7142857142857  1.45833333333333 13.5334821428571  0.875 13.171875  C 0.291666666666667 12.8102678571429  0 12.28125  0 11.5848214285714  C 0 8.43303571428571  0.645833333333333 6.85714285714286  1.9375 6.85714285714286  C 2 6.85714285714286  2.2265625 6.95089285714286  2.6171875 7.13839285714286  C 3.0078125 7.32589285714286  3.515625 7.515625  4.140625 7.70758928571429  C 4.765625 7.89955357142857  5.38541666666667 7.99553571428571  6 7.99553571428571  C 6.69791666666667 7.99553571428571  7.390625 7.89285714285714  8.078125 7.6875  C 8.02604166666667 8.01785714285714  8 8.3125  8 8.57142857142857  Z M 25.9453125 19.1450892857143  C 25.9817708333333 19.5959821428571  26 20.0580357142857  26 20.53125  C 26 21.6026785714286  25.6197916666667 22.4486607142857  24.859375 23.0691964285714  C 24.0989583333333 23.6897321428571  23.0885416666667 24  21.828125 24  L 8.171875 24  C 6.91145833333333 24  5.90104166666667 23.6897321428571  5.140625 23.0691964285714  C 4.38020833333333 22.4486607142857  4 21.6026785714286  4 20.53125  C 4 20.0580357142857  4.01822916666667 19.5959821428571  4.0546875 19.1450892857143  C 4.09114583333333 18.6941964285714  4.1640625 18.2075892857143  4.2734375 17.6852678571429  C 4.3828125 17.1629464285714  4.52083333333333 16.6785714285714  4.6875 16.2321428571429  C 4.85416666666667 15.7857142857143  5.078125 15.3504464285714  5.359375 14.9263392857143  C 5.640625 14.5022321428571  5.96354166666667 14.140625  6.328125 13.8415178571429  C 6.69270833333333 13.5424107142857  7.13802083333333 13.3035714285714  7.6640625 13.125  C 8.19010416666667 12.9464285714286  8.77083333333333 12.8571428571429  9.40625 12.8571428571429  C 9.51041666666667 12.8571428571429  9.734375 12.953125  10.078125 13.1450892857143  C 10.421875 13.3370535714286  10.8020833333333 13.5513392857143  11.21875 13.7879464285714  C 11.6354166666667 14.0245535714286  12.1927083333333 14.2388392857143  12.890625 14.4308035714286  C 13.5885416666667 14.6227678571429  14.2916666666667 14.71875  15 14.71875  C 15.7083333333333 14.71875  16.4114583333333 14.6227678571429  17.109375 14.4308035714286  C 17.8072916666667 14.2388392857143  18.3645833333333 14.0245535714286  18.78125 13.7879464285714  C 19.1979166666667 13.5513392857143  19.578125 13.3370535714286  19.921875 13.1450892857143  C 20.265625 12.953125  20.4895833333333 12.8571428571429  20.59375 12.8571428571429  C 21.2291666666667 12.8571428571429  21.8098958333333 12.9464285714286  22.3359375 13.125  C 22.8619791666667 13.3035714285714  23.3072916666667 13.5424107142857  23.671875 13.8415178571429  C 24.0364583333333 14.140625  24.359375 14.5022321428571  24.640625 14.9263392857143  C 24.921875 15.3504464285714  25.1458333333333 15.7857142857143  25.3125 16.2321428571429  C 25.4791666666667 16.6785714285714  25.6171875 17.1629464285714  25.7265625 17.6852678571429  C 25.8359375 18.2075892857143  25.9088541666667 18.6941964285714  25.9453125 19.1450892857143  Z M 8.828125 1.00446428571429  C 9.609375 1.67410714285714  10 2.48214285714286  10 3.42857142857143  C 10 4.375  9.609375 5.18303571428571  8.828125 5.85267857142857  C 8.046875 6.52232142857143  7.10416666666667 6.85714285714286  6 6.85714285714286  C 4.89583333333333 6.85714285714286  3.953125 6.52232142857143  3.171875 5.85267857142857  C 2.390625 5.18303571428571  2 4.375  2 3.42857142857143  C 2 2.48214285714286  2.390625 1.67410714285714  3.171875 1.00446428571429  C 3.953125 0.33482142857143  4.89583333333333 0  6 0  C 7.10416666666667 0  8.046875 0.33482142857143  8.828125 1.00446428571429  Z M 19.2421875 4.93526785714286  C 20.4140625 5.93973214285714  21 7.15178571428571  21 8.57142857142857  C 21 9.99107142857143  20.4140625 11.203125  19.2421875 12.2075892857143  C 18.0703125 13.2120535714286  16.65625 13.7142857142857  15 13.7142857142857  C 13.34375 13.7142857142857  11.9296875 13.2120535714286  10.7578125 12.2075892857143  C 9.5859375 11.203125  9 9.99107142857143  9 8.57142857142857  C 9 7.15178571428571  9.5859375 5.93973214285714  10.7578125 4.93526785714286  C 11.9296875 3.93080357142857  13.34375 3.42857142857143  15 3.42857142857143  C 16.65625 3.42857142857143  18.0703125 3.93080357142857  19.2421875 4.93526785714286  Z M 28.0625 6.85714285714286  C 29.3541666666667 6.85714285714286  30 8.43303571428571  30 11.5848214285714  C 30 12.28125  29.7083333333333 12.8102678571429  29.125 13.171875  C 28.5416666666667 13.5334821428571  27.8229166666667 13.7142857142857  26.96875 13.7142857142857  L 24.875 13.7142857142857  C 23.8020833333333 12.6160714285714  22.421875 12.0446428571429  20.734375 12  C 21.578125 10.9553571428571  22 9.8125  22 8.57142857142857  C 22 8.3125  21.9739583333333 8.01785714285714  21.921875 7.6875  C 22.609375 7.89285714285714  23.3020833333333 7.99553571428571  24 7.99553571428571  C 24.6145833333333 7.99553571428571  25.234375 7.89955357142857  25.859375 7.70758928571429  C 26.484375 7.515625  26.9921875 7.32589285714286  27.3828125 7.13839285714286  C 27.7734375 6.95089285714286  28 6.85714285714286  28.0625 6.85714285714286  Z M 26.828125 1.00446428571429  C 27.609375 1.67410714285714  28 2.48214285714286  28 3.42857142857143  C 28 4.375  27.609375 5.18303571428571  26.828125 5.85267857142857  C 26.046875 6.52232142857143  25.1041666666667 6.85714285714286  24 6.85714285714286  C 22.8958333333333 6.85714285714286  21.953125 6.52232142857143  21.171875 5.85267857142857  C 20.390625 5.18303571428571  20 4.375  20 3.42857142857143  C 20 2.48214285714286  20.390625 1.67410714285714  21.171875 1.00446428571429  C 21.953125 0.33482142857143  22.8958333333333 0  24 0  C 25.1041666666667 0  26.046875 0.33482142857143  26.828125 1.00446428571429  Z " fill-rule="nonzero" fill="#ff4500" stroke="none" transform="matrix(1 0 0 1 68 418 )" />
  </g>
</svg>