<?xml version="1.0" encoding="utf-8"?>
<svg version="1.1" xmlns:xlink="http://www.w3.org/1999/xlink" width="25px" height="25px" xmlns="http://www.w3.org/2000/svg">
  <g transform="matrix(1 0 0 1 -70 -374 )">
    <path d="M 13.1138392857143 24.70703125  C 12.9464285714286 24.90234375  12.7418154761905 25  12.5 25  C 12.2581845238095 25  12.0535714285714 24.90234375  11.8861607142857 24.70703125  L 3.18080357142857 14.9088541666667  C 3.08779761904762 14.8220486111111  2.95991443452381 14.6809895833333  2.79715401785714 14.4856770833333  C 2.63439360119048 14.2903645833333  2.37630208333333 13.9350043402778  2.02287946428571 13.4195963541667  C 1.6694568452381 12.9041883680556  1.35323660714286 12.3752170138889  1.07421875 11.8326822916667  C 0.795200892857143 11.2901475694444  0.546409970238095 10.6336805555556  0.327845982142857 9.86328125  C 0.109281994047619 9.09288194444444  0 8.34418402777778  0 7.6171875  C 0 5.23003472222222  0.590587797619048 3.36371527777778  1.77176339285714 2.01822916666667  C 2.95293898809524 0.672743055555555  4.58519345238095 0  6.66852678571429 0  C 7.24516369047619 0  7.83342633928571 0.116644965277776  8.43331473214286 0.349934895833334  C 9.033203125 0.583224826388887  9.59123883928571 0.897894965277776  10.107421875 1.2939453125  C 10.6236049107143 1.68999565972222  11.0677083333333 2.06163194444444  11.4397321428571 2.40885416666667  C 11.811755952381 2.75607638888889  12.1651785714286 3.125  12.5 3.515625  C 12.8348214285714 3.125  13.188244047619 2.75607638888889  13.5602678571429 2.40885416666667  C 13.9322916666667 2.06163194444444  14.3763950892857 1.68999565972222  14.892578125 1.2939453125  C 15.4087611607143 0.897894965277776  15.966796875 0.583224826388887  16.5666852678571 0.349934895833334  C 17.1665736607143 0.116644965277776  17.7548363095238 0  18.3314732142857 0  C 20.4148065476191 0  22.0470610119048 0.672743055555555  23.2282366071429 2.01822916666667  C 24.409412202381 3.36371527777778  25 5.23003472222222  25 7.6171875  C 25 10.0151909722222  23.9350818452381 12.4565972222222  21.8052455357143 14.94140625  L 13.1138392857143 24.70703125  Z " fill-rule="nonzero" fill="#ff4500" stroke="none" transform="matrix(1 0 0 1 70 374 )" />
  </g>
</svg>