<?xml version="1.0" encoding="utf-8"?>
<svg version="1.1" xmlns:xlink="http://www.w3.org/1999/xlink" width="28px" height="29px" xmlns="http://www.w3.org/2000/svg">
  <g transform="matrix(1 0 0 1 -387 -415 )">
    <path d="M 20.5989583333333 16.9638671875  C 20.7447916666667 17.2596571180556  20.7690972222222 17.5648871527778  20.671875 17.8795572916667  C 20.2222222222222 19.4025607638889  19.3836805555556 20.6297743055556  18.15625 21.5611979166667  C 16.9288194444444 22.4926215277778  15.5434027777778 22.9583333333333  14 22.9583333333333  C 12.4565972222222 22.9583333333333  11.0711805555556 22.4926215277778  9.84375 21.5611979166667  C 8.61631944444444 20.6297743055556  7.77777777777778 19.4025607638889  7.328125 17.8795572916667  C 7.23090277777778 17.5648871527778  7.25520833333333 17.2596571180556  7.40104166666667 16.9638671875  C 7.546875 16.6680772569444  7.77777777777778 16.4698350694444  8.09375 16.369140625  C 8.39756944444444 16.2684461805556  8.69227430555556 16.2936197916667  8.97786458333333 16.4446614583333  C 9.26345486111111 16.595703125  9.45486111111111 16.8348524305556  9.55208333333333 17.162109375  C 9.85590277777778 18.1690538194444  10.41796875 18.9840494791667  11.23828125 19.6070963541667  C 12.05859375 20.2301432291667  12.9791666666667 20.5416666666667  14 20.5416666666667  C 15.0208333333333 20.5416666666667  15.94140625 20.2301432291667  16.76171875 19.6070963541667  C 17.58203125 18.9840494791667  18.1440972222222 18.1690538194444  18.4479166666667 17.162109375  C 18.5451388888889 16.8348524305556  18.7395833333333 16.595703125  19.03125 16.4446614583333  C 19.3229166666667 16.2936197916667  19.6206597222222 16.2684461805556  19.9244791666667 16.369140625  C 20.2282986111111 16.4698350694444  20.453125 16.6680772569444  20.5989583333333 16.9638671875  Z M 10.9830729166667 7.9580078125  C 11.4388020833333 8.43001302083333  11.6666666666667 8.99956597222222  11.6666666666667 9.66666666666667  C 11.6666666666667 10.3337673611111  11.4388020833333 10.9033203125  10.9830729166667 11.3753255208333  C 10.52734375 11.8473307291667  9.97743055555556 12.0833333333333  9.33333333333333 12.0833333333333  C 8.68923611111111 12.0833333333333  8.13932291666667 11.8473307291667  7.68359375 11.3753255208333  C 7.22786458333333 10.9033203125  7 10.3337673611111  7 9.66666666666667  C 7 8.99956597222222  7.22786458333333 8.43001302083333  7.68359375 7.9580078125  C 8.13932291666667 7.48600260416667  8.68923611111111 7.25  9.33333333333333 7.25  C 9.97743055555556 7.25  10.52734375 7.48600260416667  10.9830729166667 7.9580078125  Z M 20.31640625 7.9580078125  C 20.7721354166667 8.43001302083333  21 8.99956597222222  21 9.66666666666667  C 21 10.3337673611111  20.7721354166667 10.9033203125  20.31640625 11.3753255208333  C 19.8606770833333 11.8473307291667  19.3107638888889 12.0833333333333  18.6666666666667 12.0833333333333  C 18.0225694444444 12.0833333333333  17.47265625 11.8473307291667  17.0169270833333 11.3753255208333  C 16.5611979166667 10.9033203125  16.3333333333333 10.3337673611111  16.3333333333333 9.66666666666667  C 16.3333333333333 8.99956597222222  16.5611979166667 8.43001302083333  17.0169270833333 7.9580078125  C 17.47265625 7.48600260416667  18.0225694444444 7.25  18.6666666666667 7.25  C 19.3107638888889 7.25  19.8606770833333 7.48600260416667  20.31640625 7.9580078125  Z M 24.7369791666667 19.1917317708333  C 25.3567708333333 17.7001953125  25.6666666666667 16.1362847222222  25.6666666666667 14.5  C 25.6666666666667 12.8637152777778  25.3567708333333 11.2998046875  24.7369791666667 9.80826822916667  C 24.1171875 8.31673177083333  23.2877604166667 7.03287760416667  22.2486979166667 5.95670572916667  C 21.2096354166667 4.88053385416667  19.9700520833333 4.021484375  18.5299479166667 3.37955729166667  C 17.08984375 2.73763020833333  15.5798611111111 2.41666666666667  14 2.41666666666667  C 12.4201388888889 2.41666666666667  10.91015625 2.73763020833333  9.47005208333333 3.37955729166667  C 8.02994791666667 4.021484375  6.79036458333333 4.88053385416667  5.75130208333333 5.95670572916667  C 4.71223958333333 7.03287760416667  3.8828125 8.31673177083333  3.26302083333333 9.80826822916667  C 2.64322916666667 11.2998046875  2.33333333333333 12.8637152777778  2.33333333333333 14.5  C 2.33333333333333 16.1362847222222  2.64322916666667 17.7001953125  3.26302083333333 19.1917317708333  C 3.8828125 20.6832682291667  4.71223958333333 21.9671223958333  5.75130208333333 23.0432942708333  C 6.79036458333333 24.1194661458333  8.02994791666667 24.978515625  9.47005208333333 25.6204427083333  C 10.91015625 26.2623697916667  12.4201388888889 26.5833333333333  14 26.5833333333333  C 15.5798611111111 26.5833333333333  17.08984375 26.2623697916667  18.5299479166667 25.6204427083333  C 19.9700520833333 24.978515625  21.2096354166667 24.1194661458333  22.2486979166667 23.0432942708333  C 23.2877604166667 21.9671223958333  24.1171875 20.6832682291667  24.7369791666667 19.1917317708333  Z M 26.1223958333333 7.2216796875  C 27.3741319444444 9.44325086805555  28 11.8693576388889  28 14.5  C 28 17.1306423611111  27.3741319444444 19.5567491319444  26.1223958333333 21.7783203125  C 24.8706597222222 23.9998914930556  23.1723090277778 25.7588975694444  21.02734375 27.0553385416667  C 18.8823784722222 28.3517795138889  16.5399305555556 29  14 29  C 11.4600694444444 29  9.11762152777778 28.3517795138889  6.97265625 27.0553385416667  C 4.82769097222222 25.7588975694444  3.12934027777778 23.9998914930556  1.87760416666667 21.7783203125  C 0.625868055555555 19.5567491319444  0 17.1306423611111  0 14.5  C 0 11.8693576388889  0.625868055555555 9.44325086805555  1.87760416666667 7.2216796875  C 3.12934027777778 5.00010850694444  4.82769097222222 3.24110243055555  6.97265625 1.94466145833333  C 9.11762152777778 0.648220486111109  11.4600694444444 0  14 0  C 16.5399305555556 0  18.8823784722222 0.648220486111109  21.02734375 1.94466145833333  C 23.1723090277778 3.24110243055555  24.8706597222222 5.00010850694444  26.1223958333333 7.2216796875  Z " fill-rule="nonzero" fill="#7f7f7f" stroke="none" transform="matrix(1 0 0 1 387 415 )" />
  </g>
</svg>