<?xml version="1.0" encoding="utf-8"?>
<svg version="1.1" xmlns:xlink="http://www.w3.org/1999/xlink" width="18px" height="26px" xmlns="http://www.w3.org/2000/svg">
  <g transform="matrix(1 0 0 1 -126 -418 )">
    <path d="M 17.703125 10.296875  C 17.9010416666667 10.4947916666667  18 10.7291666666667  18 11  L 18 13  C 18 15.3020833333333  17.2317708333333 17.3046875  15.6953125 19.0078125  C 14.1588541666667 20.7109375  12.2604166666667 21.6875  10 21.9375  L 10 24  L 14 24  C 14.2708333333333 24  14.5052083333333 24.0989583333333  14.703125 24.296875  C 14.9010416666667 24.4947916666667  15 24.7291666666667  15 25  C 15 25.2708333333333  14.9010416666667 25.5052083333333  14.703125 25.703125  C 14.5052083333333 25.9010416666667  14.2708333333333 26  14 26  L 4 26  C 3.72916666666667 26  3.49479166666667 25.9010416666667  3.296875 25.703125  C 3.09895833333333 25.5052083333333  3 25.2708333333333  3 25  C 3 24.7291666666667  3.09895833333333 24.4947916666667  3.296875 24.296875  C 3.49479166666667 24.0989583333333  3.72916666666667 24  4 24  L 8 24  L 8 21.9375  C 5.73958333333333 21.6875  3.84114583333333 20.7109375  2.3046875 19.0078125  C 0.768229166666667 17.3046875  0 15.3020833333333  0 13  L 0 11  C 0 10.7291666666667  0.0989583333333333 10.4947916666667  0.296875 10.296875  C 0.494791666666667 10.0989583333333  0.729166666666667 10  1 10  C 1.27083333333333 10  1.50520833333333 10.0989583333333  1.703125 10.296875  C 1.90104166666667 10.4947916666667  2 10.7291666666667  2 11  L 2 13  C 2 14.9270833333333  2.68489583333333 16.5755208333333  4.0546875 17.9453125  C 5.42447916666667 19.3151041666667  7.07291666666667 20  9 20  C 10.9270833333333 20  12.5755208333333 19.3151041666667  13.9453125 17.9453125  C 15.3151041666667 16.5755208333333  16 14.9270833333333  16 13  L 16 11  C 16 10.7291666666667  16.0989583333333 10.4947916666667  16.296875 10.296875  C 16.4947916666667 10.0989583333333  16.7291666666667 10  17 10  C 17.2708333333333 10  17.5052083333333 10.0989583333333  17.703125 10.296875  Z M 12.53125 1.46875  C 13.5104166666667 2.44791666666667  14 3.625  14 5  L 14 13  C 14 14.375  13.5104166666667 15.5520833333333  12.53125 16.53125  C 11.5520833333333 17.5104166666667  10.375 18  9 18  C 7.625 18  6.44791666666667 17.5104166666667  5.46875 16.53125  C 4.48958333333333 15.5520833333333  4 14.375  4 13  L 4 5  C 4 3.625  4.48958333333333 2.44791666666667  5.46875 1.46875  C 6.44791666666667 0.489583333333336  7.625 0  9 0  C 10.375 0  11.5520833333333 0.489583333333336  12.53125 1.46875  Z " fill-rule="nonzero" fill="#7f7f7f" stroke="none" transform="matrix(1 0 0 1 126 418 )" />
  </g>
</svg>