<?xml version="1.0" encoding="utf-8"?>
<svg version="1.1" xmlns:xlink="http://www.w3.org/1999/xlink" width="23px" height="20px" xmlns="http://www.w3.org/2000/svg">
  <g transform="matrix(1 0 0 1 -177 -421 )">
    <path d="M 6.99583333333333 4.0625  C 7.44305555555556 4.54861111111111  7.66666666666667 5.13888888888889  7.66666666666667 5.83333333333333  C 7.66666666666667 6.52777777777778  7.44305555555556 7.11805555555556  6.99583333333333 7.60416666666667  C 6.54861111111111 8.09027777777778  6.00555555555556 8.33333333333333  5.36666666666667 8.33333333333333  C 4.72777777777778 8.33333333333333  4.18472222222222 8.09027777777778  3.7375 7.60416666666667  C 3.29027777777778 7.11805555555556  3.06666666666667 6.52777777777778  3.06666666666667 5.83333333333333  C 3.06666666666667 5.13888888888889  3.29027777777778 4.54861111111111  3.7375 4.0625  C 4.18472222222222 3.57638888888889  4.72777777777778 3.33333333333333  5.36666666666667 3.33333333333333  C 6.00555555555556 3.33333333333333  6.54861111111111 3.57638888888889  6.99583333333333 4.0625  Z M 14.95 5.41666666666667  L 19.9333333333333 10.8333333333333  L 19.9333333333333 16.6666666666667  L 3.06666666666667 16.6666666666667  L 3.06666666666667 14.1666666666667  L 6.9 10  L 8.81666666666667 12.0833333333333  L 14.95 5.41666666666667  Z M 21.3528645833333 1.79036458333333  C 21.2769965277778 1.70789930555555  21.1871527777778 1.66666666666667  21.0833333333333 2  L 1.91666666666667 2  C 1.81284722222222 1.66666666666667  1.72300347222222 1.70789930555555  1.64713541666667 1.79036458333333  C 1.57126736111111 1.87282986111111  1.53333333333333 1.97048611111111  1.53333333333333 2.08333333333333  L 1.53333333333333 17.9166666666667  C 1.53333333333333 18.0295138888889  1.57126736111111 18.1271701388889  1.64713541666667 18.2096354166667  C 1.72300347222222 18.2921006944444  1.81284722222222 18.3333333333333  1.91666666666667 18  L 21.0833333333333 18  C 21.1871527777778 18.3333333333333  21.2769965277778 18.2921006944444  21.3528645833333 18.2096354166667  C 21.4287326388889 18.1271701388889  21.4666666666667 18.0295138888889  21.4666666666667 17.9166666666667  L 21.4666666666667 2.08333333333333  C 21.4666666666667 1.97048611111111  21.4287326388889 1.87282986111111  21.3528645833333 1.79036458333333  Z M 22.4369791666667 0.611979166666667  C 22.8123263888889 1.01996527777778  23 1.51041666666667  23 2.08333333333333  L 23 17.9166666666667  C 23 18.4895833333333  22.8123263888889 18.9800347222222  22.4369791666667 19.3880208333333  C 22.0616319444444 19.7960069444444  21.6104166666667 20  21.0833333333333 20  L 1.91666666666667 20  C 1.38958333333333 20  0.938368055555556 19.7960069444444  0.563020833333333 19.3880208333333  C 0.187673611111111 18.9800347222222  0 18.4895833333333  0 17.9166666666667  L 0 2.08333333333333  C 0 1.51041666666667  0.187673611111111 1.01996527777778  0.563020833333333 0.611979166666667  C 0.938368055555556 0.203993055555554  1.38958333333333 0  1.91666666666667 0  L 21.0833333333333 0  C 21.6104166666667 0  22.0616319444444 0.203993055555554  22.4369791666667 0.611979166666667  Z " fill-rule="nonzero" fill="#7f7f7f" stroke="none" transform="matrix(1 0 0 1 177 421 )" />
  </g>
</svg>