<?xml version="1.0" encoding="utf-8"?>
<svg version="1.1" xmlns:xlink="http://www.w3.org/1999/xlink" width="18px" height="19px" xmlns="http://www.w3.org/2000/svg">
  <g transform="matrix(1 0 0 1 -126 -106 )">
    <path d="M 17.5757575757576 14.2020202020202  C 17.8585858585859 14.5005611672278  18 14.8630751964085  18 15.2895622895623  C 18 15.7160493827161  17.8585858585859 16.0785634118967  17.5757575757576 16.3771043771044  L 15.5151515151515 18.5521885521886  C 15.2323232323232 18.8507295173962  14.8888888888889 19  14.4848484848485 19  C 14.0808080808081 19  13.7373737373737 18.8507295173962  13.4545454545455 18.5521885521886  L 9 13.8501683501684  L 4.54545454545455 18.5521885521886  C 4.26262626262626 18.8507295173962  3.91919191919192 19  3.51515151515152 19  C 3.11111111111111 19  2.76767676767677 18.8507295173962  2.48484848484848 18.5521885521886  L 0.424242424242424 16.3771043771044  C 0.141414141414142 16.0785634118967  0 15.7160493827161  0 15.2895622895623  C 0 14.8630751964085  0.141414141414142 14.5005611672278  0.424242424242424 14.2020202020202  L 4.87878787878788 9.5  L 0.424242424242424 4.7979797979798  C 0.141414141414142 4.49943883277216  0 4.13692480359147  0 3.71043771043771  C 0 3.28395061728395  0.141414141414142 2.92143658810325  0.424242424242424 2.62289562289562  L 2.48484848484848 0.447811447811448  C 2.76767676767677 0.149270482603815  3.11111111111111 0  3.51515151515152 0  C 3.91919191919192 0  4.26262626262626 0.149270482603815  4.54545454545455 0.447811447811448  L 9 5.14983164983165  L 13.4545454545455 0.447811447811448  C 13.7373737373737 0.149270482603815  14.0808080808081 0  14.4848484848485 0  C 14.8888888888889 0  15.2323232323232 0.149270482603815  15.5151515151515 0.447811447811448  L 17.5757575757576 2.62289562289562  C 17.8585858585859 2.92143658810325  18 3.28395061728395  18 3.71043771043771  C 18 4.13692480359147  17.8585858585859 4.49943883277216  17.5757575757576 4.7979797979798  L 13.1212121212121 9.5  L 17.5757575757576 14.2020202020202  Z " fill-rule="nonzero" fill="#555555" stroke="none" transform="matrix(1 0 0 1 126 106 )" />
  </g>
</svg>