<?xml version="1.0" encoding="utf-8"?>
<svg version="1.1" xmlns:xlink="http://www.w3.org/1999/xlink" width="20px" height="18px" xmlns="http://www.w3.org/2000/svg">
  <g transform="matrix(1 0 0 1 -391 -108 )">
    <path d="M 19.2861126603458 0  C 19.4348391894404 0  19.5686930656256 0.0368303571428588  19.6876742889013 0.110491071428572  C 19.9330730619074 0.271205357142857  20.0334634690463 0.485491071428571  19.9888455103179 0.753348214285715  L 17.1332961517011 16.1819196428571  C 17.0961145194274 16.3761160714286  16.9771332961517 16.5267857142857  16.776352481874 16.6339285714286  C 16.6722439115077 16.6875  16.5569808514594 16.7142857142857  16.4305633017289 16.7142857142857  C 16.3487637107269 16.7142857142857  16.2595277932701 16.6975446428571  16.1628555493586 16.6640625  L 11.1098717233687 14.8058035714286  L 8.41048522030117 17.7689732142857  C 8.27663134411601 17.9229910714286  8.09444134597509 18  7.86391522587842 18  C 7.76724298196691 18  7.68544339096486 17.9866071428571  7.61851645287228 17.9598214285714  C 7.47722625023239 17.9129464285714  7.36382227179773 17.8342633928571  7.27830451756832 17.7237723214286  C 7.19278676333891 17.61328125  7.1500278862242 17.4910714285714  7.1500278862242 17.3571428571429  L 7.1500278862242 13.8515625  L 16.7875069715561 3.21428571428571  L 4.86335750139431 12.5055803571429  L 0.457334076965979 10.8783482142857  C 0.182189998140918 10.7845982142857  0.0334634690462911 10.6004464285714  0.011154489682097 10.3258928571429  C -0.00371816322736568 10.0580357142857  0.115263060048336 9.86049107142857  0.368098159509202 9.73325892857143  L 18.9291689905187 0.0904017857142851  C 19.0407138873397 0.0301339285714277  19.1596951106154 0  19.2861126603458 0  Z " fill-rule="nonzero" fill="#000000" stroke="none" transform="matrix(1 0 0 1 391 108 )" />
  </g>
</svg>