<?xml version="1.0" encoding="utf-8"?>
<svg version="1.1" xmlns:xlink="http://www.w3.org/1999/xlink" width="21px" height="34px" xmlns="http://www.w3.org/2000/svg">
  <g transform="matrix(1 0 0 1 -99 -360 )">
    <path d="M 19.8515625 10.3545454545455  C 20.6171875 11.0757575757576  21 11.9515151515151  21 12.9818181818182  L 21 21.0181818181818  C 21 21.5333333333333  20.80859375 21.9712121212121  20.42578125 22.3318181818182  C 20.04296875 22.6924242424242  19.578125 22.8727272727273  19.03125 22.8727272727273  C 18.484375 22.8727272727273  18.01953125 22.6924242424242  17.63671875 22.3318181818182  C 17.25390625 21.9712121212121  17.0625 21.5333333333333  17.0625 21.0181818181818  L 17.0625 14.2181818181818  L 15.75 14.2181818181818  L 15.75 31.8363636363636  C 15.75 32.4287878787879  15.5244140625 32.9375  15.0732421875 33.3625  C 14.6220703125 33.7875  14.08203125 34  13.453125 34  C 12.82421875 34  12.2841796875 33.7875  11.8330078125 33.3625  C 11.3818359375 32.9375  11.15625 32.4287878787879  11.15625 31.8363636363636  L 11.15625 22.8727272727273  L 9.84375 22.8727272727273  L 9.84375 31.8363636363636  C 9.84375 32.4287878787879  9.6181640625 32.9375  9.1669921875 33.3625  C 8.7158203125 33.7875  8.17578125 34  7.546875 34  C 6.91796875 34  6.3779296875 33.7875  5.9267578125 33.3625  C 5.4755859375 32.9375  5.25 32.4287878787879  5.25 31.8363636363636  L 5.25 14.2181818181818  L 3.9375 14.2181818181818  L 3.9375 21.0181818181818  C 3.9375 21.5333333333333  3.74609375 21.9712121212121  3.36328125 22.3318181818182  C 2.98046875 22.6924242424242  2.515625 22.8727272727273  1.96875 22.8727272727273  C 1.421875 22.8727272727273  0.95703125 22.6924242424242  0.57421875 22.3318181818182  C 0.19140625 21.9712121212121  0 21.5333333333333  0 21.0181818181818  L 0 12.9818181818182  C 0 11.9515151515151  0.3828125 11.0757575757576  1.1484375 10.3545454545455  C 1.9140625 9.63333333333333  2.84375 9.27272727272727  3.9375 9.27272727272727  L 17.0625 9.27272727272727  C 18.15625 9.27272727272727  19.0859375 9.63333333333333  19.8515625 10.3545454545455  Z M 13.75048828125 1.26534090909091  C 14.64599609375 2.10890151515151  15.09375 3.12954545454545  15.09375 4.32727272727273  C 15.09375 5.525  14.64599609375 6.54564393939394  13.75048828125 7.38920454545454  C 12.85498046875 8.23276515151515  11.771484375 8.65454545454545  10.5 8.65454545454545  C 9.228515625 8.65454545454545  8.14501953125 8.23276515151515  7.24951171875 7.38920454545454  C 6.35400390625 6.54564393939394  5.90625 5.525  5.90625 4.32727272727273  C 5.90625 3.12954545454545  6.35400390625 2.10890151515151  7.24951171875 1.26534090909091  C 8.14501953125 0.421780303030301  9.228515625 0  10.5 0  C 11.771484375 0  12.85498046875 0.421780303030301  13.75048828125 1.26534090909091  Z " fill-rule="nonzero" fill="#ff4500" stroke="none" transform="matrix(1 0 0 1 99 360 )" />
  </g>
</svg>