<?xml version="1.0" encoding="utf-8"?>
<svg version="1.1" xmlns:xlink="http://www.w3.org/1999/xlink" width="33px" height="24px" xmlns="http://www.w3.org/2000/svg">
  <g transform="matrix(1 0 0 1 -315 -367 )">
    <path d="M 32.4038709677419 3.31313131313131  C 32.8012903225806 3.69023569023569  33 4.14814814814815  33 4.68686868686869  C 33 5.22558922558922  32.8012903225806 5.68350168350168  32.4038709677419 6.06060606060606  L 16.9896774193548 20.6868686868687  L 14.0941935483871 23.4343434343434  C 13.6967741935484 23.8114478114478  13.2141935483871 24  12.6464516129032 24  C 12.0787096774194 24  11.5961290322581 23.8114478114478  11.1987096774194 23.4343434343434  L 8.30322580645161 20.6868686868687  L 0.596129032258065 13.3737373737374  C 0.198709677419355 12.996632996633  0 12.5387205387205  0 12  C 0 11.4612794612795  0.198709677419355 11.003367003367  0.596129032258065 10.6262626262626  L 3.49161290322581 7.87878787878788  C 3.88903225806452 7.5016835016835  4.37161290322581 7.31313131313131  4.93935483870968 7.31313131313131  C 5.50709677419355 7.31313131313131  5.98967741935484 7.5016835016835  6.38709677419355 7.87878787878788  L 12.6464516129032 13.8383838383838  L 26.6129032258064 0.565656565656566  C 27.0103225806452 0.188552188552188  27.4929032258065 0  28.0606451612903 0  C 28.6283870967742 0  29.1109677419355 0.188552188552188  29.5083870967742 0.565656565656566  L 32.4038709677419 3.31313131313131  Z " fill-rule="nonzero" fill="#ff4500" stroke="none" transform="matrix(1 0 0 1 315 367 )" />
  </g>
</svg>