<?xml version="1.0" encoding="utf-8"?>
<svg version="1.1" xmlns:xlink="http://www.w3.org/1999/xlink" width="81px" height="62px" xmlns="http://www.w3.org/2000/svg">
  <g transform="matrix(1 0 0 1 -19 -95 )">
    <path d="M 79.5367741935484 8.55892255892256  C 80.5122580645161 9.53310886644221  81 10.7160493827161  81 12.1077441077441  C 81 13.4994388327722  80.5122580645161 14.682379349046  79.5367741935484 15.6565656565656  L 41.701935483871 53.4410774410774  L 34.5948387096774 60.5387205387206  C 33.6193548387097 61.5129068462402  32.4348387096774 62  31.0412903225807 62  C 29.6477419354839 62  28.4632258064516 61.5129068462402  27.4877419354839 60.5387205387206  L 20.3806451612903 53.4410774410774  L 1.46322580645161 34.5488215488215  C 0.487741935483871 33.5746352413019  0 32.3916947250281  0 31  C 0 29.6083052749719  0.487741935483871 28.4253647586981  1.46322580645161 27.4511784511785  L 8.57032258064516 20.3535353535353  C 9.5458064516129 19.3793490460157  10.7303225806452 18.8922558922559  12.1238709677419 18.8922558922559  C 13.5174193548387 18.8922558922559  14.701935483871 19.3793490460157  15.6774193548387 20.3535353535353  L 31.0412903225807 35.7491582491583  L 65.3225806451613 1.46127946127946  C 66.298064516129 0.487093153759815  67.4825806451613 0  68.8761290322581 0  C 70.2696774193548 0  71.4541935483871 0.487093153759815  72.4296774193548 1.46127946127946  L 79.5367741935484 8.55892255892256  Z " fill-rule="nonzero" fill="#009933" stroke="none" transform="matrix(1 0 0 1 19 95 )" />
  </g>
</svg>