<?xml version="1.0" encoding="utf-8"?>
<svg version="1.1" xmlns:xlink="http://www.w3.org/1999/xlink" width="33px" height="33px" xmlns="http://www.w3.org/2000/svg">
  <g transform="matrix(1 0 0 1 -101 -277 )">
    <path d="M 21.591796875 8.658203125  C 21.8639322916667 8.93033854166666  22 9.25260416666666  22 9.625  L 22 23.375  C 22 23.7473958333333  21.8639322916667 24.0696614583333  21.591796875 24.341796875  C 21.3196614583333 24.6139322916667  20.9973958333333 24.75  20.625 24.75  C 20.3385416666667 24.75  20.0735677083333 24.6640625  19.830078125 24.4921875  L 10.205078125 17.6171875  C 9.818359375 17.3450520833333  9.625 16.97265625  9.625 16.5  C 9.625 16.02734375  9.818359375 15.6549479166667  10.205078125 15.3828125  L 19.830078125 8.5078125  C 20.0735677083333 8.3359375  20.3385416666667 8.25  20.625 8.25  C 20.9973958333333 8.25  21.3196614583333 8.38606770833333  21.591796875 8.658203125  Z M 27.2958984375 27.2958984375  C 27.4319661458333 27.1598307291667  27.5 26.9986979166667  27 26.8125  L 27 6.1875  C 27.5 6.00130208333333  27.4319661458333 5.84016927083333  27.2958984375 5.7041015625  C 27.1598307291667 5.56803385416666  26.9986979166667 5.5  26.8125 6  L 6.1875 6  C 6.00130208333333 5.5  5.84016927083333 5.56803385416666  5.7041015625 5.7041015625  C 5.56803385416667 5.84016927083333  5.5 6.00130208333333  6 6.1875  L 6 26.8125  C 5.5 26.9986979166667  5.56803385416667 27.1598307291667  5.7041015625 27.2958984375  C 5.84016927083333 27.4319661458333  6.00130208333333 27.5  6.1875 27  L 26.8125 27  C 26.9986979166667 27.5  27.1598307291667 27.4319661458333  27.2958984375 27.2958984375  Z M 31.1845703125 1.8154296875  C 32.3948567708333 3.02571614583333  33 4.48307291666666  33 6.1875  L 33 26.8125  C 33 28.5169270833333  32.3948567708333 29.9742838541667  31.1845703125 31.1845703125  C 29.9742838541667 32.3948567708333  28.5169270833333 33  26.8125 33  L 6.1875 33  C 4.48307291666667 33  3.02571614583333 32.3948567708333  1.8154296875 31.1845703125  C 0.605143229166667 29.9742838541667  0 28.5169270833333  0 26.8125  L 0 6.1875  C 0 4.48307291666666  0.605143229166667 3.02571614583333  1.8154296875 1.8154296875  C 3.02571614583333 0.605143229166665  4.48307291666667 0  6.1875 0  L 26.8125 0  C 28.5169270833333 0  29.9742838541667 0.605143229166665  31.1845703125 1.8154296875  Z " fill-rule="nonzero" fill="#f54500" stroke="none" transform="matrix(1 0 0 1 101 277 )" />
  </g>
</svg>