<?xml version="1.0" encoding="utf-8"?>
<svg version="1.1" xmlns:xlink="http://www.w3.org/1999/xlink" width="33px" height="33px" xmlns="http://www.w3.org/2000/svg">
  <g transform="matrix(1 0 0 1 -334 -277 )">
    <path d="M 22.794921875 15.3828125  C 23.181640625 15.6549479166667  23.375 16.02734375  23.375 16.5  C 23.375 16.97265625  23.181640625 17.3450520833333  22.794921875 17.6171875  L 13.169921875 24.4921875  C 12.7259114583333 24.8216145833333  12.2532552083333 24.857421875  11.751953125 24.599609375  C 11.2506510416667 24.3561197916667  11 23.9479166666667  11 23.375  L 11 9.625  C 11 9.05208333333333  11.2506510416667 8.64388020833333  11.751953125 8.400390625  C 12.2532552083333 8.142578125  12.7259114583333 8.17838541666666  13.169921875 8.5078125  L 22.794921875 15.3828125  Z M 27.306640625 27.306640625  C 27.435546875 27.177734375  27.5 27.0130208333333  27 26.8125  L 27 6.1875  C 27.5 5.98697916666666  27.435546875 5.822265625  27.306640625 5.693359375  C 27.177734375 5.564453125  27.0130208333333 5.5  26.8125 6  L 6.1875 6  C 5.98697916666667 5.5  5.822265625 5.564453125  5.693359375 5.693359375  C 5.564453125 5.822265625  5.5 5.98697916666666  6 6.1875  L 6 26.8125  C 5.5 27.0130208333333  5.564453125 27.177734375  5.693359375 27.306640625  C 5.822265625 27.435546875  5.98697916666667 27.5  6.1875 27  L 26.8125 27  C 27.0130208333333 27.5  27.177734375 27.435546875  27.306640625 27.306640625  Z M 31.1845703125 1.8154296875  C 32.3948567708333 3.02571614583333  33 4.48307291666666  33 6.1875  L 33 26.8125  C 33 28.5169270833333  32.3948567708333 29.9742838541667  31.1845703125 31.1845703125  C 29.9742838541667 32.3948567708333  28.5169270833333 33  26.8125 33  L 6.1875 33  C 4.48307291666667 33  3.02571614583333 32.3948567708333  1.8154296875 31.1845703125  C 0.605143229166667 29.9742838541667  0 28.5169270833333  0 26.8125  L 0 6.1875  C 0 4.48307291666666  0.605143229166667 3.02571614583333  1.8154296875 1.8154296875  C 3.02571614583333 0.605143229166665  4.48307291666667 0  6.1875 0  L 26.8125 0  C 28.5169270833333 0  29.9742838541667 0.605143229166665  31.1845703125 1.8154296875  Z " fill-rule="nonzero" fill="#f54500" stroke="none" transform="matrix(1 0 0 1 334 277 )" />
  </g>
</svg>