<?xml version="1.0" encoding="utf-8"?>
<svg version="1.1" xmlns:xlink="http://www.w3.org/1999/xlink" width="17px" height="30px" xmlns="http://www.w3.org/2000/svg">
  <g transform="matrix(1 0 0 1 -896 -396 )">
    <path d="M 15.7161458333333 4.52008928571429  C 16.5720486111111 6.07142857142857  17 7.77901785714285  17 9.64285714285714  C 17 12.109375  16.2744502314815 14.2550223214286  14.8233506944444 16.0797991071429  C 13.3722511574074 17.9045758928571  11.5792824074074 18.9508928571429  9.44444444444444 19.21875  L 9.44444444444444 23.5714285714286  L 12.75 23.5714285714286  C 12.8877314814815 23.5714285714286  13.0008680555556 23.6216517857143  13.0894097222222 23.7220982142857  C 13.1779513888889 23.8225446428571  13.2222222222222 23.9508928571429  13.2222222222222 24.1071428571429  L 13.2222222222222 25.1785714285714  C 13.2222222222222 25.3348214285714  13.1779513888889 25.4631696428571  13.0894097222222 25.5636160714286  C 13.0008680555556 25.6640625  12.8877314814815 25.7142857142857  12.75 25.7142857142857  L 9.44444444444444 25.7142857142857  L 9.44444444444444 29.4642857142857  C 9.44444444444444 29.6205357142857  9.40017361111111 29.7488839285714  9.31163194444444 29.8493303571429  C 9.22309027777778 29.9497767857143  9.1099537037037 30  8.97222222222222 30  L 8.02777777777778 30  C 7.8900462962963 30  7.77690972222222 29.9497767857143  7.68836805555556 29.8493303571429  C 7.59982638888889 29.7488839285714  7.55555555555556 29.6205357142857  7.55555555555556 29.4642857142857  L 7.55555555555556 25.7142857142857  L 4.25 25.7142857142857  C 4.11226851851852 25.7142857142857  3.99913194444444 25.6640625  3.91059027777778 25.5636160714286  C 3.82204861111111 25.4631696428571  3.77777777777778 25.3348214285714  3.77777777777778 25.1785714285714  L 3.77777777777778 24.1071428571429  C 3.77777777777778 23.9508928571429  3.82204861111111 23.8225446428571  3.91059027777778 23.7220982142857  C 3.99913194444444 23.6216517857143  4.11226851851852 23.5714285714286  4.25 23.5714285714286  L 7.55555555555556 23.5714285714286  L 7.55555555555556 19.21875  C 6.07986111111111 19.0401785714286  4.74435763888889 18.4654017857143  3.54904513888889 17.4944196428571  C 2.35373263888889 16.5234375  1.43880208333333 15.2734375  0.804253472222222 13.7444196428571  C 0.169704861111111 12.2154017857143  -0.0885416666666667 10.5859375  0.0295138888888889 8.85602678571429  C 0.137731481481482 7.36049107142857  0.533709490740741 5.97098214285714  1.21744791666667 4.6875  C 1.90118634259259 3.40401785714286  2.79644097222222 2.35491071428571  3.90321180555556 1.54017857142857  C 5.00998263888889 0.725446428571427  6.21759259259259 0.234375  7.52604166666667 0.0669642857142871  C 9.19849537037037 -0.145089285714293  10.767650462963 0.156249999999994  12.2335069444444 0.970982142857142  C 13.6993634259259 1.78571428571428  14.8602430555556 2.96875  15.7161458333333 4.52008928571429  Z M 3.82942708333333 4.34430803571429  C 2.5357349537037 5.81194196428571  1.88888888888889 7.578125  1.88888888888889 9.64285714285714  C 1.88888888888889 11.7075892857143  2.5357349537037 13.4737723214286  3.82942708333333 14.94140625  C 5.12311921296296 16.4090401785714  6.67997685185185 17.1428571428571  8.5 17.1428571428571  C 10.3200231481481 17.1428571428571  11.876880787037 16.4090401785714  13.1705729166667 14.94140625  C 14.4642650462963 13.4737723214286  15.1111111111111 11.7075892857143  15.1111111111111 9.64285714285714  C 15.1111111111111 7.578125  14.4642650462963 5.81194196428571  13.1705729166667 4.34430803571429  C 11.876880787037 2.87667410714286  10.3200231481481 2.14285714285714  8.5 2.14285714285714  C 6.67997685185185 2.14285714285714  5.12311921296296 2.87667410714286  3.82942708333333 4.34430803571429  Z " fill-rule="nonzero" fill="#ff4500" stroke="none" transform="matrix(1 0 0 1 896 396 )" />
  </g>
</svg>