<?xml version="1.0" encoding="utf-8"?>
<svg version="1.1" xmlns:xlink="http://www.w3.org/1999/xlink" width="25px" height="17px" xmlns="http://www.w3.org/2000/svg">
  <g transform="matrix(1 0 0 1 -786 -655 )">
    <path d="M 18.3314732142857 3.07665010645848  C 19.2057291666667 4.02578660988881  19.6428571428571 5.05938017506506  19.6428571428571 6.17743080198722  C 19.6428571428571 7.29548142890939  19.2057291666667 8.32907499408564  18.3314732142857 9.27821149751597  C 17.4572172619048 10.2273480009463  16.2644159226191 10.977407144547  14.7530691964286 11.528388928318  C 13.2417224702381 12.0793707120889  11.5978422619048 12.3548616039745  9.82142857142857 12.3548616039745  C 9.02157738095238 12.3548616039745  8.203125 12.2905133664537  7.36607142857143 12.1618168914124  C 6.21279761904762 12.8696475041401  4.92001488095238 13.3844334043057  3.48772321428571 13.7061745919092  C 3.15290178571429 13.7785663591199  2.75297619047619 13.8429145966406  2.28794642857143 13.8992193044713  L 2.24609375 13.8992193044713  C 2.14378720238095 13.8992193044713  2.04845610119048 13.8670451857109  1.96010044642857 13.8026969481902  C 1.87174479166667 13.7383487106695  1.81826636904762 13.6538916489236  1.79966517857143 13.5493257629524  C 1.79036458333333 13.5251951738822  1.78571428571429 13.4990537023894  1.78571428571429 13.4709013484741  C 1.78571428571429 13.4427489945588  1.78803943452381 13.416607523066  1.79268973214286 13.3924769339957  C 1.7973400297619 13.3683463449255  1.806640625 13.3442157558552  1.82059151785714 13.320085166785  L 1.85546875 13.2597586941093  C 1.85546875 13.2597586941093  1.87174479166667 13.2376389874616  1.904296875 13.1933995741661  C 1.93684895833333 13.1491601608706  1.95545014880952 13.1290513366454  1.96010044642857 13.1330731014904  C 1.96475074404762 13.1370948663355  1.98567708333333 13.1169860421102  2.02287946428571 13.0727466288148  C 2.0600818452381 13.0285072155193  2.07868303571429 13.0104092737166  2.07868303571429 13.0184528034067  C 2.12518601190476 12.9701916252661  2.23214285714286 12.86964750414  2.39955357142857 12.7168204400284  C 2.56696428571429 12.5639933759167  2.68787202380952 12.4453513129879  2.76227678571429 12.360894251242  C 2.83668154761905 12.2764371894961  2.94131324404762 12.1598060089898  3.076171875 12.0110007097232  C 3.21103050595238 11.8621954104566  3.32728794642857 11.7073574639224  3.42494419642857 11.5464868701207  C 3.52260044642857 11.3856162763189  3.61793154761905 11.208658623137  3.7109375 11.0156139105749  C 2.55766369047619 10.4364797728886  1.6508556547619 9.72462739531583  0.990513392857143 8.88005677785664  C 0.330171130952381 8.03548616039745  0 7.13461083510764  0 6.17743080198722  C 0 5.05938017506506  0.437127976190476 4.02578660988881  1.31138392857143 3.07665010645848  C 2.18563988095238 2.12751360302815  3.3784412202381 1.37745445942749  4.88978794642857 0.826472675656495  C 6.40113467261905 0.275490891885498  8.04501488095238 0  9.82142857142857 0  C 11.5978422619048 0  13.2417224702381 0.275490891885498  14.7530691964286 0.826472675656495  C 16.2644159226191 1.37745445942749  17.4572172619048 2.12751360302815  18.3314732142857 3.07665010645848  Z M 23.9536830357143 6.49112845990064  C 24.6512276785714 7.35178613674  25 8.27679205110007  25 9.26614620298084  C 25 10.2313697657913  24.6698288690476 11.1342559735037  24.0094866071429 11.9748048261178  C 23.3491443452381 12.815353678732  22.4423363095238 13.5251951738822  21.2890625 14.1043293115685  C 21.3820684523809 14.2973740241306  21.4773995535714 14.4743316773125  21.5750558035714 14.6352022711143  C 21.6727120535714 14.796072864916  21.7889694940476 14.9509108114502  21.923828125 15.0997161107168  C 22.0586867559524 15.2485214099834  22.163318452381 15.3651525904897  22.2377232142857 15.4496096522356  C 22.3121279761905 15.5340667139815  22.4330357142857 15.6527087769103  22.6004464285714 15.805535841022  C 22.7678571428571 15.9583629051337  22.8748139880952 16.0589070262598  22.9213169642857 16.1071682044003  C 22.9306175595238 16.1152117340904  22.94921875 16.1333096758931  22.9771205357143 16.1614620298084  C 23.0050223214286 16.1896143837237  23.0259486607143 16.2097232079489  23.0398995535714 16.221788502484  C 23.0538504464286 16.2338537970192  23.0724516369048 16.2539626212444  23.095703125 16.2821149751597  C 23.1189546130952 16.310267329075  23.1352306547619 16.3323870357227  23.14453125 16.3484740951029  L 23.1794084821429 16.4088005677786  C 23.1794084821429 16.4088005677786  23.188709077381 16.4329311568488  23.2073102678571 16.4811923349894  C 23.2259114583333 16.5294535131299  23.2282366071429 16.5555949846227  23.2142857142857 16.5596167494677  C 23.2003348214286 16.5636385143128  23.1956845238095 16.5897799858055  23.2003348214286 16.6380411639461  C 23.1724330357143 16.7506505796073  23.1119791666667 16.8391294061983  23.0189732142857 16.903477643719  C 22.9259672619048 16.9678258812396  22.8236607142857 16.995978235155  22.7120535714286 16.9879347054649  C 22.2470238095238 16.9316299976343  21.8470982142857 16.8672817601136  21.5122767857143 16.7948899929028  C 20.0799851190476 16.4731488052993  18.7872023809524 15.9583629051337  17.6339285714286 15.250532292406  C 16.796875 15.3792287674474  15.9784226190476 15.4435770049681  15.1785714285714 15.4435770049681  C 12.6581101190476 15.4435770049681  10.4631696428571 14.9127040454223  8.59375 13.8509581263307  C 9.13318452380953 13.8831322450911  9.54241071428571 13.8992193044713  9.82142857142857 13.8992193044713  C 11.3188244047619 13.8992193044713  12.7557663690476 13.7182398864443  14.1322544642857 13.3562810503903  C 15.5087425595238 12.9943222143364  16.7364211309524 12.4755145493258  17.8152901785714 11.7998580553584  C 18.9778645833333 11.0598533238704  19.8707217261905 10.2072391767211  20.4938616071429 9.24201561391058  C 21.1170014880952 8.27679205110007  21.4285714285714 7.25526378045895  21.4285714285714 6.17743080198722  C 21.4285714285714 5.55807901585048  21.3216145833333 4.94677075940383  21.1077008928571 4.34350603264727  C 22.3074776785714 4.91459664064348  23.2561383928571 5.63047078306127  23.9536830357143 6.49112845990064  Z " fill-rule="nonzero" fill="#000000" stroke="none" transform="matrix(1 0 0 1 786 655 )" />
  </g>
</svg>