<?xml version="1.0" encoding="utf-8"?>
<svg version="1.1" xmlns:xlink="http://www.w3.org/1999/xlink" width="24px" height="26px" xmlns="http://www.w3.org/2000/svg">
  <g transform="matrix(1 0 0 1 -828 -396 )">
    <path d="M 16.5 0  L 23 0  C 23.2708333333333 0  23.5052083333333 0.10720486111111  23.703125 0.321614583333332  C 23.9010416666667 0.536024305555552  24 0.789930555555552  24 1.08333333333333  L 24 8.125  C 24 8.28298611111111  23.953125 8.41276041666667  23.859375 8.51432291666667  C 23.765625 8.61588541666667  23.6458333333333 8.66666666666667  23.5 8.66666666666667  L 22.5 8.66666666666667  C 22.3541666666667 8.66666666666667  22.234375 8.61588541666667  22.140625 8.51432291666667  C 22.046875 8.41276041666667  22 8.28298611111111  22 8.125  L 22 3.69010416666667  L 16.03125 10.1731770833333  C 17.34375 11.93359375  18 13.9592013888889  18 16.25  C 18 17.5703125  17.7630208333333 18.8313802083333  17.2890625 20.033203125  C 16.8151041666667 21.2350260416667  16.1744791666667 22.2732204861111  15.3671875 23.1477864583333  C 14.5598958333333 24.0223524305556  13.6015625 24.7163628472222  12.4921875 25.2298177083333  C 11.3828125 25.7432725694444  10.21875 26  9 26  C 7.78125 26  6.6171875 25.7432725694444  5.5078125 25.2298177083333  C 4.3984375 24.7163628472222  3.44010416666667 24.0223524305556  2.6328125 23.1477864583333  C 1.82552083333333 22.2732204861111  1.18489583333333 21.2350260416667  0.7109375 20.033203125  C 0.236979166666667 18.8313802083333  0 17.5703125  0 16.25  C 0 14.9296875  0.236979166666667 13.6686197916667  0.7109375 12.466796875  C 1.18489583333333 11.2649739583333  1.82552083333333 10.2267795138889  2.6328125 9.35221354166667  C 3.44010416666667 8.47764756944444  4.3984375 7.78363715277778  5.5078125 7.27018229166667  C 6.6171875 6.75672743055555  7.78125 6.5  9 6.5  C 11.1145833333333 6.5  12.984375 7.2109375  14.609375 8.6328125  L 20.578125 2.16666666666667  L 16.5 2.16666666666667  C 16.3541666666667 2.16666666666667  16.234375 2.11588541666667  16.140625 2.01432291666667  C 16.046875 1.91276041666667  16 1.78298611111111  16 1.625  L 16 0.541666666666668  C 16 0.383680555555552  16.046875 0.25390625  16.140625 0.15234375  C 16.234375 0.05078125  16.3541666666667 0  16.5 0  Z M 4.0546875 21.607421875  C 5.42447916666667 23.0913628472222  7.07291666666667 23.8333333333333  9 23.8333333333333  C 10.9270833333333 23.8333333333333  12.5755208333333 23.0913628472222  13.9453125 21.607421875  C 15.3151041666667 20.1234809027778  16 18.3376736111111  16 16.25  C 16 14.1623263888889  15.3151041666667 12.3765190972222  13.9453125 10.892578125  C 12.5755208333333 9.40863715277778  10.9270833333333 8.66666666666667  9 8.66666666666667  C 7.07291666666667 8.66666666666667  5.42447916666667 9.40863715277778  4.0546875 10.892578125  C 2.68489583333333 12.3765190972222  2 14.1623263888889  2 16.25  C 2 18.3376736111111  2.68489583333333 20.1234809027778  4.0546875 21.607421875  Z " fill-rule="nonzero" fill="#ff4500" stroke="none" transform="matrix(1 0 0 1 828 396 )" />
  </g>
</svg>