<?xml version="1.0" encoding="utf-8"?>
<svg version="1.1" xmlns:xlink="http://www.w3.org/1999/xlink" width="287px" height="152px" xmlns="http://www.w3.org/2000/svg">
  <g transform="matrix(1 0 0 1 -1200 -367 )">
    <path d="M 1200 367  L 1487 367  L 1487 519  L 1200 519  L 1200 367  " fill-rule="nonzero" fill="#cccccc" stroke="none" />
    <path d="M 1211 378  L 1476 378  L 1476 508  L 1211 508  L 1211 378  " fill-rule="nonzero" fill="#ffffff" stroke="none" />
    <path d="M 1360.64 412.6  C 1354.256 412.6  1349.24 407.584  1349.24 401.2  C 1349.24 394.816  1354.256 389.8  1360.64 389.8  C 1367.024 389.8  1372.04 394.816  1372.04 401.2  C 1372.04 407.584  1367.024 412.6  1360.64 412.6  " fill-rule="nonzero" fill="#cccccc" stroke="none" />
    <path d="M 1215 504  L 1215 436.9  L 1279.25 406.4  L 1369.2 465.232055749129  L 1420.6 424.7  L 1472 465.232055749129  L 1472 504  L 1215 504  " fill-rule="nonzero" fill="#169bd5" stroke="none" />
  </g>
</svg>