<?xml version="1.0" encoding="utf-8"?>
<svg version="1.1" xmlns:xlink="http://www.w3.org/1999/xlink" width="35px" height="33px" xmlns="http://www.w3.org/2000/svg">
  <g transform="matrix(1 0 0 1 -661 -873 )">
    <path d="M 9.33333333333333 11.7857142857143  C 9.33333333333333 13.4921875  9.82552083333333 15.0636160714286  10.8098958333333 16.5  C 8.84114583333333 16.5613839285714  7.23090277777778 17.3470982142857  5.97916666666667 18.8571428571429  L 3.53645833333333 18.8571428571429  C 2.53993055555556 18.8571428571429  1.70138888888889 18.6085379464286  1.02083333333333 18.111328125  C 0.340277777777778 17.6141183035714  0 16.88671875  0 15.9291294642857  C 0 11.5954241071429  0.753472222222222 9.42857142857143  2.26041666666667 9.42857142857143  C 2.33333333333333 9.42857142857143  2.59765625 9.55747767857143  3.05338541666667 9.81529017857143  C 3.50911458333333 10.0731026785714  4.1015625 10.333984375  4.83072916666667 10.5979352678571  C 5.55989583333333 10.8618861607143  6.28298611111111 10.9938616071429  7 10.9938616071429  C 7.81423611111111 10.9938616071429  8.62239583333333 10.8526785714286  9.42447916666667 10.5703125  C 9.36371527777778 11.0245535714286  9.33333333333333 11.4296875  9.33333333333333 11.7857142857143  Z M 30.26953125 26.3244977678571  C 30.3120659722222 26.9444754464286  30.3333333333333 27.5797991071429  30.3333333333333 28.23046875  C 30.3333333333333 29.7036830357143  29.8897569444444 30.8669084821429  29.0026041666667 31.7201450892857  C 28.1154513888889 32.5733816964286  26.9366319444444 33  25.4661458333333 33  L 9.53385416666667 33  C 8.06336805555556 33  6.88454861111111 32.5733816964286  5.99739583333333 31.7201450892857  C 5.11024305555556 30.8669084821429  4.66666666666667 29.7036830357143  4.66666666666667 28.23046875  C 4.66666666666667 27.5797991071429  4.68793402777778 26.9444754464286  4.73046875 26.3244977678571  C 4.77300347222222 25.7045200892857  4.85807291666667 25.0354352678571  4.98567708333333 24.3172433035714  C 5.11328125 23.5990513392857  5.27430555555556 22.9330357142857  5.46875 22.3191964285714  C 5.66319444444444 21.7053571428571  5.92447916666667 21.1068638392857  6.25260416666667 20.5237165178571  C 6.58072916666667 19.9405691964286  6.95746527777778 19.443359375  7.3828125 19.0320870535714  C 7.80815972222222 18.6208147321429  8.32769097222222 18.2924107142857  8.94140625 18.046875  C 9.55512152777778 17.8013392857143  10.2326388888889 17.6785714285714  10.9739583333333 17.6785714285714  C 11.0954861111111 17.6785714285714  11.3567708333333 17.810546875  11.7578125 18.0744977678571  C 12.1588541666667 18.3384486607143  12.6024305555556 18.6330915178571  13.0885416666667 18.9584263392857  C 13.5746527777778 19.2837611607143  14.2248263888889 19.5784040178571  15.0390625 19.8423549107143  C 15.8532986111111 20.1063058035714  16.6736111111111 20.23828125  17.5 20.23828125  C 18.3263888888889 20.23828125  19.1467013888889 20.1063058035714  19.9609375 19.8423549107143  C 20.7751736111111 19.5784040178571  21.4253472222222 19.2837611607143  21.9114583333333 18.9584263392857  C 22.3975694444444 18.6330915178571  22.8411458333333 18.3384486607143  23.2421875 18.0744977678571  C 23.6432291666667 17.810546875  23.9045138888889 17.6785714285714  24.0260416666667 17.6785714285714  C 24.7673611111111 17.6785714285714  25.4448784722222 17.8013392857143  26.05859375 18.046875  C 26.6723090277778 18.2924107142857  27.1918402777778 18.6208147321429  27.6171875 19.0320870535714  C 28.0425347222222 19.443359375  28.4192708333333 19.9405691964286  28.7473958333333 20.5237165178571  C 29.0755208333333 21.1068638392857  29.3368055555556 21.7053571428571  29.53125 22.3191964285714  C 29.7256944444444 22.9330357142857  29.88671875 23.5990513392857  30.0143229166667 24.3172433035714  C 30.1419270833333 25.0354352678571  30.2269965277778 25.7045200892857  30.26953125 26.3244977678571  Z M 10.2994791666667 1.38113839285714  C 11.2109375 2.30189732142857  11.6666666666667 3.41294642857143  11.6666666666667 4.71428571428572  C 11.6666666666667 6.015625  11.2109375 7.12667410714286  10.2994791666667 8.04743303571428  C 9.38802083333333 8.96819196428572  8.28819444444444 9.42857142857143  7 9.42857142857143  C 5.71180555555556 9.42857142857143  4.61197916666667 8.96819196428572  3.70052083333333 8.04743303571428  C 2.7890625 7.12667410714286  2.33333333333333 6.015625  2.33333333333333 4.71428571428572  C 2.33333333333333 3.41294642857143  2.7890625 2.30189732142857  3.70052083333333 1.38113839285714  C 4.61197916666667 0.460379464285716  5.71180555555556 0  7 0  C 8.28819444444444 0  9.38802083333333 0.460379464285716  10.2994791666667 1.38113839285714  Z M 22.44921875 6.78599330357143  C 23.81640625 8.16713169642857  24.5 9.83370535714286  24.5 11.7857142857143  C 24.5 13.7377232142857  23.81640625 15.404296875  22.44921875 16.7854352678571  C 21.08203125 18.1665736607143  19.4322916666667 18.8571428571429  17.5 18.8571428571429  C 15.5677083333333 18.8571428571429  13.91796875 18.1665736607143  12.55078125 16.7854352678571  C 11.18359375 15.404296875  10.5 13.7377232142857  10.5 11.7857142857143  C 10.5 9.83370535714286  11.18359375 8.16713169642857  12.55078125 6.78599330357143  C 13.91796875 5.40485491071428  15.5677083333333 4.71428571428572  17.5 4.71428571428572  C 19.4322916666667 4.71428571428572  21.08203125 5.40485491071428  22.44921875 6.78599330357143  Z M 32.7395833333333 9.42857142857143  C 34.2465277777778 9.42857142857143  35 11.5954241071429  35 15.9291294642857  C 35 16.88671875  34.6597222222222 17.6141183035714  33.9791666666667 18.111328125  C 33.2986111111111 18.6085379464286  32.4600694444445 18.8571428571429  31.4635416666667 18.8571428571429  L 29.0208333333333 18.8571428571429  C 27.7690972222222 17.3470982142857  26.1588541666667 16.5613839285714  24.1901041666667 16.5  C 25.1744791666667 15.0636160714286  25.6666666666667 13.4921875  25.6666666666667 11.7857142857143  C 25.6666666666667 11.4296875  25.6362847222222 11.0245535714286  25.5755208333333 10.5703125  C 26.3776041666667 10.8526785714286  27.1857638888889 10.9938616071429  28 10.9938616071429  C 28.7170138888889 10.9938616071429  29.4401041666667 10.8618861607143  30.1692708333333 10.5979352678571  C 30.8984375 10.333984375  31.4908854166667 10.0731026785714  31.9466145833333 9.81529017857143  C 32.40234375 9.55747767857143  32.6666666666667 9.42857142857143  32.7395833333333 9.42857142857143  Z M 31.2994791666667 1.38113839285714  C 32.2109375 2.30189732142857  32.6666666666667 3.41294642857143  32.6666666666667 4.71428571428572  C 32.6666666666667 6.015625  32.2109375 7.12667410714286  31.2994791666667 8.04743303571428  C 30.3880208333333 8.96819196428572  29.2881944444444 9.42857142857143  28 9.42857142857143  C 26.7118055555556 9.42857142857143  25.6119791666667 8.96819196428572  24.7005208333333 8.04743303571428  C 23.7890625 7.12667410714286  23.3333333333333 6.015625  23.3333333333333 4.71428571428572  C 23.3333333333333 3.41294642857143  23.7890625 2.30189732142857  24.7005208333333 1.38113839285714  C 25.6119791666667 0.460379464285716  26.7118055555556 0  28 0  C 29.2881944444444 0  30.3880208333333 0.460379464285716  31.2994791666667 1.38113839285714  Z " fill-rule="nonzero" fill="#ff4500" stroke="none" transform="matrix(1 0 0 1 661 873 )" />
  </g>
</svg>