<?xml version="1.0" encoding="utf-8"?>
<svg version="1.1" xmlns:xlink="http://www.w3.org/1999/xlink" width="10px" height="14px" xmlns="http://www.w3.org/2000/svg">
  <g transform="matrix(1 0 0 1 -331 -244 )">
    <path d="M 9.82817869415807 6.67735470941884  C 9.94272623138603 6.77087508350033  10 6.87842351369405  10 7  C 10 7.12157648630594  9.94272623138603 7.22912491649967  9.82817869415807 7.32264529058116  L 1.8213058419244 13.8597194388778  C 1.70675830469645 13.9532398129593  1.57502863688431 14  1.42611683848797 14  C 1.27720504009164 14  1.1454753722795 13.9532398129593  1.03092783505155 13.8597194388778  L 0.171821305841924 13.1583166332665  C 0.0572737686139748 13.064796259185  0 12.9572478289913  0 12.8356713426854  C 0 12.7140948563794  0.0572737686139748 12.6065464261857  0.171821305841924 12.5130260521042  L 6.92439862542955 7  L 0.171821305841924 1.48697394789579  C 0.0572737686139748 1.39345357381429  0 1.28590514362057  0 1.16432865731463  C 0 1.04275217100868  0.0572737686139748 0.935203740814962  0.171821305841924 0.841683366733466  L 1.03092783505155 0.140280561122245  C 1.1454753722795 0.0467601870407477  1.27720504009164 0  1.42611683848797 0  C 1.57502863688431 0  1.70675830469645 0.0467601870407477  1.8213058419244 0.140280561122245  L 9.82817869415807 6.67735470941884  Z " fill-rule="nonzero" fill="#000000" stroke="none" transform="matrix(1 0 0 1 331 244 )" />
  </g>
</svg>