<?xml version="1.0" encoding="utf-8"?>
<svg version="1.1" xmlns:xlink="http://www.w3.org/1999/xlink" width="12px" height="12px" xmlns="http://www.w3.org/2000/svg">
  <g transform="matrix(1 0 0 1 -84 -333 )">
    <path d="M 3.13756097560976 4.61538461538462  L 1.24682926829268 4.61538461538462  L 4.89365853658537 9.41105769230769  L 3.13756097560976 4.61538461538462  Z M 3.95707317073171 4.61538461538462  L 6 10.1826923076923  L 8.04292682926829 4.61538461538462  L 3.95707317073171 4.61538461538462  Z M 1.12975609756098 3.69230769230769  L 3.15512195121951 3.69230769230769  L 4.34926829268293 0.923076923076922  L 2.81560975609756 0.923076923076922  L 1.12975609756098 3.69230769230769  Z M 8.86243902439024 4.61538461538462  L 7.10634146341463 9.41105769230769  L 10.7531707317073 4.61538461538462  L 8.86243902439024 4.61538461538462  Z M 5.19804878048781 0.923076923076922  L 4.00390243902439 3.69230769230769  L 7.99609756097561 3.69230769230769  L 6.80195121951219 0.923076923076922  L 5.19804878048781 0.923076923076922  Z M 7.65073170731707 0.923076923076922  L 8.84487804878049 3.69230769230769  L 10.870243902439 3.69230769230769  L 9.18439024390244 0.923076923076922  L 7.65073170731707 0.923076923076922  Z M 9.37170731707317 0  C 9.50048780487805 0  9.6 0.0624999999999991  9.67024390243903 0.1875  L 11.9180487804878 3.87980769230769  C 11.9726829268293 3.96634615384615  11.9980487804878 4.06610576923077  11.9941463414634 4.17908653846154  C 11.990243902439 4.29206730769231  11.9570731707317 4.38942307692307  11.8946341463415 4.47115384615385  L 6.27512195121951 11.8557692307692  C 6.20487804878049 11.9519230769231  6.11317073170732 12  6 12  C 5.88682926829268 12  5.79512195121951 11.9519230769231  5.72487804878049 11.8557692307692  L 0.105365853658537 4.47115384615385  C 0.0429268292682927 4.38942307692307  0.00975609756097561 4.29206730769231  0.00585365853658537 4.17908653846154  C 0.00195121951219512 4.06610576923077  0.0273170731707317 3.96634615384615  0.0819512195121951 3.87980769230769  L 2.32975609756098 0.1875  C 2.4 0.0624999999999991  2.49951219512195 0  2.62829268292683 0  L 9.37170731707317 0  Z " fill-rule="nonzero" fill="#f59a23" stroke="none" transform="matrix(1 0 0 1 84 333 )" />
  </g>
</svg>