<?xml version="1.0" encoding="utf-8"?>
<svg version="1.1" xmlns:xlink="http://www.w3.org/1999/xlink" width="19px" height="21px" xmlns="http://www.w3.org/2000/svg">
  <g transform="matrix(1 0 0 1 -321 -408 )">
    <path d="M 18.5224184782609 9.28690629011553  C 18.8408061594203 9.60141206675225  19 10.0057766367137  19 10.5  C 19 10.9852374839538  18.8408061594203 11.3940949935815  18.5224184782609 11.7265725288832  L 10.1195652173913 20.5012836970475  C 9.78396739130435 20.8337612323492  9.3924365942029 21  8.94497282608696 21  C 8.50611413043478 21  8.11888586956522 20.8337612323492  7.78328804347826 20.5012836970475  L 6.81521739130435 19.4903722721438  C 6.48822463768116 19.1489088575096  6.32472826086957 18.7400513478819  6.32472826086957 18.2637997432606  C 6.32472826086957 17.7875481386393  6.48822463768116 17.3786906290116  6.81521739130435 17.0372272143774  L 10.5971467391304 13.0879332477535  L 1.5101902173913 13.0879332477535  C 1.06272644927536 13.0879332477535  0.69916213768116 12.9194480102696  0.419497282608696 12.5824775353017  C 0.139832427536232 12.2455070603338  0 11.8388960205392  0 11.3626444159178  L 0 9.63735558408216  C 0 9.16110397946085  0.139832427536232 8.75449293966624  0.419497282608696 8.41752246469833  C 0.69916213768116 8.08055198973042  1.06272644927536 7.91206675224647  1.5101902173913 7.91206675224647  L 10.5971467391304 7.91206675224647  L 6.81521739130435 3.94929396662388  C 6.48822463768116 3.62580231065469  6.32472826086957 3.2214377406932  6.32472826086957 2.73620025673941  C 6.32472826086957 2.25096277278562  6.48822463768116 1.84659820282413  6.81521739130435 1.52310654685494  L 7.78328804347826 0.51219512195122  C 8.11028079710145 0.170731707317072  8.49750905797101 0  8.94497282608696 0  C 9.40104166666667 0  9.79257246376812 0.170731707317072  10.1195652173913 0.51219512195122  L 18.5224184782609 9.28690629011553  Z " fill-rule="nonzero" fill="#aaaaaa" stroke="none" transform="matrix(1 0 0 1 321 408 )" />
  </g>
</svg>