<?xml version="1.0" encoding="utf-8"?>
<svg version="1.1" xmlns:xlink="http://www.w3.org/1999/xlink" width="44px" height="34px" xmlns="http://www.w3.org/2000/svg">
  <g transform="matrix(1 0 0 1 -69 -479 )">
    <path d="M 31.2075892857143 22.4674479166667  C 31.3549107142857 22.3346354166667  31.4285714285714 22.1649305555556  31.4285714285714 21.9583333333333  L 31.4285714285714 17.7083333333333  C 31.4285714285714 17.5017361111111  31.3549107142857 17.33203125  31.2075892857143 17.19921875  C 31.0602678571429 17.06640625  30.8720238095238 17  30.6428571428571 17  L 25.1428571428571 17  L 25.1428571428571 12.0416666666667  C 25.1428571428571 11.8350694444444  25.0691964285714 11.6653645833333  24.921875 11.5325520833333  C 24.7745535714286 11.3997395833333  24.5863095238095 11.3333333333333  24.3571428571429 11.3333333333333  L 19.6428571428571 11.3333333333333  C 19.4136904761905 11.3333333333333  19.2254464285714 11.3997395833333  19.078125 11.5325520833333  C 18.9308035714286 11.6653645833333  18.8571428571429 11.8350694444444  18.8571428571429 12.0416666666667  L 18.8571428571429 17  L 13.3571428571429 17  C 13.1279761904762 17  12.9397321428571 17.06640625  12.7924107142857 17.19921875  C 12.6450892857143 17.33203125  12.5714285714286 17.5017361111111  12.5714285714286 17.7083333333333  L 12.5714285714286 21.9583333333333  C 12.5714285714286 22.1649305555556  12.6450892857143 22.3346354166667  12.7924107142857 22.4674479166667  C 12.9397321428571 22.6002604166667  13.1279761904762 22.6666666666667  13.3571428571429 22.6666666666667  L 18.8571428571429 22.6666666666667  L 18.8571428571429 27.625  C 18.8571428571429 27.8315972222222  18.9308035714286 28.0013020833333  19.078125 28.1341145833333  C 19.2254464285714 28.2669270833333  19.4136904761905 28.3333333333333  19.6428571428571 28.3333333333333  L 24.3571428571429 28.3333333333333  C 24.5863095238095 28.3333333333333  24.7745535714286 28.2669270833333  24.921875 28.1341145833333  C 25.0691964285714 28.0013020833333  25.1428571428571 27.8315972222222  25.1428571428571 27.625  L 25.1428571428571 22.6666666666667  L 30.6428571428571 22.6666666666667  C 30.8720238095238 22.6666666666667  31.0602678571429 22.6002604166667  31.2075892857143 22.4674479166667  Z M 15.7142857142857 3  L 15.7142857142857 6  L 28.2857142857143 6  L 28.2857142857143 3  L 15.7142857142857 3  Z M 5.5 5.66666666666667  L 7 5.66666666666667  L 7 34  L 5.5 34  C 3.99404761904762 34  2.70089285714286 33.5130208333333  1.62053571428571 32.5390625  C 0.540178571428571 31.5651041666667  0 30.3993055555556  0 29.0416666666667  L 0 10.625  C 0 9.26736111111111  0.540178571428571 8.1015625  1.62053571428571 7.12760416666667  C 2.70089285714286 6.15364583333333  3.99404761904762 5.66666666666667  5.5 5.66666666666667  Z M 31.4285714285714 5.66666666666667  L 35 5.66666666666667  L 35 34  L 9 34  L 9 5.66666666666667  L 12.5714285714286 5.66666666666667  L 12.5714285714286 2.125  C 12.5714285714286 1.53472222222222  12.8005952380952 1.03298611111111  13.2589285714286 0.619791666666665  C 13.7172619047619 0.206597222222221  14.2738095238095 0  14.9285714285714 0  L 29.0714285714286 0  C 29.7261904761905 0  30.2827380952381 0.206597222222221  30.7410714285714 0.619791666666665  C 31.1994047619048 1.03298611111111  31.4285714285714 1.53472222222222  31.4285714285714 2.125  L 31.4285714285714 5.66666666666667  Z M 42.3794642857143 7.12760416666667  C 43.4598214285714 8.1015625  44 9.26736111111111  44 10.625  L 44 29.0416666666667  C 44 30.3993055555556  43.4598214285714 31.5651041666667  42.3794642857143 32.5390625  C 41.2991071428571 33.5130208333333  40.0059523809524 34  38.5 34  L 37 34  L 37 5.66666666666667  L 38.5 5.66666666666667  C 40.0059523809524 5.66666666666667  41.2991071428571 6.15364583333333  42.3794642857143 7.12760416666667  Z " fill-rule="nonzero" fill="#f07040" stroke="none" fill-opacity="0.788235294117647" transform="matrix(1 0 0 1 69 479 )" />
  </g>
</svg>