<?xml version="1.0" encoding="utf-8"?>
<svg version="1.1" xmlns:xlink="http://www.w3.org/1999/xlink" width="44px" height="41px" xmlns="http://www.w3.org/2000/svg">
  <g transform="matrix(1 0 0 1 -69 -393 )">
    <path d="M 10.3928783382789 23.6023738872404  L 25.3293768545994 9.68427299703264  L 33.5810089020772 17.373293768546  L 18.6445103857567 31.2913946587537  L 10.3928783382789 23.6023738872404  Z M 18.6445103857567 33.9436201780415  C 19.1145400593472 33.9436201780415  19.5062314540059 33.7976261127596  19.8195845697329 33.5056379821958  L 35.9572700296736 18.4682492581602  C 36.2880316518299 18.1600395647873  36.453412462908 17.7950544015826  36.453412462908 17.373293768546  C 36.453412462908 16.9515331355094  36.2880316518299 16.5865479723046  35.9572700296736 16.2783382789318  L 26.5044510385757 7.4700296735905  C 26.1910979228487 7.17804154302671  25.7994065281899 7.03204747774481  25.3293768545994 7.03204747774481  C 24.8593471810089 7.03204747774481  24.4676557863502 7.17804154302671  24.1543026706231 7.4700296735905  L 8.01661721068249 22.5074183976261  C 7.68585558852621 22.815628090999  7.52047477744807 23.1806132542038  7.52047477744807 23.6023738872404  C 7.52047477744807 24.024134520277  7.68585558852621 24.3891196834817  8.01661721068249 24.6973293768546  L 17.4694362017804 33.5056379821958  C 17.7827893175074 33.7976261127596  18.1744807121662 33.9436201780415  18.6445103857567 33.9436201780415  Z M 44 15.8038575667656  C 44 16.6717111770524  43.6779426310584 17.4057368941642  43.0338278931751 18.0059347181009  L 19.3495548961424 40.099703264095  C 18.7054401582592 40.6999010880317  17.9177052423343 41  16.986350148368 41  C 16.0549950544016 41  15.2672601384768 40.6999010880317  14.6231454005935 40.099703264095  L 11.3329376854599 37.0338278931751  C 12.3078140454995 36.1254203758655  12.7952522255193 35.0223541048467  12.7952522255193 33.7246290801187  C 12.7952522255193 32.4269040553907  12.3078140454995 31.3238377843719  11.3329376854599 30.4154302670623  C 10.3580613254204 29.5070227497527  9.17428288822948 29.0528189910979  7.78160237388724 29.0528189910979  C 6.38892185954501 29.0528189910979  5.20514342235411 29.5070227497527  4.23026706231454 30.4154302670623  L 0.966172106824926 27.3495548961424  C 0.322057368941642 26.7493570722057  0 26.015331355094  0 25.1474777448071  C 0 24.2796241345203  0.322057368941642 23.5455984174085  0.966172106824926 22.9454005934718  L 24.6504451038576 0.900296735905046  C 25.2945598417409 0.300098911968345  26.0822947576657 0  27.013649851632 0  C 27.9450049455984 0  28.7327398615233 0.300098911968345  29.3768545994065 0.900296735905046  L 32.6409495548961 3.94183976261128  C 31.6660731948566 4.85024727992087  31.1786350148368 5.95331355093966  31.1786350148368 7.25103857566765  C 31.1786350148368 8.54876360039565  31.6660731948566 9.65182987141444  32.6409495548961 10.560237388724  C 33.6158259149357 11.4686449060336  34.7996043521266 11.9228486646884  36.1922848664688 11.9228486646884  C 37.5849653808111 11.9228486646884  38.768743818002 11.4686449060336  39.7436201780415 10.560237388724  L 43.0338278931751 13.6017804154303  C 43.6779426310584 14.201978239367  44 14.9360039564787  44 15.8038575667656  Z " fill-rule="nonzero" fill="#f07040" stroke="none" fill-opacity="0.788235294117647" transform="matrix(1 0 0 1 69 393 )" />
  </g>
</svg>