<?xml version="1.0" encoding="utf-8"?>
<svg version="1.1" xmlns:xlink="http://www.w3.org/1999/xlink" width="44px" height="40px" xmlns="http://www.w3.org/2000/svg">
  <g transform="matrix(1 0 0 1 -69 -558 )">
    <path d="M 30.6466346153846 30.3459821428571  C 31.3870192307692 29.6242559523809  31.7572115384615 28.7202380952381  31.7572115384615 27.6339285714286  C 31.7572115384615 26.7857142857143  31.708733974359 25.9895833333333  31.6117788461538 25.2455357142857  C 31.5148237179487 24.5014880952381  31.3297275641026 23.7537202380952  31.0564903846154 23.0022321428571  C 30.7832532051282 22.250744047619  30.4350961538462 21.6108630952381  30.0120192307692 21.0825892857143  C 29.5889423076923 20.5543154761905  29.0248397435897 20.1227678571429  28.3197115384615 19.7879464285714  C 27.6145833333333 19.453125  26.8125 19.2857142857143  25.9134615384615 19.2857142857143  C 25.8076923076923 19.3452380952381  25.5124198717949 19.4977678571429  25.0276442307692 19.7433035714286  C 24.5428685897436 19.9888392857143  24.1682692307692 20.1711309523809  23.9038461538462 20.2901785714286  C 23.6394230769231 20.4092261904762  23.2824519230769 20.5580357142857  22.8329326923077 20.7366071428571  C 22.3834134615385 20.9151785714286  21.9515224358974 21.0416666666667  21.5372596153846 21.1160714285714  C 21.1229967948718 21.1904761904762  20.713141025641 21.2276785714286  20.3076923076923 21.2276785714286  C 19.9022435897436 21.2276785714286  19.4923878205128 21.1904761904762  19.078125 21.1160714285714  C 18.6638621794872 21.0416666666667  18.2319711538462 20.9151785714286  17.7824519230769 20.7366071428571  C 17.3329326923077 20.5580357142857  16.9759615384615 20.4092261904762  16.7115384615385 20.2901785714286  C 16.4471153846154 20.1711309523809  16.072516025641 19.9888392857143  15.5877403846154 19.7433035714286  C 15.1029647435897 19.4977678571429  14.8076923076923 19.3452380952381  14.7019230769231 19.2857142857143  C 13.8028846153846 19.2857142857143  13.0008012820513 19.453125  12.2956730769231 19.7879464285714  C 11.5905448717949 20.1227678571429  11.0264423076923 20.5543154761905  10.6033653846154 21.0825892857143  C 10.1802884615385 21.6108630952381  9.83213141025641 22.250744047619  9.55889423076923 23.0022321428571  C 9.28565705128205 23.7537202380952  9.1005608974359 24.5014880952381  9.00360576923077 25.2455357142857  C 8.90665064102564 25.9895833333333  8.85817307692308 26.7857142857143  8.85817307692308 27.6339285714286  C 8.85817307692308 28.7202380952381  9.22836538461539 29.6242559523809  9.96875 30.3459821428571  C 10.7091346153846 31.0677083333333  11.6169871794872 31.4285714285714  12.6923076923077 31  L 27.9230769230769 31  C 28.9983974358974 31.4285714285714  29.90625 31.0677083333333  30.6466346153846 30.3459821428571  Z M 25.1598557692308 18.4598214285714  C 26.5084134615385 17.328869047619  27.1826923076923 15.9672619047619  27.1826923076923 14.375  C 27.1826923076923 12.7678571428571  26.5084134615385 11.3988095238095  25.1598557692308 10.2678571428571  C 23.8112980769231 9.13690476190476  22.1939102564103 8.57142857142857  20.3076923076923 8.57142857142857  C 18.4214743589744 8.57142857142857  16.8040865384615 9.13690476190476  15.4555288461538 10.2678571428571  C 14.1069711538462 11.3988095238095  13.4326923076923 12.7678571428571  13.4326923076923 14.375  C 13.4326923076923 15.9672619047619  14.1069711538462 17.328869047619  15.4555288461538 18.4598214285714  C 16.8040865384615 19.5907738095238  18.4214743589744 20.15625  20.3076923076923 20.15625  C 22.1939102564103 20.15625  23.8112980769231 19.5907738095238  25.1598557692308 18.4598214285714  Z M 43.7620192307692 25.9151785714286  C 43.9206730769231 26.0491071428571  44 26.2202380952381  44 26.4285714285714  L 44 30.7142857142857  C 44 30.922619047619  43.9206730769231 31.09375  43.7620192307692 31.2276785714286  C 43.6033653846154 31.3616071428571  43.400641025641 31.4285714285714  43.1538461538462 31.4285714285714  L 40.6153846153846 31.4285714285714  L 40.6153846153846 36.4285714285714  C 40.6153846153846 37.4107142857143  40.2011217948718 38.2514880952381  39.3725961538462 38.9508928571429  C 38.5440705128205 39.6502976190476  37.5480769230769 40  36.3846153846154 40  L 4.23076923076923 40  C 3.06730769230769 40  2.0713141025641 39.6502976190476  1.24278846153846 38.9508928571429  C 0.41426282051282 38.2514880952381  0 37.4107142857143  0 36.4285714285714  L 0 3.57142857142857  C 0 2.58928571428572  0.41426282051282 1.7485119047619  1.24278846153846 1.04910714285714  C 2.0713141025641 0.349702380952381  3.06730769230769 0  4.23076923076923 0  L 36.3846153846154 0  C 37.5480769230769 0  38.5440705128205 0.349702380952381  39.3725961538462 1.04910714285714  C 40.2011217948718 1.7485119047619  40.6153846153846 2.58928571428572  40.6153846153846 3.57142857142857  L 40.6153846153846 8.57142857142857  L 43.1538461538462 8.57142857142857  C 43.400641025641 8.57142857142857  43.6033653846154 8.63839285714286  43.7620192307692 8.77232142857143  C 43.9206730769231 8.90625  44 9.07738095238095  44 9.28571428571428  L 44 13.5714285714286  C 44 13.7797619047619  43.9206730769231 13.9508928571429  43.7620192307692 14.0848214285714  C 43.6033653846154 14.21875  43.400641025641 14.2857142857143  43.1538461538462 14.2857142857143  L 40.6153846153846 14.2857142857143  L 40.6153846153846 17.1428571428571  L 43.1538461538462 17.1428571428571  C 43.400641025641 17.1428571428571  43.6033653846154 17.2098214285714  43.7620192307692 17.34375  C 43.9206730769231 17.4776785714286  44 17.6488095238095  44 17.8571428571429  L 44 22.1428571428571  C 44 22.3511904761905  43.9206730769231 22.5223214285714  43.7620192307692 22.65625  C 43.6033653846154 22.7901785714286  43.400641025641 22.8571428571429  43.1538461538462 22.8571428571429  L 40.6153846153846 22.8571428571429  L 40.6153846153846 25.7142857142857  L 43.1538461538462 25.7142857142857  C 43.400641025641 25.7142857142857  43.6033653846154 25.78125  43.7620192307692 25.9151785714286  Z " fill-rule="nonzero" fill="#f07040" stroke="none" fill-opacity="0.788235294117647" transform="matrix(1 0 0 1 69 558 )" />
  </g>
</svg>