<?xml version="1.0" encoding="utf-8"?>
<svg version="1.1" xmlns:xlink="http://www.w3.org/1999/xlink" width="22px" height="30px" xmlns="http://www.w3.org/2000/svg">
  <g transform="matrix(1 0 0 1 -119 -303 )">
    <path d="M 0 21.2946428571429  C 0 18.2254464285714  1.05239179954442 15.625  3.15717539863326 13.4933035714286  C 3.09035687167806 13.28125  3.05694760820046 12.9910714285714  3.05694760820046 12.6227678571429  C 3.05694760820046 12.3995535714286  3.10288534548216 12.1261160714286  3.19476082004556 11.8024553571429  C 3.28663629460896 11.4787946428571  3.38686408504176 11.2276785714286  3.49544419134396 11.0491071428571  C 3.48709187547456 10.8035714285714  3.51841305998481 10.5078125  3.58940774487472 10.1618303571429  C 3.66040242976462 9.81584821428571  3.75436598329537 9.57589285714286  3.87129840546697 9.44196428571429  C 3.87129840546697 7.890625  4.25759301442673 6.28069196428571  5.03018223234624 4.61216517857143  C 5.80277145026576 2.94363839285714  6.71108580106302 1.77455357142857  7.75512528473804 1.10491071428571  C 8.91609719058466 0.368303571428571  10.2691723614275 0  11.8143507972665 0  C 12.9252088078967 0  14.036066818527 0.306919642857146  15.1469248291572 0.920758928571429  C 15.5561883067578 1.15513392857143  15.9320425208808 1.42299107142857  16.2744874715262 1.72433035714286  C 16.6169324221716 2.02566964285714  16.9134396355353 2.33816964285714  17.1640091116173 2.66183035714286  C 17.4145785876993 2.98549107142857  17.6442672741078 3.36495535714286  17.8530751708428 3.80022321428571  C 18.0618830675778 4.23549107142857  18.2372817008352 4.6484375  18.379271070615 5.0390625  C 18.5212604403948 5.4296875  18.6569855732726 5.90122767857143  18.7864464692483 6.45368303571429  C 18.915907365224 7.00613839285714  19.0223993925588 7.50558035714286  19.1059225512528 7.95200892857143  C 19.1894457099468 8.3984375  19.2813211845103 8.9453125  19.3815489749431 9.59263392857143  L 19.3940774487472 9.67633928571429  C 19.8534548215642 10.6026785714286  20.0831435079727 11.4397321428571  20.0831435079727 12.1875  C 20.0831435079727 12.34375  20.0455580865604 12.5669642857143  19.9703872437358 12.8571428571429  C 19.8952164009112 13.1473214285714  19.8576309794989 13.359375  19.8576309794989 13.4933035714286  C 19.8576309794989 13.5044642857143  19.8638952164009 13.5239955357143  19.876423690205 13.5518973214286  C 19.8889521640091 13.5797991071429  19.9035687167806 13.6077008928571  19.9202733485194 13.6356026785714  C 19.9369779802582 13.6635044642857  19.9453302961276 13.6830357142857  19.9453302961276 13.6941964285714  C 20.5884586180714 14.9665178571429  21.0916856492027 16.1635044642857  21.4550113895216 17.28515625  C 21.8183371298405 18.4068080357143  22 19.5703125  22 20.7756696428571  C 22 21.2555803571429  21.9185649202733 21.8136160714286  21.75569476082 22.4497767857143  C 21.5928246013667 23.0859375  21.3610478359909 23.4040178571429  21.0603644646925 23.4040178571429  C 20.9851936218679 23.4040178571429  20.9037585421412 23.3621651785714  20.8160592255125 23.2784598214286  C 20.7283599088838 23.1947544642857  20.6490129081245 23.0970982142857  20.5780182232346 22.9854910714286  C 20.5070235383447 22.8738839285714  20.4276765375854 22.7287946428571  20.3399772209567 22.5502232142857  C 20.252277904328 22.3716517857143  20.1854593773728 22.2237723214286  20.1395216400911 22.1065848214286  C 20.0935839028094 21.9893973214286  20.037205770691 21.8443080357143  19.9703872437358 21.6713169642857  C 19.9035687167806 21.4983258928571  19.8659832953683 21.4006696428571  19.8576309794989 21.3783482142857  C 19.8492786636295 21.3671875  19.8367501898254 21.3616071428571  19.8200455580866 21.3616071428571  L 19.7574031890661 21.4285714285714  C 19.2646165527714 23.1473214285714  18.713363705391 24.3917410714286  18.1036446469248 25.1618303571429  C 18.2706909643128 25.3850446428571  18.5275246772969 25.5998883928571  18.874145785877 25.8063616071429  C 19.2207668944571 26.0128348214286  19.5089217919514 26.2444196428571  19.7386104783599 26.5011160714286  C 19.9682991647684 26.7578125  20.1165527714503 27.1205357142857  20.1833712984055 27.5892857142857  C 20.1666666666667 27.6339285714286  20.1499620349279 27.7232142857143  20.1332574031891 27.8571428571429  C 20.1165527714503 27.9910714285714  20.0873196659074 28.0915178571429  20.0455580865604 28.1584821428571  C 19.5110098709188 29.2410714285714  18.2498101746393 29.7823660714286  16.2619589977221 29.7823660714286  C 15.8192862566439 29.7823660714286  15.3578208048595 29.7321428571429  14.877562642369 29.6316964285714  C 14.3973044798785 29.53125  13.9880410022779 29.4196428571429  13.6497722095672 29.296875  C 13.3115034168565 29.1741071428571  12.8750949126803 29.0066964285714  12.3405466970387 28.7946428571429  C 12.2152619589977 28.7388392857143  12.1192103264996 28.6997767857143  12.0523917995444 28.6774553571429  C 11.9354593773728 28.6328125  11.7433561123766 28.6077008928571  11.4760820045558 28.6021205357143  C 11.208807896735 28.5965401785714  11.041761579347 28.5881696428571  10.9749430523918 28.5770089285714  C 10.6324981017464 29.0792410714286  10.1000379650721 29.4419642857143  9.37756264236902 29.6651785714286  C 8.65508731966591 29.8883928571429  7.95140470766895 30  7.26651480637813 30  C 6.97418375094913 30  6.68602885345482 29.9916294642857  6.40205011389522 29.9748883928571  C 6.11807137433561 29.9581473214286  5.7296886864085 29.9079241071429  5.2369020501139 29.82421875  C 4.74411541381929 29.7405133928571  4.32232346241458 29.6261160714286  3.97152619589977 29.4810267857143  C 3.62072892938497 29.3359375  3.30960516324981 29.1127232142857  3.03815489749431 28.8113839285714  C 2.7667046317388 28.5100446428571  2.63097949886105 28.1529017857143  2.63097949886105 27.7399553571429  C 2.63097949886105 27.2935267857143  2.67274107820805 26.9614955357143  2.75626423690205 26.7438616071429  C 2.83978739559605 26.5262276785714  3.01100987091875 26.2555803571429  3.26993166287016 25.9319196428571  C 3.36180713743356 25.9095982142857  3.53094153378891 25.8370535714286  3.77733485193622 25.7142857142857  C 4.02372817008352 25.5915178571429  4.23044798785118 25.5245535714286  4.39749430523918 25.5133928571429  C 4.43090356871678 25.5133928571429  4.48936977980258 25.5022321428571  4.57289293849658 25.4799107142857  C 4.58959757023538 25.4575892857143  4.59794988610478 25.4352678571429  4.59794988610478 25.4129464285714  L 4.57289293849658 25.3627232142857  C 4.17198177676538 25.2399553571429  3.72095671981777 24.6512276785714  3.21981776765376 23.5965401785714  C 2.71867881548975 22.5418526785714  2.41381928625664 21.6685267857143  2.30523917995444 20.9765625  L 2.24259681093394 20.9263392857143  C 2.20918754745634 20.9263392857143  2.15907365223994 21.0379464285714  2.09225512528474 21.2611607142857  C 1.94191343963554 21.71875  1.71431283219438 22.1344866071429  1.40945330296128 22.5083705357143  C 1.10459377372817 22.8822544642857  0.780941533788914 23.0915178571429  0.438496583143508 23.1361607142857  L 0.425968109339408 23.1361607142857  C 0.392558845861807 23.1361607142857  0.367501898253607 23.1110491071429  0.350797266514806 23.0608258928571  C 0.334092634776006 23.0106026785714  0.313211845102506 22.9799107142857  0.288154897494305 22.96875  C 0.0960516324981018 22.3660714285714  0 21.8080357142857  0 21.2946428571429  Z " fill-rule="nonzero" fill="#fbf3f3" stroke="none" transform="matrix(1 0 0 1 119 303 )" />
  </g>
</svg>