<?xml version="1.0" encoding="utf-8"?>
<svg version="1.1" xmlns:xlink="http://www.w3.org/1999/xlink" width="29px" height="31px" xmlns="http://www.w3.org/2000/svg">
  <g transform="matrix(1 0 0 1 -214 -302 )">
    <path d="M 9.90658114891244 24.7978650137741  C 10.3432794199665 24.6057162534435  10.6802379624466 24.2676767676768  10.9174567763525 23.7837465564738  C 11.1438929168991 23.2998163452709  11.2031976203755 22.808769513315  11.0953708867819 22.3106060606061  C 10.9875441531883 21.8124426078972  10.7449340026027 21.4566115702479  10.3675404350251 21.2431129476584  C 10.0009295408068 21.0438475665748  9.60736196319018 21.0367309458219  9.18683770217513 21.2217630853994  C 8.76631344116007 21.406795224977  8.44283324037925 21.7341597796143  8.21639709983268 22.2038567493113  C 7.97917828592675 22.6877869605142  7.90909090909091 23.1752754820937  8.00613496932515 23.6663223140496  C 8.1031790295594 24.1573691460055  8.33500650678565 24.5167584940312  8.7016174010039 24.7444903581267  C 9.06822829522216 24.9722222222222  9.46988287785834 24.9900137741047  9.90658114891244 24.7978650137741  Z M 12.0819854991634 21.5953856749311  C 12.2437255995538 21.5171028466483  12.3623350065068 21.3854453627181  12.4378137200223 21.2004132231405  C 12.5240751068972 21.0153810835629  12.5429447852761 20.8267906336088  12.494422755159 20.6346418732782  C 12.4459007250418 20.4424931129477  12.3515523331474 20.3108356290174  12.2113775794757 20.2396694214876  C 12.0604201524447 20.1685032139578  11.9067670570738 20.1720615243343  11.7504182933631 20.2503443526171  C 11.5940695296524 20.3286271808999  11.4781557910392 20.4602846648301  11.4026770775237 20.6453168044077  C 11.2193716304146 21.0865472910927  11.2894590072504 21.406795224977  11.6129392080312 21.6060606060606  C 11.7638966350623 21.6772268135904  11.920245398773 21.673668503214  12.0819854991634 21.5953856749311  Z M 15.2116564417178 19.4176997245179  C 15.7238334262874 20.7058080808081  15.7373117679866 22.0615243342516  15.2520914668154 23.4848484848485  C 14.7668711656442 24.9366391184573  13.9150399702547 26.004132231405  12.696597880647 26.6873278236915  C 11.4781557910392 27.370523415978  10.2704963747909 27.4559228650138  9.07361963190184 26.9435261707989  C 7.91987358245027 26.459595959596  7.12465142219743 25.5593434343434  6.68795315114334 24.2427685950413  C 6.25125488008924 22.9261937557392  6.28629856850716 21.5918273645546  6.7930842163971 20.2396694214876  C 7.29986986428704 18.9159779614325  8.1166573712586 17.9267676767677  9.24344673731177 17.2720385674931  C 10.3702361033649 16.6173094582185  11.5051124744376 16.4820936639118  12.6480758505298 16.866391184573  C 13.8449525934189 17.2791551882461  14.6994794571482 18.1295913682277  15.2116564417178 19.4176997245179  Z M 18.1553262688232 25.7159090909091  C 19.7349879159695 24.0292699724518  20.4493400260271 22.1469237832874  20.2983825989961 20.068870523416  C 20.2013385387619 18.702479338843  19.7215095742703 17.4926538108356  18.8588957055215 16.4393939393939  C 17.9962818367726 15.3861340679522  16.8721881390593 14.6104224058769  15.4866146123815 14.112258953168  C 14.1010410857037 13.6140955004591  12.6211191671314 13.4646464646465  11.0468488566648 13.66391184573  C 8.64231269752742 13.9912764003673  6.65021379438557 14.9982782369146  5.07055214723926 16.6849173553719  C 3.49089050009295 18.3715564738292  2.77653839003532 20.2539026629936  2.92749581706637 22.331955922865  C 3.02453987730061 23.698347107438  3.50436884179216 24.9081726354454  4.36698271054099 25.9614325068871  C 5.22959657928983 27.0146923783287  6.35369027700316 27.790404040404  7.73926380368098 28.2885674931129  C 9.1248373303588 28.7867309458219  10.604759248931 28.9361799816345  12.1790295593977 28.736914600551  C 14.583565718535 28.4095500459137  16.5756646216769 27.4025482093664  18.1553262688232 25.7159090909091  Z M 24.7300613496933 17.6670110192837  C 25.0966722439115 18.4142561983471  25.2799776910206 19.2433425160698  25.2799776910206 20.1542699724518  C 25.2799776910206 21.1221303948577  25.0804982338725 22.114898989899  24.6815393195761 23.1325757575758  C 24.2825804052798 24.1502525252525  23.6949247071946 25.1252295684114  22.9185722253207 26.0575068870523  C 22.1422197434467 26.9897842056933  21.2337795129206 27.825987144169  20.1932515337423 28.5661157024793  C 19.152723554564 29.3062442607897  17.9342814649563 29.8969237832874  16.5379252649191 30.3381542699725  C 15.1415690648819 30.7793847566575  13.6832124930284 31  12.1628555493586 31  C 10.6424986056888 31  9.15988101877673 30.761593204775  7.71500278862242 30.2847796143251  C 6.27012455846812 29.8079660238751  4.97350808700502 29.1461202938476  3.82515337423313 28.2992424242424  C 2.67679866146124 27.4523645546373  1.75218442089608 26.3777548209366  1.05131065253765 25.0754132231405  C 0.350436884179215 23.7730716253444  0 22.353305785124  0 20.8161157024793  C 0 19.1792929292929  0.374697899237777 17.4357208448118  1.12409369771333 15.5853994490358  C 1.87348949618888 13.7350780532599  2.93827849042573 11.8989898989899  4.31846068042387 10.0771349862259  C 6.14073247815579 7.67171717171717  7.98187395426659 5.99219467401285  9.84188510875627 5.03856749311295  C 11.701896263246 4.08494031221304  13.0308607547871 4.13475665748393  13.8287785833798 5.18801652892562  C 14.5296523517382 6.09894398530762  14.6374790853318 7.58631772268136  14.1522587841606 9.65013774104683  C 14.1091280907232 9.84940312213039  14.1037367540435 9.99173553719008  14.1360847741216 10.0771349862259  C 14.1684327941997 10.1625344352617  14.2223461609965 10.2123507805326  14.297824874512 10.2265840220386  C 14.3733035880275 10.2408172635445  14.4514779698829 10.237258953168  14.5323480200781 10.2159090909091  C 14.6132180702733 10.1945592286501  14.686001115449 10.1696510560147  14.7506971556051 10.1411845730028  L 14.8477412158394 10.0984848484848  C 16.3465328127905 9.25872359963269  17.6728016359918 8.83884297520661  18.8265476854434 8.83884297520661  C 19.980293734895 8.83884297520661  20.805168246886 9.27295684113866  21.3011712214166 10.1411845730028  C 21.7863915225878 11.0378787878788  21.7863915225878 12.30463728191  21.3011712214166 13.9414600550964  C 21.2796058746979 14.126492194674  21.2553448596393 14.2688246097337  21.2283881762409 14.3684573002755  C 21.2014314928425 14.4680899908173  21.2256925079011 14.5570477502296  21.3011712214166 14.6353305785124  C 21.3766499349321 14.7136134067952  21.4413459750883 14.7669880624426  21.4952593418851 14.7954545454545  C 21.5491727086819 14.8239210284665  21.6408254322365 14.8666207529844  21.7702175125488 14.9235537190083  C 22.3848298940323 15.1797520661157  22.9401375720394 15.514233241506  23.43614054657 15.9269972451791  C 23.9321435211006 16.3397612488522  24.363450455475 16.9197658402204  24.7300613496933 17.6670110192837  Z M 22.4495259341885 5.43353994490358  C 23.0857036623908 5.696854912764  23.6302286670385 6.16299357208448  24.0831009481316 6.83195592286501  C 24.5359732292248 7.50091827364555  24.8298010782673 8.27307162534435  24.9645844952593 9.14841597796143  C 25.0993679122513 10.0237603305785  25.0643242238334 10.8599632690542  24.8594534300056 11.6570247933884  C 24.7731920431307 11.9843893480257  24.6141476110801 12.2263544536272  24.3823201338539 12.3829201101928  C 24.1504926566276 12.5394857667585  23.9105781743819 12.5679522497704  23.6625766871166 12.4683195592286  C 23.4145751998513 12.3544536271809  23.2312697527421 12.1445133149679  23.1126603457892 11.8384986225895  C 22.9940509388362 11.5324839302112  22.9724855921175 11.2157943067034  23.047964305633 10.8884297520661  C 23.2636177728202 9.99173553719008  23.1342256925079 9.20179063360882  22.659788064696 8.51859504132232  C 22.1853504368842 7.83539944903581  21.6084774121584 7.58631772268136  20.9291689905187 7.77134986225895  C 20.670384829894 7.8425160697888  20.4277746793084 7.78558310376492  20.2013385387619 7.60055096418733  C 19.9749023982153 7.41551882460973  19.8401189812233 7.15220385674931  19.7969882877858 6.81060606060606  C 19.743074920989 6.46900826446281  19.7862056144265 6.152318640955  19.9263803680982 5.86053719008264  C 20.0665551217698 5.56875573921028  20.266034578918 5.38728191000918  20.5248187395427 5.31611570247934  C 21.1717791411043 5.13108356290174  21.8133482059862 5.17022497704316  22.4495259341885 5.43353994490358  Z M 23.6464026770775 0.480371900826446  C 24.9511061535601 1.01411845730028  26.0725041829336 1.97130394857667  27.010596765198 3.35192837465565  C 27.9486893474624 4.71831955922865  28.5552147239264 6.30176767676767  28.8301728945901 8.10227272727273  C 29.1051310652538 9.90277777777778  29.0323480200781 11.6214416896235  28.611823759063 13.2582644628099  C 28.5147796988288 13.6425619834711  28.3314742517197 13.9272268135904  28.0619074177356 14.112258953168  C 27.7923405837516 14.2972910927456  27.5119910764083 14.3257575757576  27.2208588957055 14.1976584022039  C 26.9297267150028 14.0695592286501  26.7140732478156 13.8275941230487  26.5738984941439 13.4717630853994  C 26.4337237404722 13.1159320477502  26.4067670570738 12.745867768595  26.4930284439487 12.3615702479339  C 26.7949432980108 11.1944444444444  26.8488566648076 9.97038567493113  26.6547685443391 8.68939393939394  C 26.4606804238706 7.40840220385675  26.0293734894962 6.28397612488521  25.3608477412158 5.31611570247934  C 24.6923219929355 4.33402203856749  23.8944041643428 3.65438475665748  22.9670942554378 3.27720385674931  C 22.0397843465328 2.90002295684114  21.1070831009481 2.83953168044077  20.1689905186838 3.09573002754821  C 19.8670756646217 3.18112947658402  19.5867261572783 3.11352157943067  19.3279419966537 2.89290633608815  C 19.069157836029 2.67229109274563  18.9074177356386 2.36271808999081  18.8427216954824 1.96418732782369  C 18.7780256553263 1.56565656565657  18.8292433537832 1.19915059687787  18.9963747908533 0.864669421487605  C 19.1635062279234 0.530188246097337  19.3980293734895 0.320247933884298  19.6999442275516 0.234848484848485  C 21.0262130507529 -0.135215794306708  22.3416992005949 -0.0533746556473813  23.6464026770775 0.480371900826446  Z " fill-rule="nonzero" fill="#fff7f7" stroke="none" transform="matrix(1 0 0 1 214 302 )" />
  </g>
</svg>