<?xml version="1.0" encoding="utf-8"?>
<svg version="1.1" xmlns:xlink="http://www.w3.org/1999/xlink" width="28px" height="30px" xmlns="http://www.w3.org/2000/svg">
  <g transform="matrix(1 0 0 1 -165 -303 )">
    <path d="M 7.587890625 8.35431654676259  C 7.81575520833333 8.06055155875299  7.9296875 7.66786570743405  7.9296875 7.17625899280575  C 7.9296875 6.68465227817745  7.81575520833333 6.28896882494005  7.587890625 5.98920863309352  C 7.36002604166667 5.689448441247  7.05924479166667 5.53956834532374  6.685546875 5.53956834532374  C 6.29361979166667 5.53956834532374  5.947265625 5.69244604316547  5.646484375 5.99820143884892  C 5.345703125 6.30395683453238  5.1953125 6.69664268585132  5.1953125 7.17625899280575  C 5.1953125 7.64388489208633  5.345703125 8.03057553956835  5.646484375 8.3363309352518  C 5.947265625 8.64208633093525  6.29361979166667 8.79496402877698  6.685546875 8.79496402877698  C 7.05924479166667 8.79496402877698  7.36002604166667 8.64808153477218  7.587890625 8.35431654676259  Z M 17.7392578125 17.2122302158273  C 17.9716796875 16.9484412470024  18.087890625 16.6426858513189  18.087890625 16.294964028777  C 18.087890625 15.9592326139089  17.9716796875 15.6594724220624  17.7392578125 15.3956834532374  C 17.5068359375 15.1318944844125  17.2083333333333 15  16.84375 15  C 16.59765625 15  16.3720703125 15.1348920863309  16.1669921875 15.4046762589928  C 15.9619140625 15.6744604316547  15.859375 15.9712230215827  15.859375 16.294964028777  C 15.859375 16.6306954436451  15.9619140625 16.9334532374101  16.1669921875 17.2032374100719  C 16.3720703125 17.4730215827338  16.59765625 17.6079136690648  16.84375 17.6079136690648  C 17.2083333333333 17.6079136690648  17.5068359375 17.4760191846523  17.7392578125 17.2122302158273  Z M 14.5263671875 8.35431654676259  C 14.7496744791667 8.06055155875299  14.861328125 7.66786570743405  14.861328125 7.17625899280575  C 14.861328125 6.68465227817745  14.7496744791667 6.28896882494005  14.5263671875 5.98920863309352  C 14.3030598958333 5.689448441247  14.0045572916667 5.53956834532374  13.630859375 5.53956834532374  C 13.2389322916667 5.53956834532374  12.892578125 5.69244604316547  12.591796875 5.99820143884892  C 12.291015625 6.30395683453238  12.140625 6.69664268585132  12.140625 7.17625899280575  C 12.140625 7.64388489208633  12.291015625 8.03057553956835  12.591796875 8.3363309352518  C 12.892578125 8.64208633093525  13.2389322916667 8.79496402877698  13.630859375 8.79496402877698  C 14.0045572916667 8.79496402877698  14.3030598958333 8.64808153477218  14.5263671875 8.35431654676259  Z M 23.1875 17.2122302158273  C 23.4244791666667 16.9484412470024  23.54296875 16.6426858513189  23.54296875 16.294964028777  C 23.54296875 15.9592326139089  23.4244791666667 15.6594724220624  23.1875 15.3956834532374  C 22.9505208333333 15.1318944844125  22.654296875 15  22.298828125 15  C 22.052734375 15  21.8271484375 15.1348920863309  21.6220703125 15.4046762589928  C 21.4169921875 15.6744604316547  21.314453125 15.9712230215827  21.314453125 16.294964028777  C 21.314453125 16.6306954436451  21.4169921875 16.9334532374101  21.6220703125 17.2032374100719  C 21.8271484375 17.4730215827338  22.052734375 17.6079136690648  22.298828125 17.6079136690648  C 22.654296875 17.6079136690648  22.9505208333333 17.4760191846523  23.1875 17.2122302158273  Z M 18.0400390625 4.46942446043165  C 19.0016276041667 5.86630695443645  19.6236979166667 7.42805755395684  19.90625 9.15467625899281  C 19.6236979166667 9.10671462829736  19.3046875 9.08273381294964  18.94921875 9.08273381294964  C 17.4088541666667 9.08273381294964  15.9915364583333 9.54436450839328  14.697265625 10.4676258992806  C 13.4029947916667 11.3908872901679  12.3844401041667 12.6408872901679  11.6416015625 14.2176258992806  C 10.8987630208333 15.7943645083933  10.52734375 17.5179856115108  10.52734375 19.3884892086331  C 10.52734375 20.3237410071942  10.6321614583333 21.2350119904077  10.841796875 22.1223021582734  C 10.5227864583333 22.158273381295  10.212890625 22.1762589928058  9.912109375 22.1762589928058  C 9.67513020833333 22.1762589928058  9.447265625 22.1672661870504  9.228515625 22.1492805755396  C 9.009765625 22.1312949640288  8.75911458333333 22.0923261390887  8.4765625 22.0323741007194  C 8.19401041666667 21.9724220623501  7.9912109375 21.9304556354916  7.8681640625 21.9064748201439  C 7.7451171875 21.8824940047962  7.49674479166667 21.8195443645084  7.123046875 21.7176258992806  C 6.74934895833333 21.6157074340528  6.521484375 21.552757793765  6.439453125 21.5287769784173  L 2.98046875 23.8129496402878  L 3.96484375 19.8920863309353  C 1.32161458333333 17.4580335731415  0 14.5203836930456  0 11.0791366906475  C 0 9.05275779376499  0.4443359375 7.18824940047961  1.3330078125 5.48561151079137  C 2.2216796875 3.78297362110312  3.4248046875 2.44304556354916  4.9423828125 1.4658273381295  C 6.4599609375 0.48860911270983  8.11653645833333 0  9.912109375 0  C 11.5162760416667 0  13.0315755208333 0.395683453237411  14.4580078125 1.18705035971223  C 15.8844401041667 1.97841726618705  17.0784505208333 3.07254196642686  18.0400390625 4.46942446043165  Z M 26.8310546875 14.5053956834532  C 27.6103515625 15.9622302158273  28 17.5419664268585  28 19.2446043165468  C 28 20.6474820143885  27.6878255208333 21.9874100719424  27.0634765625 23.2643884892086  C 26.4391276041667 24.5413669064748  25.59375 25.7014388489209  24.52734375 26.7446043165468  L 25.279296875 30  L 22.55859375 28.0395683453237  C 21.19140625 28.4832134292566  20.1979166666667 28.705035971223  19.578125 28.705035971223  C 18.0377604166667 28.705035971223  16.6204427083333 28.2823741007194  15.326171875 27.4370503597122  C 14.0319010416667 26.591726618705  13.0133463541667 25.4436450839329  12.2705078125 23.9928057553957  C 11.5276692708333 22.5419664268585  11.15625 20.9592326139089  11.15625 19.2446043165468  C 11.15625 17.5299760191847  11.5276692708333 15.947242206235  12.2705078125 14.4964028776978  C 13.0133463541667 13.0455635491607  14.0319010416667 11.8974820143885  15.326171875 11.0521582733813  C 16.6204427083333 10.2068345323741  18.0377604166667 9.7841726618705  19.578125 9.7841726618705  C 21.0455729166667 9.7841726618705  22.4264322916667 10.2068345323741  23.720703125 11.0521582733813  C 25.0149739583333 11.8974820143885  26.0517578125 13.0485611510791  26.8310546875 14.5053956834532  Z " fill-rule="nonzero" fill="#f9f2f2" stroke="none" transform="matrix(1 0 0 1 165 303 )" />
  </g>
</svg>