<?xml version="1.0" encoding="utf-8"?>
<svg version="1.1" xmlns:xlink="http://www.w3.org/1999/xlink" width="22px" height="19px" xmlns="http://www.w3.org/2000/svg">
  <g transform="matrix(1 0 0 1 -388 -264 )">
    <path d="M 10.5252574791564 8.1083984375  C 9.71603727317312 9.0361328125  8.73957822461991 9.5  7.59588033349681 9.5  C 6.45218244237371 9.5  5.4757233938205 9.0361328125  4.66650318783718 8.1083984375  C 3.85728298185385 7.1806640625  3.45267287886219 6.06119791666667  3.45267287886219 4.75  C 3.45267287886219 3.43880208333333  3.85728298185385 2.3193359375  4.66650318783718 1.3916015625  C 5.4757233938205 0.4638671875  6.45218244237371 0  7.59588033349681 0  C 8.73957822461991 0  9.71603727317312 0.4638671875  10.5252574791564 1.3916015625  C 11.3344776851398 2.3193359375  11.7390877881314 3.43880208333333  11.7390877881314 4.75  C 11.7390877881314 6.06119791666667  11.3344776851398 7.1806640625  10.5252574791564 8.1083984375  Z M 21.902893575282 10.3782552083333  L 19.2162824914174 13.4583333333333  L 21.902893575282 16.5384114583333  C 21.9676311917607 16.6126302083333  22 16.7074652777778  22 16.8229166666667  C 22 16.9301215277778  21.9676311917607 17.0208333333333  21.902893575282 17.0950520833333  L 20.4355076017656 18.77734375  C 20.3707699852869 18.8515625  20.291646231813 18.888671875  20.1981363413438 18.888671875  C 20.097433382377 18.888671875  20.0147130946542 18.8515625  19.9499754781756 18.77734375  L 17.2633643943109 15.697265625  L 14.5767533104463 18.77734375  C 14.5120156939676 18.8515625  14.4292954062449 18.888671875  14.3285924472781 18.888671875  C 14.2350825568089 18.888671875  14.155958803335 18.8515625  14.0912211868563 18.77734375  L 12.6238352133399 17.0950520833333  C 12.5590975968612 17.0208333333333  12.5267287886219 16.9301215277778  12.5267287886219 16.8229166666667  C 12.5267287886219 16.7074652777778  12.5590975968612 16.6126302083333  12.6238352133399 16.5384114583333  L 15.3104462972045 13.4583333333333  L 12.6238352133399 10.3782552083333  C 12.5590975968612 10.3040364583333  12.5267287886219 10.2092013888889  12.5267287886219 10.09375  C 12.5267287886219 9.98654513888889  12.5590975968612 9.89583333333333  12.6238352133399 9.82161458333333  L 14.0912211868563 8.13932291666667  C 14.155958803335 8.06510416666667  14.2350825568089 8.02799479166667  14.3285924472781 8.02799479166667  C 14.4292954062449 8.02799479166667  14.5120156939676 8.06510416666667  14.5767533104463 8.13932291666667  L 17.2633643943109 11.2194010416667  L 19.9499754781756 8.13932291666667  C 20.0147130946542 8.06510416666667  20.097433382377 8.02799479166667  20.1981363413438 8.02799479166667  C 20.291646231813 8.02799479166667  20.3707699852869 8.06510416666667  20.4355076017656 8.13932291666667  L 21.902893575282 9.82161458333333  C 21.9676311917607 9.89583333333333  22 9.98654513888889  22 10.09375  C 22 10.2092013888889  21.9676311917607 10.3040364583333  21.902893575282 10.3782552083333  Z M 11.8901422265817 11.2194010416667  L 13.8430603236881 13.4583333333333  L 11.8901422265817 15.697265625  C 11.6239986921694 16.0023871527778  11.4909269249632 16.3776041666667  11.4909269249632 16.8229166666667  C 11.4909269249632 17.2599826388889  11.6239986921694 17.6310763888889  11.8901422265817 17.9361979166667  L 12.7856792545365 18.962890625  C 12.6346248160863 18.9876302083333  12.4763773091385 19  12.310936733693 19  L 2.88082393330064 19  C 2.01046264508746 19  1.31273500081739 18.7154947916667  0.787641000490436 18.146484375  C 0.262547000163479 17.5774739583333  0 16.7940538194444  0 15.7962239583333  C 0 15.3591579861111  0.0125878698708517 14.9324001736111  0.0377636096125552 14.5159505208333  C 0.0629393493542586 14.0995008680556  0.113290828837666 13.6500651041667  0.188818048062776 13.1676432291667  C 0.264345267287886 12.6852213541667  0.359653424881478 12.2378472222222  0.474742520843551 11.8255208333333  C 0.589831616805624 11.4131944444444  0.744482589504659 11.0111762152778  0.938695438940657 10.6194661458333  C 1.13290828837666 10.2277560763889  1.35589341180317 9.89377170138889  1.60765080922021 9.61751302083333  C 1.85940820663724 9.34125434027778  2.1669118849109 9.12065972222222  2.5301618440412 8.95572916666667  C 2.89341180317149 8.79079861111111  3.29442537191434 8.70833333333333  3.73320255026974 8.70833333333333  C 3.8698708517247 8.70833333333333  4.01013568742848 8.77842881944444  4.15399705738107 8.91861979166667  C 5.26172960601602 9.92469618055556  6.40902403138794 10.427734375  7.59588033349681 10.427734375  C 8.78273663560569 10.427734375  9.9300310609776 9.92469618055556  11.0377636096126 8.91861979166667  C 11.1816249795651 8.77842881944444  11.3218898152689 8.70833333333333  11.4585581167239 8.70833333333333  C 11.6599640346575 8.70833333333333  11.86496648684 8.73307291666667  12.0735654732712 8.78255208333333  C 11.8721595553376 9.00520833333333  11.7247016511362 9.21137152777778  11.631191760667 9.40104166666667  C 11.5376818701978 9.59071180555556  11.4909269249632 9.82161458333333  11.4909269249632 10.09375  C 11.4909269249632 10.5390625  11.6239986921694 10.9142795138889  11.8901422265817 11.2194010416667  Z " fill-rule="nonzero" fill="#7f7f7f" stroke="none" transform="matrix(1 0 0 1 388 264 )" />
  </g>
</svg>