<?xml version="1.0" encoding="utf-8"?>
<svg version="1.1" xmlns:xlink="http://www.w3.org/1999/xlink" width="29px" height="26px" xmlns="http://www.w3.org/2000/svg">
  <g transform="matrix(1 0 0 1 -100 -527 )">
    <path d="M 9.75027901785714 9.30143229166667  C 10.1548549107143 9.724609375  10.3571428571429 10.2352430555556  10.3571428571429 10.8333333333333  C 10.3571428571429 11.4314236111111  10.1548549107143 11.9420572916667  9.75027901785714 12.365234375  C 9.345703125 12.7884114583333  8.85751488095238 13  8.28571428571428 13  C 7.71391369047619 13  7.22572544642857 12.7884114583333  6.82114955357143 12.365234375  C 6.41657366071429 11.9420572916667  6.21428571428571 11.4314236111111  6.21428571428571 10.8333333333333  C 6.21428571428571 10.2352430555556  6.41657366071429 9.724609375  6.82114955357143 9.30143229166667  C 7.22572544642857 8.87825520833333  7.71391369047619 8.66666666666667  8.28571428571428 8.66666666666667  C 8.85751488095238 8.66666666666667  9.345703125 8.87825520833333  9.75027901785714 9.30143229166667  Z M 15.9645647321429 9.30143229166667  C 16.369140625 9.724609375  16.5714285714286 10.2352430555556  16.5714285714286 10.8333333333333  C 16.5714285714286 11.4314236111111  16.369140625 11.9420572916667  15.9645647321429 12.365234375  C 15.5599888392857 12.7884114583333  15.0718005952381 13  14.5 13  C 13.9281994047619 13  13.4400111607143 12.7884114583333  13.0354352678571 12.365234375  C 12.630859375 11.9420572916667  12.4285714285714 11.4314236111111  12.4285714285714 10.8333333333333  C 12.4285714285714 10.2352430555556  12.630859375 9.724609375  13.0354352678571 9.30143229166667  C 13.4400111607143 8.87825520833333  13.9281994047619 8.66666666666667  14.5 8.66666666666667  C 15.0718005952381 8.66666666666667  15.5599888392857 8.87825520833333  15.9645647321429 9.30143229166667  Z M 22.1788504464286 9.30143229166667  C 22.5834263392857 9.724609375  22.7857142857143 10.2352430555556  22.7857142857143 10.8333333333333  C 22.7857142857143 11.4314236111111  22.5834263392857 11.9420572916667  22.1788504464286 12.365234375  C 21.7742745535714 12.7884114583333  21.2860863095238 13  20.7142857142857 13  C 20.1424851190476 13  19.654296875 12.7884114583333  19.2497209821429 12.365234375  C 18.8451450892857 11.9420572916667  18.6428571428571 11.4314236111111  18.6428571428571 10.8333333333333  C 18.6428571428571 10.2352430555556  18.8451450892857 9.724609375  19.2497209821429 9.30143229166667  C 19.654296875 8.87825520833333  20.1424851190476 8.66666666666667  20.7142857142857 8.66666666666667  C 21.2860863095238 8.66666666666667  21.7742745535714 8.87825520833333  22.1788504464286 9.30143229166667  Z M 20.673828125 3.34309895833333  C 18.7588355654762 2.55881076388889  16.7008928571429 2.16666666666667  14.5 2.16666666666667  C 12.2991071428571 2.16666666666667  10.2411644345238 2.55881076388889  8.326171875 3.34309895833333  C 6.41117931547619 4.12738715277778  4.88997395833333 5.18532986111111  3.76255580357143 6.51692708333333  C 2.63513764880952 7.84852430555555  2.07142857142857 9.28732638888889  2.07142857142857 10.8333333333333  C 2.07142857142857 12.0972222222222  2.45712425595238 13.3018663194444  3.228515625 14.447265625  C 3.99990699404762 15.5926649305556  5.08686755952381 16.5828993055556  6.48939732142857 17.41796875  L 7.89732142857143 18.2643229166667  L 7.46037946428571 19.8893229166667  C 7.20145089285714 20.9162326388889  6.82384672619048 21.88671875  6.32756696428571 22.80078125  C 7.96744791666667 22.08984375  9.45089285714286 21.125  10.7779017857143 19.90625  L 11.4737723214286 19.2630208333333  L 12.3962053571429 19.3645833333333  C 13.140625 19.4548611111111  13.8418898809524 19.5  14.5 19.5  C 16.7008928571429 19.5  18.7588355654762 19.1078559027778  20.673828125 18.3235677083333  C 22.5888206845238 17.5392795138889  24.1100260416667 16.4813368055556  25.2374441964286 15.1497395833333  C 26.3648623511905 13.8181423611111  26.9285714285714 12.3793402777778  26.9285714285714 10.8333333333333  C 26.9285714285714 9.28732638888889  26.3648623511905 7.84852430555555  25.2374441964286 6.51692708333333  C 24.1100260416667 5.18532986111111  22.5888206845238 4.12738715277778  20.673828125 3.34309895833333  Z M 27.8510044642857 6.626953125  C 28.6170014880952 7.96419270833333  29 9.36631944444444  29 10.8333333333333  C 29 12.796875  28.3526785714286 14.6108940972222  27.0580357142857 16.275390625  C 25.7633928571429 17.9398871527778  24.0048363095238 19.2545572916667  21.7823660714286 20.2194010416667  C 19.5598958333333 21.1842447916667  17.1324404761905 21.6666666666667  14.5 21.6666666666667  C 13.7447916666667 21.6666666666667  12.9626116071429 21.6215277777778  12.1534598214286 21.53125  C 10.0172991071429 23.5060763888889  7.53590029761905 24.8715277777778  4.70926339285714 25.6276041666667  C 4.18061755952381 25.7855902777778  3.56566220238095 25.9097222222222  2.86439732142857 26  L 2.78348214285714 26  C 2.62165178571429 26  2.47600446428571 25.9407552083333  2.34654017857143 25.822265625  C 2.21707589285714 25.7037760416667  2.13076636904762 25.5486111111111  2.08761160714286 25.3567708333333  L 2.08761160714286 25.33984375  C 2.05524553571429 25.2947048611111  2.05254836309524 25.2269965277778  2.07952008928571 25.13671875  C 2.10649181547619 25.0464409722222  2.11728050595238 24.9900173611111  2.11188616071429 24.9674479166667  C 2.10649181547619 24.9448784722222  2.13076636904762 24.8912760416667  2.18470982142857 24.806640625  L 2.28180803571429 24.654296875  C 2.28180803571429 24.654296875  2.31956845238095 24.6063368055556  2.39508928571429 24.5104166666667  C 2.47061011904762 24.4144965277778  2.51376488095238 24.3637152777778  2.52455357142857 24.3580729166667  C 2.60007440476191 24.2677951388889  2.76729910714286 24.0731336805556  3.02622767857143 23.7740885416667  C 3.28515625 23.4750434027778  3.47126116071429 23.2606336805556  3.58454241071429 23.130859375  C 3.69782366071429 23.0010850694444  3.86504836309524 22.7782118055556  4.08621651785714 22.4622395833333  C 4.30738467261905 22.1462673611111  4.48270089285714 21.8585069444444  4.61216517857143 21.5989583333333  C 4.74162946428571 21.3394097222222  4.88727678571429 21.0065104166667  5.04910714285714 20.6002604166667  C 5.2109375 20.1940104166667  5.35119047619048 19.7651909722222  5.46986607142857 19.3138020833333  C 3.77604166666667 18.3094618055556  2.4409412202381 17.0681423611111  1.46456473214286 15.58984375  C 0.488188244047619 14.1115451388889  0 12.5260416666667  0 10.8333333333333  C 0 9.36631944444444  0.382998511904762 7.96419270833333  1.14899553571429 6.626953125  C 1.91499255952381 5.28971354166667  2.9453125 4.13585069444444  4.23995535714286 3.16536458333333  C 5.53459821428571 2.19487847222222  7.07738095238095 1.42469618055555  8.86830357142857 0.854817708333332  C 10.6592261904762 0.28493923611111  12.5364583333333 0  14.5 0  C 16.4635416666667 0  18.3407738095238 0.28493923611111  20.1316964285714 0.854817708333332  C 21.9226190476191 1.42469618055555  23.4654017857143 2.19487847222222  24.7600446428571 3.16536458333333  C 26.0546875 4.13585069444444  27.0850074404762 5.28971354166667  27.8510044642857 6.626953125  Z " fill-rule="nonzero" fill="#000000" stroke="none" transform="matrix(1 0 0 1 100 527 )" />
  </g>
</svg>