<?xml version="1.0" encoding="utf-8"?>
<svg version="1.1" xmlns:xlink="http://www.w3.org/1999/xlink" width="29px" height="29px" xmlns="http://www.w3.org/2000/svg">
  <g transform="matrix(1 0 0 1 -100 -477 )">
    <path d="M 17.9173177083333 17.9173177083333  C 18.861328125 16.9733072916667  19.3333333333333 15.8342013888889  19.3333333333333 14.5  C 19.3333333333333 13.1657986111111  18.861328125 12.0266927083333  17.9173177083333 11.0826822916667  C 16.9733072916667 10.138671875  15.8342013888889 9.66666666666667  14.5 9.66666666666667  C 13.1657986111111 9.66666666666667  12.0266927083333 10.138671875  11.0826822916667 11.0826822916667  C 10.138671875 12.0266927083333  9.66666666666667 13.1657986111111  9.66666666666667 14.5  C 9.66666666666667 15.8342013888889  10.138671875 16.9733072916667  11.0826822916667 17.9173177083333  C 12.0266927083333 18.861328125  13.1657986111111 19.3333333333333  14.5 19.3333333333333  C 15.8342013888889 19.3333333333333  16.9733072916667 18.861328125  17.9173177083333 17.9173177083333  Z M 28.8489583333333 11.9983723958333  C 28.9496527777778 12.1305338541667  29 12.2784288194444  29 12.4420572916667  L 29 16.6334635416667  C 29 16.7845052083333  28.9496527777778 16.9292534722222  28.8489583333333 17.0677083333333  C 28.7482638888889 17.2061631944444  28.6223958333333 17.2879774305556  28.4713541666667 17.3131510416667  L 24.978515625 17.841796875  C 24.7393663194444 18.521484375  24.4939236111111 19.0941840277778  24.2421875 19.5598958333333  C 24.6827256944444 20.1892361111111  25.3561197916667 21.0577256944444  26.2623697916667 22.1653645833333  C 26.3882378472222 22.31640625  26.451171875 22.4737413194444  26.451171875 22.6373697916667  C 26.451171875 22.8009982638889  26.39453125 22.9457465277778  26.28125 23.0716145833333  C 25.94140625 23.5373263888889  25.318359375 24.2170138888889  24.412109375 25.1106770833333  C 23.505859375 26.0043402777778  22.9142795138889 26.451171875  22.6373697916667 26.451171875  C 22.486328125 26.451171875  22.3226996527778 26.39453125  22.146484375 26.28125  L 19.541015625 24.2421875  C 18.9871961805556 24.5316840277778  18.4144965277778 24.7708333333333  17.8229166666667 24.9596354166667  C 17.6215277777778 26.6714409722222  17.4390190972222 27.8420138888889  17.275390625 28.4713541666667  C 17.1872829861111 28.8237847222222  16.9607204861111 29  16.595703125 29  L 12.404296875 29  C 12.2280815972222 29  12.0738932291667 28.9465060763889  11.9417317708333 28.8395182291667  C 11.8095703125 28.7325303819444  11.7371961805556 28.5972222222222  11.724609375 28.43359375  L 11.1959635416667 24.9596354166667  C 10.5792100694444 24.7582465277778  10.0128038194444 24.525390625  9.49674479166667 24.2610677083333  L 6.83463541666667 26.28125  C 6.70876736111111 26.39453125  6.55143229166667 26.451171875  6.36263020833333 26.451171875  C 6.18641493055556 26.451171875  6.02907986111111 26.3819444444444  5.890625 26.2434895833333  C 4.3046875 24.80859375  3.26627604166667 23.7513020833333  2.775390625 23.0716145833333  C 2.68728298611111 22.9457465277778  2.64322916666667 22.8009982638889  2.64322916666667 22.6373697916667  C 2.64322916666667 22.486328125  2.69357638888889 22.3415798611111  2.79427083333333 22.203125  C 2.98307291666667 21.9388020833333  3.30403645833333 21.5202907986111  3.75716145833333 20.9475911458333  C 4.21028645833333 20.3748914930556  4.55013020833333 19.9312065972222  4.77669270833333 19.6165364583333  C 4.43684895833333 18.9871961805556  4.17881944444444 18.3641493055556  4.00260416666667 17.7473958333333  L 0.547526041666667 17.2376302083333  C 0.383897569444444 17.2124565972222  0.251736111111111 17.1337890625  0.151041666666667 17.0016276041667  C 0.0503472222222222 16.8694661458333  0 16.7215711805556  0 16.5579427083333  L 0 12.3665364583333  C 0 12.2154947916667  0.0503472222222222 12.0707465277778  0.151041666666667 11.9322916666667  C 0.251736111111111 11.7938368055556  0.371310763888889 11.7120225694444  0.509765625 11.6868489583333  L 4.021484375 11.158203125  C 4.19769965277778 10.5792100694444  4.44314236111111 10.0002170138889  4.7578125 9.42122395833333  C 4.25434027777778 8.70377604166667  3.58094618055556 7.83528645833333  2.73763020833333 6.81575520833333  C 2.61176215277778 6.66471354166667  2.548828125 6.513671875  2.548828125 6.36263020833333  C 2.548828125 6.23676215277778  2.60546875 6.09201388888888  2.71875 5.92838541666667  C 3.04600694444444 5.47526041666667  3.66590711805556 4.79871961805555  4.57845052083333 3.89876302083333  C 5.49099392361111 2.99880642361111  6.08572048611111 2.548828125  6.36263020833333 2.548828125  C 6.52625868055556 2.548828125  6.68988715277778 2.61176215277778  6.853515625 2.73763020833333  L 9.458984375 4.7578125  C 10.0128038194444 4.46831597222222  10.5855034722222 4.22916666666667  11.1770833333333 4.04036458333333  C 11.3784722222222 2.32855902777778  11.5609809027778 1.15798611111111  11.724609375 0.528645833333332  C 11.8127170138889 0.176215277777776  12.0392795138889 0  12.404296875 0  L 16.595703125 0  C 16.7719184027778 0  16.9261067708333 0.0534939236111086  17.0582682291667 0.160481770833332  C 17.1904296875 0.267469618055553  17.2628038194444 0.402777777777776  17.275390625 0.56640625  L 17.8040364583333 4.04036458333333  C 18.4207899305556 4.24175347222222  18.9871961805556 4.474609375  19.5032552083333 4.73893229166667  L 22.1842447916667 2.71875  C 22.2975260416667 2.60546875  22.4485677083333 2.548828125  22.6373697916667 2.548828125  C 22.8009982638889 2.548828125  22.9583333333333 2.61176215277778  23.109375 2.73763020833333  C 24.7330729166667 4.23546006944444  25.771484375 5.30533854166667  26.224609375 5.947265625  C 26.3127170138889 6.04796006944444  26.3567708333333 6.18641493055555  26.3567708333333 6.36263020833333  C 26.3567708333333 6.513671875  26.3064236111111 6.65842013888888  26.2057291666667 6.796875  C 26.0169270833333 7.06119791666667  25.6959635416667 7.47970920138888  25.2428385416667 8.05240885416667  C 24.7897135416667 8.62510850694444  24.4498697916667 9.06879340277778  24.2233072916667 9.38346354166667  C 24.5505642361111 10.0128038194444  24.80859375 10.6295572916667  24.9973958333333 11.2337239583333  L 28.4524739583333 11.7623697916667  C 28.6161024305556 11.7875434027778  28.7482638888889 11.8662109375  28.8489583333333 11.9983723958333  Z " fill-rule="nonzero" fill="#000000" stroke="none" transform="matrix(1 0 0 1 100 477 )" />
  </g>
</svg>