<?xml version="1.0" encoding="utf-8"?>
<svg version="1.1" xmlns:xlink="http://www.w3.org/1999/xlink" width="25px" height="25px" xmlns="http://www.w3.org/2000/svg">
  <g transform="matrix(1 0 0 1 -104 -429 )">
    <path d="M 4.6875 12.5  L 7.8125 12.5  L 7.8125 20.8333333333333  L 4.6875 20.8333333333333  L 4.6875 12.5  Z M 9.375 4.16666666666667  L 12.5 4.16666666666667  L 12.5 20.8333333333333  L 9.375 20.8333333333333  L 9.375 4.16666666666667  Z M 2 23  L 25 23  L 25 25  L 0 25  L 0 0  L 2 0  L 2 23  Z M 14 8.33333333333333  L 17 8.33333333333333  L 17 20.8333333333333  L 14 20.8333333333333  L 14 8.33333333333333  Z M 18.75 2.08333333333333  L 21.875 2.08333333333333  L 21.875 20.8333333333333  L 18.75 20.8333333333333  L 18.75 2.08333333333333  Z " fill-rule="nonzero" fill="#000000" stroke="none" transform="matrix(1 0 0 1 104 429 )" />
  </g>
</svg>