<?xml version="1.0" encoding="utf-8"?>
<svg version="1.1" xmlns:xlink="http://www.w3.org/1999/xlink" width="25px" height="24px" xmlns="http://www.w3.org/2000/svg">
  <g transform="matrix(1 0 0 1 -104 -377 )">
    <path d="M 18.8151041666667 0.910714285714286  L 23.8932291666667 5.08928571428571  C 24.1970486111111 5.33928571428571  24.4574652777778 5.67857142857143  24.6744791666667 6.10714285714286  C 24.8914930555556 6.53571428571429  25 6.92857142857143  25 7.28571428571429  L 25 22.7142857142857  C 25 23.0714285714286  24.8480902777778 23.375  24.5442708333333 23.625  C 24.2404513888889 23.875  23.8715277777778 24  23.4375 24  L 1.5625 24  C 1.12847222222222 24  0.759548611111111 23.875  0.455729166666667 23.625  C 0.151909722222222 23.375  0 23.0714285714286  0 22.7142857142857  L 0 1.28571428571429  C 0 0.928571428571428  0.151909722222222 0.624999999999999  0.455729166666667 0.375  C 0.759548611111111 0.125000000000001  1.12847222222222 0  1.5625 0  L 16.1458333333333 0  C 16.5798611111111 0  17.0572916666667 0.0892857142857153  17.578125 0.267857142857143  C 18.0989583333333 0.446428571428571  18.5112847222222 0.660714285714285  18.8151041666667 0.910714285714286  Z M 17.333984375 2.11607142857143  C 17.2037760416667 2.00892857142857  16.9813368055556 1.91071428571428  16.6666666666667 1.82142857142857  L 16.6666666666667 6.85714285714286  L 22.7864583333333 6.85714285714286  C 22.6779513888889 6.59821428571428  22.55859375 6.41517857142857  22.4283854166667 6.30803571428571  L 17.333984375 2.11607142857143  Z M 2 22  L 23 22  L 23 8.57142857142857  L 16.1458333333333 8.57142857142857  C 15.7118055555556 8.57142857142857  15.3428819444444 8.44642857142857  15.0390625 8.19642857142857  C 14.7352430555556 7.94642857142857  14.5833333333333 7.64285714285714  14.5833333333333 7.28571428571429  L 14.5833333333333 2  L 2 2  L 2 22  Z M 6.25 11.5714285714286  L 6.25 10.7142857142857  C 6.25 10.5892857142857  6.298828125 10.4866071428571  6.396484375 10.40625  C 6.494140625 10.3258928571429  6.61892361111111 10.2857142857143  6.77083333333333 10.2857142857143  L 18.2291666666667 10.2857142857143  C 18.3810763888889 10.2857142857143  18.505859375 10.3258928571429  18.603515625 10.40625  C 18.701171875 10.4866071428571  18.75 10.5892857142857  18.75 10.7142857142857  L 18.75 11.5714285714286  C 18.75 11.6964285714286  18.701171875 11.7991071428571  18.603515625 11.8794642857143  C 18.505859375 11.9598214285714  18.3810763888889 12  18.2291666666667 12  L 6.77083333333333 12  C 6.61892361111111 12  6.494140625 11.9598214285714  6.396484375 11.8794642857143  C 6.298828125 11.7991071428571  6.25 11.6964285714286  6.25 11.5714285714286  Z M 6.77083333333333 13.7142857142857  L 18.2291666666667 13.7142857142857  C 18.3810763888889 13.7142857142857  18.505859375 13.7544642857143  18.603515625 13.8348214285714  C 18.701171875 13.9151785714286  18.75 14.0178571428571  18.75 14.1428571428571  L 18.75 15  C 18.75 15.125  18.701171875 15.2276785714286  18.603515625 15.3080357142857  C 18.505859375 15.3883928571429  18.3810763888889 15.4285714285714  18.2291666666667 15  L 6.77083333333333 15  C 6.61892361111111 15.4285714285714  6.494140625 15.3883928571429  6.396484375 15.3080357142857  C 6.298828125 15.2276785714286  6.25 15.125  6.25 15  L 6.25 14.1428571428571  C 6.25 14.0178571428571  6.298828125 13.9151785714286  6.396484375 13.8348214285714  C 6.494140625 13.7544642857143  6.61892361111111 13.7142857142857  6.77083333333333 13.7142857142857  Z M 6.77083333333333 17  L 18.2291666666667 17  C 18.3810763888889 17.1428571428571  18.505859375 17.1830357142857  18.603515625 17.2633928571429  C 18.701171875 17.34375  18.75 17.4464285714286  18.75 17.5714285714286  L 18.75 18.4285714285714  C 18.75 18.5535714285714  18.701171875 18.65625  18.603515625 18.7366071428571  C 18.505859375 18.8169642857143  18.3810763888889 18.8571428571429  18.2291666666667 18.8571428571429  L 6.77083333333333 18.8571428571429  C 6.61892361111111 18.8571428571429  6.494140625 18.8169642857143  6.396484375 18.7366071428571  C 6.298828125 18.65625  6.25 18.5535714285714  6.25 18.4285714285714  L 6.25 17.5714285714286  C 6.25 17.4464285714286  6.298828125 17.34375  6.396484375 17.2633928571429  C 6.494140625 17.1830357142857  6.61892361111111 17.1428571428571  6.77083333333333 17  Z " fill-rule="nonzero" fill="#000000" stroke="none" transform="matrix(1 0 0 1 104 377 )" />
  </g>
</svg>