<?xml version="1.0" encoding="utf-8"?>
<svg version="1.1" xmlns:xlink="http://www.w3.org/1999/xlink" width="19px" height="23px" xmlns="http://www.w3.org/2000/svg">
  <g transform="matrix(1 0 0 1 -366 -606 )">
    <path d="M 18.873828125 16.6285807291667  C 18.9579427083333 17.3822699652778  19 18.1833767361111  19 19.0319010416667  C 19 20.1200086805556  18.6907552083333 21.0533854166667  18.072265625 21.83203125  C 17.4537760416667 22.6106770833333  16.7091145833333 23  15.83828125 23  L 3.16171875 23  C 2.29088541666667 23  1.54622395833333 22.6106770833333  0.927734375 21.83203125  C 0.309244791666667 21.0533854166667  0 20.1200086805556  0 19.0319010416667  C 0 18.1833767361111  0.0420572916666668 17.3822699652778  0.126171875 16.6285807291667  C 0.210286458333333 15.8748914930556  0.366145833333333 15.1162109375  0.59375 14.3525390625  C 0.821354166666667 13.5888671875  1.11080729166667 12.9350043402778  1.462109375 12.3909505208333  C 1.81341145833333 11.8468967013889  2.278515625 11.4026692708333  2.857421875 11.0582682291667  C 3.436328125 10.7138671875  4.10182291666667 10.5416666666667  4.85390625 10.5416666666667  C 6.15026041666667 11.8194444444444  7.69895833333333 12.4583333333333  9.5 12.4583333333333  C 11.3010416666667 12.4583333333333  12.8497395833333 11.8194444444444  14.14609375 10.5416666666667  C 14.8981770833333 10.5416666666667  15.563671875 10.7138671875  16.142578125 11.0582682291667  C 16.721484375 11.4026692708333  17.1865885416667 11.8468967013889  17.537890625 12.3909505208333  C 17.8891927083333 12.9350043402778  18.1786458333333 13.5888671875  18.40625 14.3525390625  C 18.6338541666667 15.1162109375  18.7897135416667 15.8748914930556  18.873828125 16.6285807291667  Z M 13.530078125 1.6845703125  C 14.643359375 2.8076171875  15.2 4.16276041666667  15.2 5.75  C 15.2 7.33723958333333  14.643359375 8.6923828125  13.530078125 9.8154296875  C 12.416796875 10.9384765625  11.0734375 11.5  9.5 11.5  C 7.9265625 11.5  6.583203125 10.9384765625  5.469921875 9.8154296875  C 4.356640625 8.6923828125  3.8 7.33723958333333  3.8 5.75  C 3.8 4.16276041666667  4.356640625 2.8076171875  5.469921875 1.6845703125  C 6.583203125 0.5615234375  7.9265625 0  9.5 0  C 11.0734375 0  12.416796875 0.5615234375  13.530078125 1.6845703125  Z " fill-rule="nonzero" fill="#ff4500" stroke="none" transform="matrix(1 0 0 1 366 606 )" />
  </g>
</svg>