<?xml version="1.0" encoding="utf-8"?>
<svg version="1.1" xmlns:xlink="http://www.w3.org/1999/xlink" width="26px" height="25px" xmlns="http://www.w3.org/2000/svg">
  <g transform="matrix(1 0 0 1 -136 -365 )">
    <path d="M 6.93333333333333 8.92857142857143  C 6.93333333333333 10.2213541666667  7.29895833333333 11.4118303571429  8.03020833333333 12.5  C 6.56770833333333 12.5465029761905  5.37152777777778 13.1417410714286  4.44166666666667 14.2857142857143  L 2.62708333333333 14.2857142857143  C 1.88680555555556 14.2857142857143  1.26388888888889 14.0973772321429  0.758333333333333 13.720703125  C 0.252777777777778 13.3440290178571  0 12.79296875  0 12.0675223214286  C 0 8.78441220238095  0.559722222222222 7.14285714285714  1.67916666666667 7.14285714285714  C 1.73333333333333 7.14285714285714  1.9296875 7.24051339285714  2.26822916666667 7.43582589285714  C 2.60677083333333 7.63113839285714  3.046875 7.82877604166667  3.58854166666667 8.02873883928572  C 4.13020833333333 8.22870163690476  4.66736111111111 8.32868303571428  5.2 8.32868303571428  C 5.80486111111111 8.32868303571428  6.40520833333333 8.22172619047619  7.00104166666667 8.0078125  C 6.95590277777778 8.35193452380952  6.93333333333333 8.65885416666667  6.93333333333333 8.92857142857143  Z M 22.4859375 19.9428013392857  C 22.5175347222222 20.4124813988095  22.5333333333333 20.893787202381  22.5333333333333 21.38671875  C 22.5333333333333 22.5027901785714  22.2038194444444 23.384021577381  21.5447916666667 24.0304129464286  C 20.8857638888889 24.6768043154762  20.0100694444444 25  18.9177083333333 25  L 7.08229166666667 25  C 5.98993055555556 25  5.11423611111111 24.6768043154762  4.45520833333333 24.0304129464286  C 3.79618055555556 23.384021577381  3.46666666666667 22.5027901785714  3.46666666666667 21.38671875  C 3.46666666666667 20.893787202381  3.48246527777778 20.4124813988095  3.5140625 19.9428013392857  C 3.54565972222222 19.4731212797619  3.60885416666667 18.9662388392857  3.70364583333333 18.4221540178571  C 3.7984375 17.8780691964286  3.91805555555556 17.3735119047619  4.0625 16.9084821428571  C 4.20694444444444 16.4434523809524  4.40104166666667 15.9900483630952  4.64479166666667 15.5482700892857  C 4.88854166666667 15.1064918154762  5.16840277777778 14.7298177083333  5.484375 14.4182477678571  C 5.80034722222222 14.106677827381  6.18628472222222 13.8578869047619  6.6421875 13.671875  C 7.09809027777778 13.4858630952381  7.60138888888889 13.3928571428571  8.15208333333333 13.3928571428571  C 8.24236111111111 13.3928571428571  8.43645833333333 13.4928385416667  8.734375 13.6928013392857  C 9.03229166666667 13.8927641369048  9.36180555555556 14.115978422619  9.72291666666667 14.3624441964286  C 10.0840277777778 14.6089099702381  10.5670138888889 14.8321242559524  11.171875 15.0320870535714  C 11.7767361111111 15.2320498511905  12.3861111111111 15.33203125  13 15.33203125  C 13.6138888888889 15.33203125  14.2232638888889 15.2320498511905  14.828125 15.0320870535714  C 15.4329861111111 14.8321242559524  15.9159722222222 14.6089099702381  16.2770833333333 14.3624441964286  C 16.6381944444444 14.115978422619  16.9677083333333 13.8927641369048  17.265625 13.6928013392857  C 17.5635416666667 13.4928385416667  17.7576388888889 13.3928571428571  17.8479166666667 13.3928571428571  C 18.3986111111111 13.3928571428571  18.9019097222222 13.4858630952381  19.3578125 13.671875  C 19.8137152777778 13.8578869047619  20.1996527777778 14.106677827381  20.515625 14.4182477678571  C 20.8315972222222 14.7298177083333  21.1114583333333 15.1064918154762  21.3552083333333 15.5482700892857  C 21.5989583333333 15.9900483630952  21.7930555555556 16.4434523809524  21.9375 16.9084821428571  C 22.0819444444444 17.3735119047619  22.2015625 17.8780691964286  22.2963541666667 18.4221540178571  C 22.3911458333333 18.9662388392857  22.4543402777778 19.4731212797619  22.4859375 19.9428013392857  Z M 7.65104166666667 1.04631696428572  C 8.328125 1.74386160714286  8.66666666666667 2.58556547619047  8.66666666666667 3.57142857142857  C 8.66666666666667 4.55729166666667  8.328125 5.39899553571428  7.65104166666667 6.09654017857143  C 6.97395833333333 6.79408482142857  6.15694444444445 7.14285714285714  5.2 7.14285714285714  C 4.24305555555556 7.14285714285714  3.42604166666667 6.79408482142857  2.74895833333333 6.09654017857143  C 2.071875 5.39899553571428  1.73333333333333 4.55729166666667  1.73333333333333 3.57142857142857  C 1.73333333333333 2.58556547619047  2.071875 1.74386160714286  2.74895833333333 1.04631696428572  C 3.42604166666667 0.348772321428573  4.24305555555556 0  5.2 0  C 6.15694444444445 0  6.97395833333333 0.348772321428573  7.65104166666667 1.04631696428572  Z M 16.6765625 5.14090401785714  C 17.6921875 6.18722098214286  18.2 7.44977678571428  18.2 8.92857142857143  C 18.2 10.4073660714286  17.6921875 11.669921875  16.6765625 12.7162388392857  C 15.6609375 13.7625558035714  14.4354166666667 14.2857142857143  13 14.2857142857143  C 11.5645833333333 14.2857142857143  10.3390625 13.7625558035714  9.3234375 12.7162388392857  C 8.3078125 11.669921875  7.8 10.4073660714286  7.8 8.92857142857143  C 7.8 7.44977678571428  8.3078125 6.18722098214286  9.3234375 5.14090401785714  C 10.3390625 4.09458705357143  11.5645833333333 3.57142857142857  13 3.57142857142857  C 14.4354166666667 3.57142857142857  15.6609375 4.09458705357143  16.6765625 5.14090401785714  Z M 24.3208333333333 7.14285714285714  C 25.4402777777778 7.14285714285714  26 8.78441220238095  26 12.0675223214286  C 26 12.79296875  25.7472222222222 13.3440290178571  25.2416666666667 13.720703125  C 24.7361111111111 14.0973772321429  24.1131944444444 14.2857142857143  23.3729166666667 14.2857142857143  L 21.5583333333333 14.2857142857143  C 20.6284722222222 13.1417410714286  19.4322916666667 12.5465029761905  17.9697916666667 12.5  C 18.7010416666667 11.4118303571429  19.0666666666667 10.2213541666667  19.0666666666667 8.92857142857143  C 19.0666666666667 8.65885416666667  19.0440972222222 8.35193452380952  18.9989583333333 8.0078125  C 19.5947916666667 8.22172619047619  20.1951388888889 8.32868303571428  20.8 8.32868303571428  C 21.3326388888889 8.32868303571428  21.8697916666667 8.22870163690476  22.4114583333333 8.02873883928572  C 22.953125 7.82877604166667  23.3932291666667 7.63113839285714  23.7317708333333 7.43582589285714  C 24.0703125 7.24051339285714  24.2666666666667 7.14285714285714  24.3208333333333 7.14285714285714  Z M 23.2510416666667 1.04631696428572  C 23.928125 1.74386160714286  24.2666666666667 2.58556547619047  24.2666666666667 3.57142857142857  C 24.2666666666667 4.55729166666667  23.928125 5.39899553571428  23.2510416666667 6.09654017857143  C 22.5739583333333 6.79408482142857  21.7569444444444 7.14285714285714  20.8 7.14285714285714  C 19.8430555555556 7.14285714285714  19.0260416666667 6.79408482142857  18.3489583333333 6.09654017857143  C 17.671875 5.39899553571428  17.3333333333333 4.55729166666667  17.3333333333333 3.57142857142857  C 17.3333333333333 2.58556547619047  17.671875 1.74386160714286  18.3489583333333 1.04631696428572  C 19.0260416666667 0.348772321428573  19.8430555555556 0  20.8 0  C 21.7569444444444 0  22.5739583333333 0.348772321428573  23.2510416666667 1.04631696428572  Z " fill-rule="nonzero" fill="#000000" stroke="none" transform="matrix(1 0 0 1 136 365 )" />
  </g>
</svg>