<?xml version="1.0" encoding="utf-8"?>
<svg version="1.1" xmlns:xlink="http://www.w3.org/1999/xlink" width="10px" height="22px" xmlns="http://www.w3.org/2000/svg">
  <g transform="matrix(1 0 0 1 -145 -263 )">
    <path d="M 9.703125 18.296875  C 9.90104166666667 18.4947916666667  10 18.7291666666667  10 19  L 10 21  C 10 21.2708333333333  9.90104166666667 21.5052083333333  9.703125 21.703125  C 9.50520833333333 21.9010416666667  9.27083333333333 22  9 22  L 1 22  C 0.729166666666667 22  0.494791666666667 21.9010416666667  0.296875 21.703125  C 0.0989583333333333 21.5052083333333  0 21.2708333333333  0 21  L 0 19  C 0 18.7291666666667  0.0989583333333333 18.4947916666667  0.296875 18.296875  C 0.494791666666667 18.0989583333333  0.729166666666667 18  1 18  L 2 18  L 2 12  L 1 12  C 0.729166666666667 12  0.494791666666667 11.9010416666667  0.296875 11.703125  C 0.0989583333333333 11.5052083333333  0 11.2708333333333  0 11  L 0 9  C 0 8.72916666666666  0.0989583333333333 8.49479166666666  0.296875 8.296875  C 0.494791666666667 8.09895833333333  0.729166666666667 8  1 8  L 7 8  C 7.27083333333333 8  7.50520833333333 8.09895833333333  7.703125 8.296875  C 7.90104166666667 8.49479166666666  8 8.72916666666666  8 9  L 8 18  L 9 18  C 9.27083333333333 18  9.50520833333333 18.0989583333333  9.703125 18.296875  Z M 7.703125 0.296875000000001  C 7.90104166666667 0.494791666666664  8 0.729166666666665  8 0.999999999999999  L 8 4  C 8 4.27083333333333  7.90104166666667 4.50520833333333  7.703125 4.703125  C 7.50520833333333 4.90104166666666  7.27083333333333 5  7 5  L 3 5  C 2.72916666666667 5  2.49479166666667 4.90104166666666  2.296875 4.703125  C 2.09895833333333 4.50520833333333  2 4.27083333333333  2 4  L 2 0.999999999999999  C 2 0.729166666666665  2.09895833333333 0.494791666666664  2.296875 0.296875000000001  C 2.49479166666667 0.0989583333333313  2.72916666666667 0  3 0  L 7 0  C 7.27083333333333 0  7.50520833333333 0.0989583333333313  7.703125 0.296875000000001  Z " fill-rule="nonzero" fill="#000000" stroke="none" transform="matrix(1 0 0 1 145 263 )" />
  </g>
</svg>