<?xml version="1.0" encoding="utf-8"?>
<svg version="1.1" xmlns:xlink="http://www.w3.org/1999/xlink" width="22px" height="22px" xmlns="http://www.w3.org/2000/svg">
  <g transform="matrix(1 0 0 1 -138 -470 )">
    <path d="M 5.04166666666667 14.78125  L 5.78645833333333 14.0364583333333  L 7.96354166666667 16.2135416666667  L 7.21875 16.9583333333333  L 6.41666666666667 16.9583333333333  L 6.41666666666667 15.5833333333333  L 5.04166666666667 15.5833333333333  L 5.04166666666667 14.78125  Z M 11.2864583333333 8.49348958333333  C 11.4487847222222 8.33116319444444  11.5920138888889 8.31684027777778  11.7161458333333 8.45052083333333  C 11.8498263888889 8.57465277777778  11.8355034722222 8.71788194444444  11.6731770833333 8.88020833333333  L 7.50520833333333 13.0481770833333  C 7.34288194444445 13.2105034722222  7.19965277777778 13.2248263888889  7.07552083333333 13.0911458333333  C 6.94184027777778 12.9670138888889  6.95616319444445 12.8237847222222  7.11848958333333 12.6614583333333  L 11.2864583333333 8.49348958333333  Z M 3.66666666666667 18.3333333333333  L 7.79166666666667 18.3333333333333  L 15.5833333333333 10.5416666666667  L 11.4583333333333 6.41666666666667  L 3.66666666666667 14.2083333333333  L 3.66666666666667 18.3333333333333  Z M 12.375 5.5  L 16.5 9.625  L 17.8177083333333 8.30729166666667  C 18.0850694444444 8.03993055555555  18.21875 7.71527777777778  18.21875 7.33333333333333  C 18.21875 6.95138888888889  18.0850694444444 6.62673611111111  17.8177083333333 6.359375  L 15.640625 4.18229166666667  C 15.3732638888889 3.91493055555555  15.0486111111111 3.78125  14.6666666666667 3.78125  C 14.2847222222222 3.78125  13.9600694444444 3.91493055555555  13.6927083333333 4.18229166666667  L 12.375 5.5  Z M 20.7897135416667 1.21028645833333  C 21.5965711805556 2.01714409722222  22 2.98871527777778  22 4.125  L 22 17.875  C 22 19.0112847222222  21.5965711805556 19.9828559027778  20.7897135416667 20.7897135416667  C 19.9828559027778 21.5965711805556  19.0112847222222 22  17.875 22  L 4.125 22  C 2.98871527777778 22  2.01714409722222 21.5965711805556  1.21028645833333 20.7897135416667  C 0.403428819444444 19.9828559027778  0 19.0112847222222  0 17.875  L 0 4.125  C 0 2.98871527777778  0.403428819444444 2.01714409722222  1.21028645833333 1.21028645833333  C 2.01714409722222 0.403428819444443  2.98871527777778 0  4.125 0  L 17.875 0  C 19.0112847222222 0  19.9828559027778 0.403428819444443  20.7897135416667 1.21028645833333  Z " fill-rule="nonzero" fill="#000000" stroke="none" transform="matrix(1 0 0 1 138 470 )" />
  </g>
</svg>