<?xml version="1.0" encoding="utf-8"?>
<svg version="1.1" xmlns:xlink="http://www.w3.org/1999/xlink" width="21px" height="25px" xmlns="http://www.w3.org/2000/svg">
  <g transform="matrix(1 0 0 1 -137 -561 )">
    <path d="M 20.860546875 18.0745442708333  C 20.953515625 18.8937717013889  21 19.7645399305556  21 20.6868489583333  C 21 21.8695746527778  20.658203125 22.8841145833333  19.974609375 23.73046875  C 19.291015625 24.5768229166667  18.46796875 25  17.50546875 25  L 3.49453125 25  C 2.53203125 25  1.708984375 24.5768229166667  1.025390625 23.73046875  C 0.341796875 22.8841145833333  0 21.8695746527778  0 20.6868489583333  C 0 19.7645399305556  0.0464843750000001 18.8937717013889  0.139453125 18.0745442708333  C 0.232421875 17.2553168402778  0.4046875 16.4306640625  0.65625 15.6005859375  C 0.9078125 14.7705078125  1.227734375 14.0597873263889  1.616015625 13.4684244791667  C 2.004296875 12.8770616319444  2.518359375 12.3942057291667  3.158203125 12.0198567708333  C 3.798046875 11.6455078125  4.53359375 11.4583333333333  5.36484375 11.4583333333333  C 6.79765625 12.8472222222222  8.509375 13.5416666666667  10.5 13.5416666666667  C 12.490625 13.5416666666667  14.20234375 12.8472222222222  15.63515625 11.4583333333333  C 16.46640625 11.4583333333333  17.201953125 11.6455078125  17.841796875 12.0198567708333  C 18.481640625 12.3942057291667  18.995703125 12.8770616319444  19.383984375 13.4684244791667  C 19.772265625 14.0597873263889  20.0921875 14.7705078125  20.34375 15.6005859375  C 20.5953125 16.4306640625  20.767578125 17.2553168402778  20.860546875 18.0745442708333  Z M 14.954296875 1.8310546875  C 16.184765625 3.0517578125  16.8 4.52473958333333  16.8 6.25  C 16.8 7.97526041666667  16.184765625 9.4482421875  14.954296875 10.6689453125  C 13.723828125 11.8896484375  12.2390625 12.5  10.5 12.5  C 8.7609375 12.5  7.276171875 11.8896484375  6.045703125 10.6689453125  C 4.815234375 9.4482421875  4.2 7.97526041666667  4.2 6.25  C 4.2 4.52473958333333  4.815234375 3.0517578125  6.045703125 1.8310546875  C 7.276171875 0.6103515625  8.7609375 0  10.5 0  C 12.2390625 0  13.723828125 0.6103515625  14.954296875 1.8310546875  Z " fill-rule="nonzero" fill="#000000" stroke="none" transform="matrix(1 0 0 1 137 561 )" />
  </g>
</svg>