<?xml version="1.0" encoding="utf-8"?>
<svg version="1.1" xmlns:xlink="http://www.w3.org/1999/xlink" width="25px" height="19px" xmlns="http://www.w3.org/2000/svg">
  <g transform="matrix(1 0 0 1 -138 -316 )">
    <path d="M 10.845947265625 12.1656901041667  C 10.906982421875 12.5491536458333  10.9375 12.9635416666667  10.9375 13.4088541666667  C 10.9375 13.8624131944444  10.809326171875 14.2479383680556  10.552978515625 14.5654296875  C 10.296630859375 14.8829210069444  9.98942057291667 15.0416666666667  9.63134765625 15.0416666666667  L 4.43115234375 15.0416666666667  C 4.07307942708333 15.0416666666667  3.765869140625 14.8829210069444  3.509521484375 14.5654296875  C 3.253173828125 14.2479383680556  3.125 13.8624131944444  3.125 13.4088541666667  C 3.125 12.9635416666667  3.155517578125 12.5491536458333  3.216552734375 12.1656901041667  C 3.277587890625 11.7822265625  3.37727864583333 11.4111328125  3.515625 11.0524088541667  C 3.65397135416667 10.6936848958333  3.86149088541667 10.4112413194444  4.13818359375 10.205078125  C 4.41487630208333 9.99891493055556  4.74446614583333 9.89583333333333  5.126953125 9.89583333333333  C 5.64778645833333 10.4236111111111  6.28255208333333 10.6875  7.03125 10.6875  C 7.77994791666667 10.6875  8.41471354166667 10.4236111111111  8.935546875 9.89583333333333  C 9.31803385416667 9.89583333333333  9.64762369791667 9.99891493055556  9.92431640625 10.205078125  C 10.2010091145833 10.4112413194444  10.4085286458333 10.6936848958333  10.546875 11.0524088541667  C 10.6852213541667 11.4111328125  10.784912109375 11.7822265625  10.845947265625 12.1656901041667  Z M 8.69140625 6.234375  C 9.14713541666667 6.69618055555555  9.375 7.25694444444444  9.375 7.91666666666667  C 9.375 8.57638888888889  9.14713541666667 9.13715277777778  8.69140625 9.59895833333333  C 8.23567708333333 10.0607638888889  7.68229166666667 10.2916666666667  7.03125 10.2916666666667  C 6.38020833333333 10.2916666666667  5.82682291666667 10.0607638888889  5.37109375 9.59895833333333  C 4.91536458333333 9.13715277777778  4.6875 8.57638888888889  4.6875 7.91666666666667  C 4.6875 7.25694444444444  4.91536458333333 6.69618055555555  5.37109375 6.234375  C 5.82682291666667 5.77256944444444  6.38020833333333 5.54166666666667  7.03125 5.54166666666667  C 7.68229166666667 5.54166666666667  8.23567708333333 5.77256944444444  8.69140625 6.234375  Z M 21.76513671875 12.7779947916667  C 21.83837890625 12.8522135416667  21.875 12.9470486111111  21.875 13.0625  L 21.875 13.8541666666667  C 21.875 13.9696180555556  21.83837890625 14.064453125  21.76513671875 14.138671875  C 21.69189453125 14.212890625  21.5983072916667 14.25  21.484375 14.25  L 12.890625 14.25  C 12.7766927083333 14.25  12.68310546875 14.212890625  12.60986328125 14.138671875  C 12.53662109375 14.064453125  12.5 13.9696180555556  12.5 13.8541666666667  L 12.5 13.0625  C 12.5 12.9470486111111  12.53662109375 12.8522135416667  12.60986328125 12.7779947916667  C 12.68310546875 12.7037760416667  12.7766927083333 12.6666666666667  12.890625 12.6666666666667  L 21.484375 12.6666666666667  C 21.5983072916667 12.6666666666667  21.69189453125 12.7037760416667  21.76513671875 12.7779947916667  Z M 17.07763671875 9.611328125  C 17.15087890625 9.685546875  17.1875 9.78038194444444  17.1875 9.89583333333333  L 17.1875 10.6875  C 17.1875 10.8029513888889  17.15087890625 10.8977864583333  17.07763671875 10.9720052083333  C 17.00439453125 11.0462239583333  16.9108072916667 11.0833333333333  16.796875 11.0833333333333  L 12.890625 11.0833333333333  C 12.7766927083333 11.0833333333333  12.68310546875 11.0462239583333  12.60986328125 10.9720052083333  C 12.53662109375 10.8977864583333  12.5 10.8029513888889  12.5 10.6875  L 12.5 9.89583333333333  C 12.5 9.78038194444444  12.53662109375 9.685546875  12.60986328125 9.611328125  C 12.68310546875 9.537109375  12.7766927083333 9.5  12.890625 9.5  L 16.796875 9.5  C 16.9108072916667 9.5  17.00439453125 9.537109375  17.07763671875 9.611328125  Z M 21.76513671875 9.611328125  C 21.83837890625 9.685546875  21.875 9.78038194444444  21.875 9.89583333333333  L 21.875 10.6875  C 21.875 10.8029513888889  21.83837890625 10.8977864583333  21.76513671875 10.9720052083333  C 21.69189453125 11.0462239583333  21.5983072916667 11.0833333333333  21.484375 11.0833333333333  L 19.140625 11.0833333333333  C 19.0266927083333 11.0833333333333  18.93310546875 11.0462239583333  18.85986328125 10.9720052083333  C 18.78662109375 10.8977864583333  18.75 10.8029513888889  18.75 10.6875  L 18.75 9.89583333333333  C 18.75 9.78038194444444  18.78662109375 9.685546875  18.85986328125 9.611328125  C 18.93310546875 9.537109375  19.0266927083333 9.5  19.140625 9.5  L 21.484375 9.5  C 21.5983072916667 9.5  21.69189453125 9.537109375  21.76513671875 9.611328125  Z M 21.76513671875 6.44466145833333  C 21.83837890625 6.51888020833333  21.875 6.61371527777778  21.875 6.72916666666667  L 21.875 7.52083333333333  C 21.875 7.63628472222222  21.83837890625 7.73111979166667  21.76513671875 7.80533854166667  C 21.69189453125 7.87955729166667  21.5983072916667 7.91666666666667  21.484375 7.91666666666667  L 12.890625 7.91666666666667  C 12.7766927083333 7.91666666666667  12.68310546875 7.87955729166667  12.60986328125 7.80533854166667  C 12.53662109375 7.73111979166667  12.5 7.63628472222222  12.5 7.52083333333333  L 12.5 6.72916666666667  C 12.5 6.61371527777778  12.53662109375 6.51888020833333  12.60986328125 6.44466145833333  C 12.68310546875 6.37044270833333  12.7766927083333 6.33333333333333  12.890625 6.33333333333333  L 21.484375 6.33333333333333  C 21.5983072916667 6.33333333333333  21.69189453125 6.37044270833333  21.76513671875 6.44466145833333  Z M 23.321533203125 17.2991536458333  C 23.3988444010417 17.2208116319444  23.4375 17.1280381944444  23 17.0208333333333  L 23 3.16666666666667  L 2 3.16666666666667  L 2 17.0208333333333  C 1.5625 17.1280381944444  1.60115559895833 17.2208116319444  1.678466796875 17.2991536458333  C 1.75577799479167 17.3774956597222  1.84733072916667 17.4166666666667  1.953125 17.4166666666667  L 23.046875 17.4166666666667  C 23.1526692708333 17.4166666666667  23.2442220052083 17.3774956597222  23.321533203125 17.2991536458333  Z M 24.42626953125 0.581380208333334  C 24.8087565104167 0.968967013888888  25 1.43489583333333  25 1.97916666666667  L 25 17.0208333333333  C 25 17.5651041666667  24.8087565104167 18.0310329861111  24.42626953125 18.4186197916667  C 24.0437825520833 18.8062065972222  23.583984375 19  23.046875 19  L 1.953125 19  C 1.416015625 19  0.956217447916667 18.8062065972222  0.57373046875 18.4186197916667  C 0.191243489583333 18.0310329861111  0 17.5651041666667  0 17.0208333333333  L 0 1.97916666666667  C 0 1.43489583333333  0.191243489583333 0.968967013888888  0.57373046875 0.581380208333334  C 0.956217447916667 0.193793402777776  1.416015625 0  1.953125 0  L 23.046875 0  C 23.583984375 0  24.0437825520833 0.193793402777776  24.42626953125 0.581380208333334  Z " fill-rule="nonzero" fill="#000000" stroke="none" transform="matrix(1 0 0 1 138 316 )" />
  </g>
</svg>