<?xml version="1.0" encoding="utf-8"?>
<svg version="1.1" xmlns:xlink="http://www.w3.org/1999/xlink" width="38px" height="38px" xmlns="http://www.w3.org/2000/svg">
  <g transform="matrix(1 0 0 1 -136 -192 )">
    <path d="M 26.5491071428571 33.4302455357143  C 28.8816964285714 32.1932663690476  30.7972470238095 30.5145089285714  32.2957589285714 28.3939732142857  C 31.9847470238095 26.2027529761905  31.3662574404762 24.3826264880952  30.4402901785714 22.93359375  C 29.5143229166667 21.4845610119048  28.210193452381 20.6469494047619  26.5279017857143 20.4207589285714  C 25.5807291666667 21.4668898809524  24.4533110119048 22.2832961309524  23.1456473214286 22.8699776785714  C 21.8379836309524 23.4566592261905  20.4561011904762 23.75  19 23.75  C 17.5438988095238 23.75  16.1620163690476 23.4566592261905  14.8543526785714 22.8699776785714  C 13.5466889880952 22.2832961309524  12.4192708333333 21.4668898809524  11.4720982142857 20.4207589285714  C 9.78980654761905 20.6469494047619  8.48567708333333 21.4845610119048  7.55970982142857 22.93359375  C 6.63374255952381 24.3826264880952  6.01525297619048 26.2027529761905  5.70424107142857 28.3939732142857  C 7.20275297619048 30.5145089285714  9.11830357142857 32.1932663690476  11.4508928571429 33.4302455357143  C 13.7834821428571 34.6672247023809  16.2998511904762 35.2857142857143  19 35.2857142857143  C 21.7001488095238 35.2857142857143  24.2165178571429 34.6672247023809  26.5491071428571 33.4302455357143  Z M 24.7572544642857 19.3286830357143  C 26.34765625 17.73828125  27.1428571428571 15.8191964285714  27.1428571428571 13.5714285714286  C 27.1428571428571 11.3236607142857  26.34765625 9.40457589285714  24.7572544642857 7.81417410714286  C 23.1668526785714 6.22377232142857  21.2477678571429 5.42857142857143  19 5.42857142857143  C 16.7522321428571 5.42857142857143  14.8331473214286 6.22377232142857  13.2427455357143 7.81417410714286  C 11.65234375 9.40457589285714  10.8571428571429 11.3236607142857  10.8571428571429 13.5714285714286  C 10.8571428571429 15.8191964285714  11.65234375 17.73828125  13.2427455357143 19.3286830357143  C 14.8331473214286 20.9190848214286  16.7522321428571 21.7142857142857  19 21.7142857142857  C 21.2477678571429 21.7142857142857  23.1668526785714 20.9190848214286  24.7572544642857 19.3286830357143  Z M 36.4944196428571 11.6205357142857  C 37.4981398809524 13.9672619047619  38 16.4270833333333  38 19  C 38 21.5729166666667  37.4981398809524 24.0292038690476  36.4944196428571 26.3688616071429  C 35.4906994047619 28.7085193452381  34.1441592261905 30.7300967261905  32.4547991071429 32.43359375  C 30.7654389880952 34.1370907738095  28.7473958333333 35.4906994047619  26.4006696428571 36.4944196428571  C 24.053943452381 37.4981398809524  21.5870535714286 38  19 38  C 16.4270833333333 38  13.9672619047619 37.4981398809524  11.6205357142857 36.4944196428571  C 9.27380952380953 35.4906994047619  7.25223214285714 34.140625  5.55580357142857 32.4441964285714  C 3.859375 30.7477678571429  2.5093005952381 28.7261904761905  1.50558035714286 26.3794642857143  C 0.501860119047619 24.0327380952381  0 21.5729166666667  0 19  C 0 16.4270833333333  0.501860119047619 13.9672619047619  1.50558035714286 11.6205357142857  C 2.5093005952381 9.27380952380952  3.859375 7.25223214285714  5.55580357142857 5.55580357142857  C 7.25223214285714 3.859375  9.27380952380953 2.50930059523809  11.6205357142857 1.50558035714286  C 13.9672619047619 0.501860119047619  16.4270833333333 0  19 0  C 21.5729166666667 0  24.0327380952381 0.501860119047619  26.3794642857143 1.50558035714286  C 28.7261904761905 2.50930059523809  30.7477678571429 3.859375  32.4441964285714 5.55580357142857  C 34.140625 7.25223214285714  35.4906994047619 9.27380952380952  36.4944196428571 11.6205357142857  Z " fill-rule="nonzero" fill="#000000" stroke="none" transform="matrix(1 0 0 1 136 192 )" />
  </g>
</svg>