<?xml version="1.0" encoding="utf-8"?>
<svg version="1.1" xmlns:xlink="http://www.w3.org/1999/xlink" width="22px" height="22px" xmlns="http://www.w3.org/2000/svg">
  <g transform="matrix(1 0 0 1 -138 -417 )">
    <path d="M 18.0182291666667 16.7005208333333  C 18.2282986111111 16.1944444444444  18.3333333333333 15.7122395833333  18.3333333333333 15.25390625  C 18.3333333333333 15.1488715277778  18.3237847222222 15.0724826388889  18.3046875 15.0247395833333  C 18.2855902777778 14.9769965277778  18.1996527777778 14.8982204861111  18.046875 14.7884114583333  C 17.8940972222222 14.6786024305556  17.7007378472222 14.5592447916667  17.466796875 14.4303385416667  C 17.2328559027778 14.3014322916667  17.0060763888889 14.1749131944444  16.7864583333333 14.05078125  C 16.5668402777778 13.9266493055556  16.349609375 13.8072916666667  16.134765625 13.6927083333333  C 15.919921875 13.578125  15.7838541666667 13.5065104166667  15.7265625 13.4778645833333  C 15.6788194444444 13.44921875  15.5881076388889 13.3871527777778  15.4544270833333 13.2916666666667  C 15.3207465277778 13.1961805555556  15.2013888888889 13.1245659722222  15.0963541666667 13.0768229166667  C 14.9913194444444 13.0290798611111  14.8910590277778 13.0052083333333  14.7955729166667 13.0052083333333  C 14.65234375 13.0052083333333  14.4780815972222 13.1030815972222  14.2727864583333 13.298828125  C 14.0674913194444 13.4945746527778  13.87890625 13.7094184027778  13.70703125 13.943359375  C 13.53515625 14.1773003472222  13.3513454861111 14.3921440972222  13.1555989583333 14.587890625  C 12.9598524305556 14.7836371527778  12.7999131944444 14.8815104166667  12.67578125 14.8815104166667  C 12.6089409722222 14.8815104166667  12.5301649305556 14.8648003472222  12.439453125 14.8313802083333  C 12.3487413194444 14.7979600694444  12.2747395833333 14.7669270833333  12.2174479166667 14.73828125  C 12.16015625 14.7096354166667  12.0789930555556 14.6642795138889  11.9739583333333 14.6022135416667  C 11.8689236111111 14.5401475694444  11.8020833333333 14.4995659722222  11.7734375 14.48046875  C 10.828125 13.9552951388889  10.0164930555556 13.3513454861111  9.33854166666667 12.6686197916667  C 8.66059027777778 11.9858940972222  8.05425347222222 11.171875  7.51953125 10.2265625  C 7.50043402777778 10.1979166666667  7.45985243055556 10.1310763888889  7.39778645833333 10.0260416666667  C 7.33572048611111 9.92100694444444  7.29036458333333 9.83984375  7.26171875 9.78255208333333  C 7.23307291666667 9.72526041666667  7.20203993055556 9.65125868055555  7.16861979166667 9.560546875  C 7.13519965277778 9.46983506944444  7.11848958333333 9.39105902777778  7.11848958333333 9.32421875  C 7.11848958333333 9.20008680555555  7.21636284722222 9.04014756944444  7.412109375 8.84440104166667  C 7.60785590277778 8.64865451388889  7.82269965277778 8.46484375  8.056640625 8.29296875  C 8.29058159722222 8.12109375  8.50542534722222 7.93250868055555  8.701171875 7.72721354166667  C 8.89691840277778 7.52191840277778  8.99479166666667 7.34765625  8.99479166666667 7.20442708333333  C 8.99479166666667 7.10894097222222  8.97092013888889 7.00868055555555  8.92317708333333 6.90364583333333  C 8.87543402777778 6.79861111111111  8.80381944444445 6.67925347222222  8.70833333333333 6.54557291666667  C 8.61284722222222 6.41189236111111  8.55078125 6.32118055555555  8.52213541666667 6.2734375  C 8.49348958333333 6.21614583333333  8.421875 6.080078125  8.30729166666667 5.865234375  C 8.19270833333333 5.650390625  8.07335069444445 5.43315972222222  7.94921875 5.21354166666667  C 7.82508680555556 4.99392361111111  7.69856770833333 4.76714409722222  7.56966145833333 4.533203125  C 7.44075520833333 4.29926215277778  7.32139756944444 4.10590277777778  7.21158854166667 3.953125  C 7.10177951388889 3.80034722222222  7.02300347222222 3.71440972222222  6.97526041666667 3.6953125  C 6.92751736111111 3.67621527777778  6.85112847222222 3.66666666666667  6.74609375 3.66666666666667  C 6.28776041666667 3.66666666666667  5.80555555555556 3.77170138888889  5.29947916666667 3.98177083333333  C 4.86024305555556 4.18229166666667  4.47829861111111 4.63346354166667  4.15364583333333 5.33528645833333  C 3.82899305555556 6.037109375  3.66666666666667 6.66015625  3.66666666666667 7.20442708333333  C 3.66666666666667 7.35720486111111  3.67860243055556 7.51953125  3.70247395833333 7.69140625  C 3.72634548611111 7.86328125  3.75021701388889 8.00889756944444  3.77408854166667 8.12825520833333  C 3.79796006944445 8.24761284722222  3.84092881944445 8.40516493055555  3.90299479166667 8.60091145833333  C 3.96506076388889 8.79665798611111  4.01280381944444 8.9375  4.04622395833333 9.0234375  C 4.07964409722222 9.109375  4.13932291666667 9.26692708333333  4.22526041666667 9.49609375  C 4.31119791666667 9.72526041666667  4.36371527777778 9.86848958333333  4.3828125 9.92578125  C 4.95572916666667 11.4917534722222  5.98936631944444 13.0219184027778  7.48372395833333 14.5162760416667  C 8.97808159722222 16.0106336805556  10.5082465277778 17.0442708333333  12.07421875 17.6171875  C 12.1315104166667 17.6362847222222  12.2747395833333 17.6888020833333  12.50390625 17.7747395833333  C 12.7330729166667 17.8606770833333  12.890625 17.9203559027778  12.9765625 17.9537760416667  C 13.0625 17.9871961805556  13.2033420138889 18.0349392361111  13.3990885416667 18.0970052083333  C 13.5948350694444 18.1590711805556  13.7523871527778 18.2020399305556  13.8717447916667 18.2259114583333  C 13.9911024305556 18.2497829861111  14.13671875 18.2736545138889  14.30859375 18.2975260416667  C 14.48046875 18.3213975694444  14.6427951388889 18.3333333333333  14.7955729166667 18.3333333333333  C 15.33984375 18.3333333333333  15.962890625 18.1710069444444  16.6647135416667 17.8463541666667  C 17.3665364583333 17.5217013888889  17.8177083333333 17.1397569444444  18.0182291666667 16.7005208333333  Z M 20.7897135416667 1.21028645833333  C 21.5965711805556 2.01714409722222  22 2.98871527777778  22 4.125  L 22 17.875  C 22 19.0112847222222  21.5965711805556 19.9828559027778  20.7897135416667 20.7897135416667  C 19.9828559027778 21.5965711805556  19.0112847222222 22  17.875 22  L 4.125 22  C 2.98871527777778 22  2.01714409722222 21.5965711805556  1.21028645833333 20.7897135416667  C 0.403428819444444 19.9828559027778  0 19.0112847222222  0 17.875  L 0 4.125  C 0 2.98871527777778  0.403428819444444 2.01714409722222  1.21028645833333 1.21028645833333  C 2.01714409722222 0.403428819444443  2.98871527777778 0  4.125 0  L 17.875 0  C 19.0112847222222 0  19.9828559027778 0.403428819444443  20.7897135416667 1.21028645833333  Z " fill-rule="nonzero" fill="#000000" stroke="none" transform="matrix(1 0 0 1 138 417 )" />
  </g>
</svg>