<?xml version="1.0" encoding="utf-8"?>
<svg version="1.1" xmlns:xlink="http://www.w3.org/1999/xlink" width="25px" height="26px" xmlns="http://www.w3.org/2000/svg">
  <g transform="matrix(1 0 0 1 -137 -514 )">
    <path d="M 15.4459635416667 16.0638020833333  C 16.259765625 15.2174479166667  16.6666666666667 14.1961805555556  16.6666666666667 13  C 16.6666666666667 11.8038194444444  16.259765625 10.7825520833333  15.4459635416667 9.93619791666667  C 14.6321614583333 9.08984375  13.6501736111111 8.66666666666667  12.5 8.66666666666667  C 11.3498263888889 8.66666666666667  10.3678385416667 9.08984375  9.55403645833333 9.93619791666667  C 8.740234375 10.7825520833333  8.33333333333333 11.8038194444444  8.33333333333333 13  C 8.33333333333333 14.1961805555556  8.740234375 15.2174479166667  9.55403645833333 16.0638020833333  C 10.3678385416667 16.91015625  11.3498263888889 17.3333333333333  12.5 17.3333333333333  C 13.6501736111111 17.3333333333333  14.6321614583333 16.91015625  15.4459635416667 16.0638020833333  Z M 24.8697916666667 10.7571614583333  C 24.9565972222222 10.8756510416667  25 11.0082465277778  25 11.1549479166667  L 25 14.9127604166667  C 25 15.0481770833333  24.9565972222222 15.1779513888889  24.8697916666667 15.3020833333333  C 24.7829861111111 15.4262152777778  24.6744791666667 15.4995659722222  24.5442708333333 15.5221354166667  L 21.533203125 15.99609375  C 21.3270399305556 16.60546875  21.1154513888889 17.1189236111111  20.8984375 17.5364583333333  C 21.2782118055556 18.1006944444444  21.8587239583333 18.8793402777778  22.6399739583333 19.8723958333333  C 22.7484809027778 20.0078125  22.802734375 20.1488715277778  22.802734375 20.2955729166667  C 22.802734375 20.4422743055556  22.75390625 20.5720486111111  22.65625 20.6848958333333  C 22.36328125 21.1024305555556  21.826171875 21.7118055555556  21.044921875 22.5130208333333  C 20.263671875 23.3142361111111  19.7536892361111 23.71484375  19.5149739583333 23.71484375  C 19.384765625 23.71484375  19.2437065972222 23.6640625  19.091796875 23.5625  L 16.845703125 21.734375  C 16.3682725694444 21.9939236111111  15.8745659722222 22.2083333333333  15.3645833333333 22.3776041666667  C 15.1909722222222 23.9123263888889  15.0336371527778 24.9618055555556  14.892578125 25.5260416666667  C 14.8166232638889 25.8420138888889  14.6213107638889 26  14.306640625 26  L 10.693359375 26  C 10.5414496527778 26  10.4085286458333 25.9520399305556  10.2945963541667 25.8561197916667  C 10.1806640625 25.7601996527778  10.1182725694444 25.6388888888889  10.107421875 25.4921875  L 9.65169270833333 22.3776041666667  C 9.12000868055556 22.1970486111111  8.63172743055556 21.98828125  8.18684895833333 21.7513020833333  L 5.89192708333333 23.5625  C 5.78342013888889 23.6640625  5.64778645833333 23.71484375  5.48502604166667 23.71484375  C 5.33311631944444 23.71484375  5.19748263888889 23.6527777777778  5.078125 23.5286458333333  C 3.7109375 22.2421875  2.81575520833333 21.2942708333333  2.392578125 20.6848958333333  C 2.31662326388889 20.5720486111111  2.27864583333333 20.4422743055556  2.27864583333333 20.2955729166667  C 2.27864583333333 20.16015625  2.32204861111111 20.0303819444444  2.40885416666667 19.90625  C 2.57161458333333 19.6692708333333  2.84830729166667 19.2940538194444  3.23893229166667 18.7805989583333  C 3.62955729166667 18.2671440972222  3.92252604166667 17.8693576388889  4.11783854166667 17.5872395833333  C 3.82486979166667 17.0230034722222  3.60243055555556 16.4644097222222  3.45052083333333 15.9114583333333  L 0.472005208333333 15.4544270833333  C 0.330946180555556 15.4318576388889  0.217013888888889 15.361328125  0.130208333333333 15.2428385416667  C 0.0434027777777778 15.1243489583333  0 14.9917534722222  0 14.8450520833333  L 0 11.0872395833333  C 0 10.9518229166667  0.0434027777777778 10.8220486111111  0.130208333333333 10.6979166666667  C 0.217013888888889 10.5737847222222  0.320095486111111 10.5004340277778  0.439453125 10.4778645833333  L 3.466796875 10.00390625  C 3.61870659722222 9.48480902777778  3.83029513888889 8.96571180555556  4.1015625 8.44661458333333  C 3.66753472222222 7.80338541666667  3.08702256944444 7.02473958333333  2.36002604166667 6.11067708333333  C 2.25151909722222 5.97526041666667  2.197265625 5.83984375  2.197265625 5.70442708333333  C 2.197265625 5.59157986111111  2.24609375 5.46180555555555  2.34375 5.31510416666667  C 2.62586805555556 4.90885416666667  3.16026475694444 4.30230034722222  3.94694010416667 3.49544270833333  C 4.73361545138889 2.68858506944444  5.24631076388889 2.28515625  5.48502604166667 2.28515625  C 5.62608506944444 2.28515625  5.76714409722222 2.34157986111111  5.908203125 2.45442708333333  L 8.154296875 4.265625  C 8.63172743055556 4.00607638888889  9.12543402777778 3.79166666666667  9.63541666666667 3.62239583333333  C 9.80902777777778 2.08767361111111  9.96636284722222 1.03819444444444  10.107421875 0.473958333333332  C 10.1833767361111 0.15798611111111  10.3786892361111 0  10.693359375 0  L 14.306640625 0  C 14.4585503472222 0  14.5914713541667 0.0479600694444422  14.7054036458333 0.143880208333332  C 14.8193359375 0.23980034722222  14.8817274305556 0.36111111111111  14.892578125 0.5078125  L 15.3483072916667 3.62239583333333  C 15.8799913194444 3.80295138888889  16.3682725694444 4.01171875  16.8131510416667 4.24869791666667  L 19.1243489583333 2.4375  C 19.2220052083333 2.3359375  19.3522135416667 2.28515625  19.5149739583333 2.28515625  C 19.6560329861111 2.28515625  19.7916666666667 2.34157986111111  19.921875 2.45442708333333  C 21.3216145833333 3.79730902777778  22.216796875 4.75651041666667  22.607421875 5.33203125  C 22.6833767361111 5.42230902777778  22.7213541666667 5.54644097222222  22.7213541666667 5.70442708333333  C 22.7213541666667 5.83984375  22.6779513888889 5.96961805555555  22.5911458333333 6.09375  C 22.4283854166667 6.33072916666667  22.1516927083333 6.70594618055555  21.7610677083333 7.21940104166667  C 21.3704427083333 7.73285590277778  21.0774739583333 8.13064236111111  20.8821614583333 8.41276041666667  C 21.1642795138889 8.97699652777778  21.38671875 9.52994791666666  21.5494791666667 10.0716145833333  L 24.5279947916667 10.5455729166667  C 24.6690538194444 10.5681423611111  24.7829861111111 10.638671875  24.8697916666667 10.7571614583333  Z " fill-rule="nonzero" fill="#000000" stroke="none" transform="matrix(1 0 0 1 137 514 )" />
  </g>
</svg>