<?xml version="1.0" encoding="utf-8"?>
<svg version="1.1" xmlns:xlink="http://www.w3.org/1999/xlink" width="17px" height="25px" xmlns="http://www.w3.org/2000/svg">
  <g transform="matrix(1 0 0 1 -331 -251 )">
    <path d="M 11.5048828125 11.279296875  C 12.3349609375 10.4654947916667  12.75 9.48350694444444  12.75 8.33333333333333  C 12.75 7.18315972222222  12.3349609375 6.201171875  11.5048828125 5.38736979166667  C 10.6748046875 4.57356770833333  9.67317708333333 4.16666666666667  8.5 4.16666666666667  C 7.32682291666667 4.16666666666667  6.3251953125 4.57356770833333  5.4951171875 5.38736979166667  C 4.6650390625 6.201171875  4.25 7.18315972222222  4.25 8.33333333333333  C 4.25 9.48350694444444  4.6650390625 10.4654947916667  5.4951171875 11.279296875  C 6.3251953125 12.0930989583333  7.32682291666667 12.5  8.5 12.5  C 9.67317708333333 12.5  10.6748046875 12.0930989583333  11.5048828125 11.279296875  Z M 14.509765625 2.44140625  C 16.169921875 4.06901041666667  17 6.03298611111111  17 8.33333333333333  C 17 9.51605902777778  16.8173828125 10.4871961805556  16.4521484375 11.2467447916667  L 10.4091796875 23.8444010416667  C 10.2320963541667 24.2024739583333  9.96923828125 24.4845920138889  9.62060546875 24.6907552083333  C 9.27197265625 24.8969184027778  8.8984375 25  8.5 25  C 8.1015625 25  7.72802734375 24.8969184027778  7.37939453125 24.6907552083333  C 7.03076171875 24.4845920138889  6.7734375 24.2024739583333  6.607421875 23.8444010416667  L 0.5478515625 11.2467447916667  C 0.1826171875 10.4871961805556  0 9.51605902777778  0 8.33333333333333  C 0 6.03298611111111  0.830078125 4.06901041666667  2.490234375 2.44140625  C 4.150390625 0.813802083333334  6.15364583333333 0  8.5 0  C 10.8463541666667 0  12.849609375 0.813802083333334  14.509765625 2.44140625  Z " fill-rule="nonzero" fill="#d9001b" stroke="none" transform="matrix(1 0 0 1 331 251 )" />
  </g>
</svg>