<?xml version="1.0" encoding="utf-8"?>
<svg version="1.1" xmlns:xlink="http://www.w3.org/1999/xlink" width="28px" height="24px" xmlns="http://www.w3.org/2000/svg">
  <g transform="matrix(1 0 0 1 -128 -484 )">
    <path d="M 12.6033653846154 2.05907172995781  C 12.8165064102564 2.27285513361463  12.9230769230769 2.52601969057665  13 2.81856540084388  L 13 21.1814345991561  C 12.9230769230769 21.4739803094233  12.8165064102564 21.7271448663854  12.6033653846154 21.9409282700422  C 12.3902243589744 22.154711673699  12.1378205128205 22.2616033755274  11.8461538461538 22.2616033755274  C 11.5544871794872 22.2616033755274  11.3020833333333 22.154711673699  11.0889423076923 21.9409282700422  L 5.48557692307692 16.3206751054852  L 1.07692307692308 16.3206751054852  C 0.78525641025641 16.3206751054852  0.532852564102564 16.2137834036568  0.319711538461538 16  C 0.106570512820513 15.7862165963432  0 15.5330520393812  0 15.2405063291139  L 0 8.75949367088608  C 0 8.46694796061885  0.106570512820513 8.21378340365682  0.319711538461538 8  C 0.532852564102564 7.78621659634318  0.78525641025641 7.67932489451477  1.07692307692308 7.67932489451477  L 5.48557692307692 7.67932489451477  L 11.0889423076923 2.05907172995781  C 11.3020833333333 1.84528832630098  11.5544871794872 1.73839662447257  11.8461538461538 1.73839662447257  C 12.1378205128205 1.73839662447257  12.3902243589744 1.84528832630098  12.6033653846154 2.05907172995781  Z M 18.6694711538462 9.60337552742616  C 19.146233974359 10.3459915611814  19.3846153846154 11.1448663853727  19.3846153846154 12  C 19.3846153846154 12.8551336146273  19.146233974359 13.6511954992968  18.6694711538462 14.3881856540084  C 18.1927083333333 15.1251758087201  17.5616987179487 15.6511954992968  16.7764423076923 15.9662447257384  C 16.6642628205128 16.0225035161744  16.5240384615385 16.0506329113924  16.3557692307692 16.0506329113924  C 16.0641025641026 16.0506329113924  15.8116987179487 15.9465541490858  15.5985576923077 15.7383966244726  C 15.3854166666667 15.5302390998593  15.2788461538462 15.2742616033755  15.2788461538462 14.9704641350211  C 15.2788461538462 14.7341772151899  15.3461538461538 14.5344585091421  15.4807692307692 14.3713080168776  C 15.6153846153846 14.2081575246132  15.7780448717949 14.0675105485232  15.96875 13.9493670886076  C 16.1594551282051 13.831223628692  16.3501602564103 13.7018284106892  16.5408653846154 13.5611814345992  C 16.7315705128205 13.4205344585091  16.8942307692308 13.2180028129395  17.0288461538462 12.9535864978903  C 17.1634615384615 12.6891701828411  17.2307692307692 12.3713080168776  17.2307692307692 12  C 17.2307692307692 11.6286919831224  17.1634615384615 11.3108298171589  17.0288461538462 11.0464135021097  C 16.8942307692308 10.7819971870605  16.7315705128205 10.5794655414909  16.5408653846154 10.4388185654008  C 16.3501602564103 10.2981715893108  16.1594551282051 10.168776371308  15.96875 10.0506329113924  C 15.7780448717949 9.93248945147679  15.6153846153846 9.79184247538678  15.4807692307692 9.62869198312236  C 15.3461538461538 9.46554149085794  15.2788461538462 9.26582278481013  15.2788461538462 9.0295358649789  C 15.2788461538462 8.72573839662447  15.3854166666667 8.46976090014065  15.5985576923077 8.26160337552743  C 15.8116987179487 8.0534458509142  16.0641025641026 7.94936708860759  16.3557692307692 7.94936708860759  C 16.5240384615385 7.94936708860759  16.6642628205128 7.9774964838256  16.7764423076923 8.0337552742616  C 17.5616987179487 8.33755274261604  18.1927083333333 8.86075949367089  18.6694711538462 9.60337552742616  Z M 22.2620192307692 7.23206751054852  C 23.2155448717949 8.68917018284107  23.6923076923077 10.2784810126582  23.6923076923077 12  C 23.6923076923077 13.7215189873418  23.2155448717949 15.3108298171589  22.2620192307692 16.7679324894515  C 21.3084935897436 18.225035161744  20.0464743589744 19.2855133614627  18.4759615384615 19.9493670886076  C 18.3301282051282 20.0056258790436  18.1899038461538 20.0337552742616  18.0552884615385 20.0337552742616  C 17.7524038461538 20.0337552742616  17.494391025641 19.9268635724332  17.28125 19.7130801687764  C 17.068108974359 19.4992967651195  16.9615384615385 19.2461322081575  16.9615384615385 18.9535864978903  C 16.9615384615385 18.5147679324895  17.1802884615385 18.182841068917  17.6177884615385 17.957805907173  C 18.2459935897436 17.6315049226442  18.6722756410256 17.3839662447257  18.8966346153846 17.2151898734177  C 19.7267628205128 16.6075949367089  20.3745993589744 15.845288326301  20.8401442307692 14.9282700421941  C 21.3056891025641 14.0112517580872  21.5384615384615 13.0351617440225  21.5384615384615 12  C 21.5384615384615 10.9648382559775  21.3056891025641 9.9887482419128  20.8401442307692 9.07172995780591  C 20.3745993589744 8.15471167369902  19.7267628205128 7.39240506329114  18.8966346153846 6.78481012658228  C 18.6722756410256 6.61603375527426  18.2459935897436 6.36849507735584  17.6177884615385 6.042194092827  C 17.1802884615385 5.81715893108298  16.9615384615385 5.48523206751055  16.9615384615385 5.0464135021097  C 16.9615384615385 4.75386779184247  17.068108974359 4.50070323488045  17.28125 4.28691983122363  C 17.494391025641 4.07313642756681  17.7467948717949 3.9662447257384  18.0384615384615 3.9662447257384  C 18.1842948717949 3.9662447257384  18.3301282051282 3.9943741209564  18.4759615384615 4.05063291139241  C 20.0464743589744 4.71448663853727  21.3084935897436 5.77496483825597  22.2620192307692 7.23206751054852  Z M 25.8629807692308 4.86919831223629  C 27.2876602564103 7.0351617440225  28 9.41209563994374  28 12  C 28 14.5879043600563  27.2876602564103 16.9648382559775  25.8629807692308 19.1308016877637  C 24.4383012820513 21.2967651195499  22.5424679487179 22.8917018284107  20.1754807692308 23.915611814346  C 20.0296474358974 23.971870604782  19.8838141025641 24  19.7379807692308 24  C 19.4463141025641 24  19.1939102564103 23.8931082981716  18.9807692307692 23.6793248945148  C 18.7676282051282 23.4655414908579  18.6610576923077 23.2123769338959  18.6610576923077 22.9198312236287  C 18.6610576923077 22.5147679324894  18.8798076923077 22.182841068917  19.3173076923077 21.9240506329114  C 19.3958333333333 21.8790436005626  19.5220352564103 21.8199718706048  19.6959134615385 21.746835443038  C 19.8697916666667 21.6736990154712  19.9959935897436 21.6146272855134  20.0745192307692 21.5696202531646  C 20.5905448717949 21.2883263009845  21.0504807692308 21.0014064697609  21.4543269230769 20.7088607594937  C 22.8341346153846 19.6849507735584  23.9110576923077 18.407876230661  24.6850961538462 16.8776371308017  C 25.4591346153846 15.3473980309423  25.8461538461538 13.7215189873418  25.8461538461538 12  C 25.8461538461538 10.2784810126582  25.4591346153846 8.65260196905767  24.6850961538462 7.12236286919831  C 23.9110576923077 5.59212376933896  22.8341346153846 4.31504922644163  21.4543269230769 3.29113924050633  C 21.0504807692308 2.9985935302391  20.5905448717949 2.71167369901547  20.0745192307692 2.43037974683544  C 19.9959935897436 2.38537271448664  19.8697916666667 2.32630098452883  19.6959134615385 2.25316455696203  C 19.5220352564103 2.18002812939522  19.3958333333333 2.12095639943741  19.3173076923077 2.07594936708861  C 18.8798076923077 1.81715893108298  18.6610576923077 1.48523206751055  18.6610576923077 1.08016877637131  C 18.6610576923077 0.787623066104076  18.7676282051282 0.534458509142051  18.9807692307692 0.320675105485232  C 19.1939102564103 0.10689170182841  19.4463141025641 0  19.7379807692308 0  C 19.8838141025641 0  20.0296474358974 0.0281293952180013  20.1754807692308 0.0843881856540092  C 22.5424679487179 1.10829817158931  24.4383012820513 2.70323488045007  25.8629807692308 4.86919831223629  Z " fill-rule="nonzero" fill="#000000" stroke="none" transform="matrix(1 0 0 1 128 484 )" />
  </g>
</svg>