<?xml version="1.0" encoding="utf-8"?>
<svg version="1.1" xmlns:xlink="http://www.w3.org/1999/xlink" width="19px" height="16px" xmlns="http://www.w3.org/2000/svg">
  <g transform="matrix(1 0 0 1 -52 -331 )">
    <path d="M 18.7985491071429 5.31  C 18.932849702381 5.43666666666667  19 5.58666666666667  19 5.76  C 19 5.93333333333333  18.932849702381 6.08333333333333  18.7985491071429 6.21  L 13.3699776785714 11.33  C 13.2356770833333 11.4566666666667  13.0766369047619 11.52  12.8928571428571 11.52  C 12.7090773809524 11.52  12.550037202381 11.4566666666667  12.4157366071429 11.33  C 12.2814360119048 11.2033333333333  12.2142857142857 11.0533333333333  12.2142857142857 10.88  L 12.2142857142857 8.32  L 9.83928571428572 8.32  C 9.14657738095238 8.32  8.52632068452381 8.34  7.978515625 8.38  C 7.43071056547619 8.42  6.88643973214286 8.49166666666667  6.345703125 8.595  C 5.80496651785714 8.69833333333333  5.33491443452381 8.84  4.935546875 9.02  C 4.53617931547619 9.2  4.16331845238095 9.43166666666667  3.81696428571429 9.715  C 3.47061011904762 9.99833333333333  3.18787202380952 10.335  2.96875 10.725  C 2.74962797619048 11.115  2.57821800595238 11.5766666666667  2.45452008928571 12.11  C 2.33082217261905 12.6433333333333  2.26897321428571 13.2466666666667  2.26897321428571 13.92  C 2.26897321428571 14.2866666666667  2.2866443452381 14.6966666666667  2.32198660714286 15.15  C 2.32198660714286 15.19  2.33082217261905 15.2683333333333  2.34849330357143 15.385  C 2.36616443452381 15.5016666666667  2.375 15.59  2.375 15.65  C 2.375 15.75  2.34495907738095 15.8333333333333  2.28487723214286 15.9  C 2.22479538690476 15.9666666666667  2.14174107142857 16  2.03571428571429 16  C 1.92261904761905 16  1.82366071428571 15.9433333333333  1.73883928571429 15.83  C 1.68936011904762 15.77  1.64341517857143 15.6966666666667  1.60100446428571 15.61  C 1.55859375 15.5233333333333  1.51088169642857 15.4233333333333  1.45786830357143 15.31  C 1.40485491071429 15.1966666666667  1.36774553571429 15.1166666666667  1.34654017857143 15.07  C 0.448846726190476 13.17  0 11.6666666666667  0 10.56  C 0 9.23333333333333  0.187313988095238 8.12333333333333  0.561941964285714 7.23  C 1.70703125 4.54333333333333  4.79947916666667 3.2  9.83928571428572 3.2  L 12.2142857142857 3.2  L 12.2142857142857 0.640000000000001  C 12.2142857142857 0.466666666666665  12.2814360119048 0.316666666666665  12.4157366071429 0.19  C 12.550037202381 0.0633333333333326  12.7090773809524 0  12.8928571428571 0  C 13.0766369047619 0  13.2356770833333 0.0633333333333326  13.3699776785714 0.19  L 18.7985491071429 5.31  Z " fill-rule="nonzero" fill="#555555" stroke="none" transform="matrix(1 0 0 1 52 331 )" />
  </g>
</svg>