<?xml version="1.0" encoding="utf-8"?>
<svg version="1.1" xmlns:xlink="http://www.w3.org/1999/xlink" width="19px" height="17px" xmlns="http://www.w3.org/2000/svg">
  <g transform="matrix(1 0 0 1 -15 -48 )">
    <path d="M 13.544921875 2.18587239583333  C 12.290271577381 1.67306857638889  10.9419642857143 1.41666666666667  9.5 1.41666666666667  C 8.05803571428571 1.41666666666667  6.70972842261905 1.67306857638889  5.455078125 2.18587239583333  C 4.20042782738095 2.69867621527778  3.20377604166667 3.39040798611111  2.46512276785714 4.26106770833333  C 1.72646949404762 5.13172743055555  1.35714285714286 6.07248263888889  1.35714285714286 7.08333333333333  C 1.35714285714286 7.90972222222222  1.6098400297619 8.69737413194444  2.115234375 9.4462890625  C 2.6206287202381 10.1952039930556  3.33277529761905 10.8426649305556  4.25167410714286 11.388671875  L 5.17410714285714 11.9420572916667  L 4.88783482142857 13.0045572916667  C 4.71819196428571 13.6759982638889  4.47079613095238 14.310546875  4.14564732142857 14.908203125  C 5.22005208333333 14.443359375  6.19196428571429 13.8125  7.06138392857143 13.015625  L 7.51729910714286 12.5950520833333  L 8.12165178571429 12.6614583333333  C 8.609375 12.7204861111111  9.06882440476191 12.75  9.5 12.75  C 10.9419642857143 12.75  12.290271577381 12.4935980902778  13.544921875 11.9807942708333  C 14.799572172619 11.4679904513889  15.7962239583333 10.7762586805556  16.5348772321429 9.90559895833333  C 17.2735305059524 9.03493923611111  17.6428571428571 8.09418402777778  17.6428571428571 7.08333333333333  C 17.6428571428571 6.07248263888889  17.2735305059524 5.13172743055555  16.5348772321429 4.26106770833333  C 15.7962239583333 3.39040798611111  14.799572172619 2.69867621527778  13.544921875 2.18587239583333  Z M 17.7276785714286 3.52506510416667  C 18.5758928571429 4.61338975694444  19 5.79947916666667  19 7.08333333333333  C 19 8.3671875  18.5758928571429 9.55327690972222  17.7276785714286 10.6416015625  C 16.8794642857143 11.7299262152778  15.727306547619 12.5895182291667  14.2712053571429 13.2203776041667  C 12.8151041666667 13.8512369791667  11.2247023809524 14.1666666666667  9.5 14.1666666666667  C 9.00520833333333 14.1666666666667  8.49274553571429 14.1371527777778  7.96261160714286 14.078125  C 6.56305803571429 15.3693576388889  4.93731398809524 16.2621527777778  3.08537946428571 16.7565104166667  C 2.73902529761905 16.8598090277778  2.33612351190476 16.9409722222222  1.87667410714286 17  L 1.82366071428571 17  C 1.71763392857143 17  1.62220982142857 16.9612630208333  1.53738839285714 16.8837890625  C 1.45256696428571 16.8063151041667  1.3960193452381 16.7048611111111  1.36774553571429 16.5794270833333  L 1.36774553571429 16.568359375  C 1.34654017857143 16.5388454861111  1.34477306547619 16.4945746527778  1.36244419642857 16.435546875  C 1.38011532738095 16.3765190972222  1.3871837797619 16.3396267361111  1.38364955357143 16.3248697916667  C 1.38011532738095 16.3101128472222  1.3960193452381 16.2750651041667  1.43136160714286 16.2197265625  L 1.49497767857143 16.1201171875  C 1.49497767857143 16.1201171875  1.51971726190476 16.0887586805556  1.56919642857143 16.0260416666667  C 1.6186755952381 15.9633246527778  1.6469494047619 15.9301215277778  1.65401785714286 15.9264322916667  C 1.70349702380952 15.8674045138889  1.81305803571429 15.7401258680556  1.98270089285714 15.5445963541667  C 2.15234375 15.3490668402778  2.27427455357143 15.2088758680556  2.34849330357143 15.1240234375  C 2.42271205357143 15.0391710069444  2.53227306547619 14.8934461805556  2.67717633928571 14.6868489583333  C 2.82207961309524 14.4802517361111  2.93694196428571 14.2921006944444  3.02176339285714 14.1223958333333  C 3.10658482142857 13.9526909722222  3.20200892857143 13.7350260416667  3.30803571428571 13.4694010416667  C 3.4140625 13.2037760416667  3.50595238095238 12.9233940972222  3.58370535714286 12.6282552083333  C 2.47395833333333 11.9715711805556  1.59923735119048 11.1599392361111  0.959542410714286 10.193359375  C 0.319847470238095 9.22677951388889  0 8.19010416666667  0 7.08333333333333  C 0 5.79947916666667  0.424107142857143 4.61338975694444  1.27232142857143 3.52506510416667  C 2.12053571428571 2.43674045138889  3.27269345238095 1.5771484375  4.72879464285714 0.9462890625  C 6.18489583333333 0.3154296875  7.77529761904762 0  9.5 0  C 11.2247023809524 0  12.8151041666667 0.3154296875  14.2712053571429 0.9462890625  C 15.727306547619 1.5771484375  16.8794642857143 2.43674045138889  17.7276785714286 3.52506510416667  Z " fill-rule="nonzero" fill="#555555" stroke="none" transform="matrix(1 0 0 1 15 48 )" />
  </g>
</svg>