<?xml version="1.0" encoding="utf-8"?>
<svg version="1.1" xmlns:xlink="http://www.w3.org/1999/xlink" width="17px" height="13px" xmlns="http://www.w3.org/2000/svg">
  <g transform="matrix(1 0 0 1 -270 -51 )">
    <path d="M 16.5993265993266 9.71717171717172  C 16.8664421997755 9.92143658810325  17 10.1694725028058  17 10.4612794612795  C 17 10.7530864197531  16.8664421997755 11.0011223344557  16.5993265993266 11.2053872053872  L 14.6531986531987 12.6936026936027  C 14.3860830527497 12.8978675645342  14.0617283950617 13  13.6801346801347 13  C 13.2985409652076 13  12.9741863075196 12.8978675645342  12.7070707070707 12.6936026936027  L 8.5 9.47643097643098  L 4.29292929292929 12.6936026936027  C 4.02581369248036 12.8978675645342  3.70145903479237 13  3.31986531986532 13  C 2.93827160493827 13  2.61391694725028 12.8978675645342  2.34680134680135 12.6936026936027  L 0.400673400673401 11.2053872053872  C 0.133557800224467 11.0011223344557  0 10.7530864197531  0 10.4612794612795  C 0 10.1694725028058  0.133557800224467 9.92143658810325  0.400673400673401 9.71717171717172  L 4.60774410774411 6.5  L 0.400673400673401 3.28282828282828  C 0.133557800224467 3.07856341189674  0 2.83052749719416  0 2.53872053872054  C 0 2.24691358024691  0.133557800224467 1.99887766554433  0.400673400673401 1.79461279461279  L 2.34680134680135 0.306397306397306  C 2.61391694725028 0.102132435465768  2.93827160493827 0  3.31986531986532 0  C 3.70145903479237 0  4.02581369248036 0.102132435465768  4.29292929292929 0.306397306397306  L 8.5 3.52356902356902  L 12.7070707070707 0.306397306397306  C 12.9741863075196 0.102132435465768  13.2985409652076 0  13.6801346801347 0  C 14.0617283950617 0  14.3860830527497 0.102132435465768  14.6531986531987 0.306397306397306  L 16.5993265993266 1.79461279461279  C 16.8664421997755 1.99887766554433  17 2.24691358024691  17 2.53872053872054  C 17 2.83052749719416  16.8664421997755 3.07856341189674  16.5993265993266 3.28282828282828  L 12.3922558922559 6.5  L 16.5993265993266 9.71717171717172  Z " fill-rule="nonzero" fill="#7f7f7f" stroke="none" transform="matrix(1 0 0 1 270 51 )" />
  </g>
</svg>