<?xml version="1.0" encoding="utf-8"?>
<svg version="1.1" xmlns:xlink="http://www.w3.org/1999/xlink" width="34px" height="20px" xmlns="http://www.w3.org/2000/svg">
  <defs>
    <mask fill="white" id="clip4">
      <path d="M 10 20  C 4.40000000000001 20  0 15.6  0 10  C 0 4.39999999999998  4.40000000000001 0  10 0  L 22.7999999999993 0  L 24 0  C 29.6 0  34 4.39999999999998  34 10  C 34 15.6  29.6 20  24 20  L 14 20  L 10 20  Z " fill-rule="evenodd" />
    </mask>
  </defs>
  <g transform="matrix(1 0 0 1 -45 -190 )">
    <path d="M 10 20  C 4.40000000000001 20  0 15.6  0 10  C 0 4.39999999999998  4.40000000000001 0  10 0  L 22.7999999999993 0  L 24 0  C 29.6 0  34 4.39999999999998  34 10  C 34 15.6  29.6 20  24 20  L 14 20  L 10 20  Z " fill-rule="nonzero" fill="#f5f5dc" stroke="none" transform="matrix(1 0 0 1 45 190 )" />
    <path d="M 10 20  C 4.40000000000001 20  0 15.6  0 10  C 0 4.39999999999998  4.40000000000001 0  10 0  L 22.7999999999993 0  L 24 0  C 29.6 0  34 4.39999999999998  34 10  C 34 15.6  29.6 20  24 20  L 14 20  L 10 20  Z " stroke-width="2" stroke="#797979" fill="none" transform="matrix(1 0 0 1 45 190 )" mask="url(#clip4)" />
  </g>
</svg>