<?xml version="1.0" encoding="utf-8"?>
<svg version="1.1" xmlns:xlink="http://www.w3.org/1999/xlink" width="41px" height="38px" xmlns="http://www.w3.org/2000/svg">
  <g transform="matrix(1 0 0 1 -5 -15 )">
    <path d="M 25.5 15  C 36.98 15  46 23.36  46 34  C 46 44.64  36.98 53  25.5 53  C 14.02 53  5 44.64  5 34  C 5 23.36  14.02 15  25.5 15  Z " fill-rule="nonzero" fill="#ffffff" stroke="none" />
    <path d="M 25.5 15.5  C 36.7 15.5  45.5 23.64  45.5 34  C 45.5 44.36  36.7 52.5  25.5 52.5  C 14.3 52.5  5.5 44.36  5.5 34  C 5.5 23.64  14.3 15.5  25.5 15.5  Z " stroke-width="1" stroke="#797979" fill="none" />
  </g>
</svg>