<?xml version="1.0" encoding="utf-8"?>
<svg version="1.1" xmlns:xlink="http://www.w3.org/1999/xlink" width="171px" height="98px" xmlns="http://www.w3.org/2000/svg">
  <g transform="matrix(1 0 0 1 -49 -40 )">
    <path d="M 49 40  L 220 40  L 220 138  L 49 138  L 49 40  " fill-rule="nonzero" fill="#cccccc" stroke="none" />
    <path d="M 56 47  L 213 47  L 213 131  L 56 131  L 56 47  " fill-rule="nonzero" fill="#ffffff" stroke="none" />
    <path d="M 145.27 69.4  C 141.154 69.4  137.92 66.166  137.92 62.05  C 137.92 57.934  141.154 54.7  145.27 54.7  C 149.386 54.7  152.62 57.934  152.62 62.05  C 152.62 66.166  149.386 69.4  145.27 69.4  " fill-rule="nonzero" fill="#cccccc" stroke="none" />
    <path d="M 59 129  L 59 85.55  L 97 65.8  L 150.2 101.835087719298  L 180.6 77.65  L 211 101.835087719298  L 211 129  L 59 129  " fill-rule="nonzero" fill="#169bd5" stroke="none" />
  </g>
</svg>