<?xml version="1.0" encoding="utf-8"?>
<svg version="1.1" xmlns:xlink="http://www.w3.org/1999/xlink" width="19px" height="17px" xmlns="http://www.w3.org/2000/svg">
  <g transform="matrix(1 0 0 1 -54 -167 )">
    <path d="M 18.7985491071429 5.641875  C 18.932849702381 5.77645833333333  19 5.93583333333333  19 6.12  C 19 6.30416666666667  18.932849702381 6.46354166666667  18.7985491071429 6.598125  L 13.3699776785714 12.038125  C 13.2356770833333 12.1727083333333  13.0766369047619 12.24  12.8928571428571 12.24  C 12.7090773809524 12.24  12.550037202381 12.1727083333333  12.4157366071429 12.038125  C 12.2814360119048 11.9035416666667  12.2142857142857 11.7441666666667  12.2142857142857 11.56  L 12.2142857142857 8.84  L 9.83928571428572 8.84  C 9.14657738095238 8.84  8.52632068452381 8.86125  7.978515625 8.90375  C 7.43071056547619 8.94625  6.88643973214286 9.02239583333333  6.345703125 9.1321875  C 5.80496651785714 9.24197916666667  5.33491443452381 9.3925  4.935546875 9.58375  C 4.53617931547619 9.775  4.16331845238095 10.0211458333333  3.81696428571429 10.3221875  C 3.47061011904762 10.6232291666667  3.18787202380952 10.9809375  2.96875 11.3953125  C 2.74962797619048 11.8096875  2.57821800595238 12.3002083333333  2.45452008928571 12.866875  C 2.33082217261905 13.4335416666667  2.26897321428571 14.0745833333333  2.26897321428571 14.79  C 2.26897321428571 15.1795833333333  2.2866443452381 15.6152083333333  2.32198660714286 16.096875  C 2.32198660714286 16.139375  2.33082217261905 16.2226041666667  2.34849330357143 16.3465625  C 2.36616443452381 16.4705208333333  2.375 16.564375  2.375 16.628125  C 2.375 16.734375  2.34495907738095 16.8229166666667  2.28487723214286 16.89375  C 2.22479538690476 16.9645833333333  2.14174107142857 17  2.03571428571429 17  C 1.92261904761905 17  1.82366071428571 16.9397916666667  1.73883928571429 16.819375  C 1.68936011904762 16.755625  1.64341517857143 16.6777083333333  1.60100446428571 16.585625  C 1.55859375 16.4935416666667  1.51088169642857 16.3872916666667  1.45786830357143 16.266875  C 1.40485491071429 16.1464583333333  1.36774553571429 16.0614583333333  1.34654017857143 16.011875  C 0.448846726190476 13.993125  0 12.3958333333333  0 11.22  C 0 9.81041666666667  0.187313988095238 8.63104166666666  0.561941964285714 7.681875  C 1.70703125 4.82729166666667  4.79947916666667 3.4  9.83928571428572 3.4  L 12.2142857142857 3.4  L 12.2142857142857 0.680000000000001  C 12.2142857142857 0.495833333333332  12.2814360119048 0.336458333333331  12.4157366071429 0.201874999999999  C 12.550037202381 0.0672916666666659  12.7090773809524 0  12.8928571428571 0  C 13.0766369047619 0  13.2356770833333 0.0672916666666659  13.3699776785714 0.201874999999999  L 18.7985491071429 5.641875  Z " fill-rule="nonzero" fill="#555555" stroke="none" transform="matrix(1 0 0 1 54 167 )" />
  </g>
</svg>