<?xml version="1.0" encoding="utf-8"?>
<svg version="1.1" xmlns:xlink="http://www.w3.org/1999/xlink" width="19px" height="15px" xmlns="http://www.w3.org/2000/svg">
  <g transform="matrix(1 0 0 1 -247 -209 )">
    <path d="M 5.455078125 1.9287109375  C 6.70972842261905 1.47623697916667  8.05803571428572 1.25  9.5 1.25  C 10.9419642857143 1.25  12.290271577381 1.47623697916667  13.544921875 1.9287109375  C 14.799572172619 2.38118489583333  15.7962239583333 2.99153645833333  16.5348772321429 3.759765625  C 17.2735305059524 4.52799479166666  17.6428571428571 5.35807291666667  17.6428571428571 6.25  C 17.6428571428571 6.97916666666667  17.3901599702381 7.67415364583333  16.884765625 8.3349609375  C 16.3793712797619 8.99576822916667  15.667224702381 9.56705729166667  14.7483258928571 10.048828125  L 13.8258928571429 10.537109375  L 14.1121651785714 11.474609375  C 14.2818080357143 12.0670572916667  14.5292038690476 12.626953125  14.8543526785714 13.154296875  C 13.7799479166667 12.744140625  12.8080357142857 12.1875  11.9386160714286 11.484375  L 11.4827008928571 11.11328125  L 10.8783482142857 11.171875  C 10.390625 11.2239583333333  9.93117559523809 11.25  9.5 11.25  C 8.05803571428572 11.25  6.70972842261905 11.0237630208333  5.455078125 10.5712890625  C 4.20042782738095 10.1188151041667  3.20377604166667 9.50846354166667  2.46512276785714 8.740234375  C 1.72646949404762 7.97200520833333  1.35714285714286 7.14192708333333  1.35714285714286 6.25  C 1.35714285714286 5.35807291666667  1.72646949404762 4.52799479166666  2.46512276785714 3.759765625  C 3.20377604166667 2.99153645833333  4.20042782738095 2.38118489583333  5.455078125 1.9287109375  Z M 1.27232142857143 3.1103515625  C 0.424107142857143 4.07063802083333  0 5.1171875  0 6.25  C 0 7.3828125  0.424107142857143 8.42936197916666  1.27232142857143 9.3896484375  C 2.12053571428572 10.3499348958333  3.27269345238095 11.1083984375  4.72879464285714 11.6650390625  C 6.18489583333333 12.2216796875  7.77529761904762 12.5  9.5 12.5  C 9.99479166666667 12.5  10.5072544642857 12.4739583333333  11.0373883928571 12.421875  C 12.4369419642857 13.5611979166667  14.0626860119048 14.3489583333333  15.9146205357143 14.78515625  C 16.2609747023809 14.8763020833333  16.6638764880952 14.9479166666667  17.1233258928571 15  L 17.1763392857143 15  C 17.2823660714286 15  17.3777901785714 14.9658203125  17.4626116071429 14.8974609375  C 17.5474330357143 14.8291015625  17.6039806547619 14.7395833333333  17.6322544642857 14.62890625  L 17.6322544642857 14.619140625  C 17.6534598214286 14.5930989583333  17.6552269345238 14.5540364583333  17.6375558035714 14.501953125  C 17.619884672619 14.4498697916667  17.6128162202381 14.4173177083333  17.6163504464286 14.404296875  C 17.619884672619 14.3912760416667  17.6039806547619 14.3603515625  17.5686383928571 14.3115234375  L 17.5050223214286 14.2236328125  C 17.5050223214286 14.2236328125  17.4802827380952 14.1959635416667  17.4308035714286 14.140625  C 17.3813244047619 14.0852864583333  17.3530505952381 14.0559895833333  17.3459821428571 14.052734375  C 17.2965029761905 14.0006510416667  17.1869419642857 13.8883463541667  17.0172991071429 13.7158203125  C 16.84765625 13.5432942708333  16.7257254464286 13.4195963541667  16.6515066964286 13.3447265625  C 16.5772879464286 13.2698567708333  16.4677269345238 13.1412760416667  16.3228236607143 12.958984375  C 16.1779203869048 12.7766927083333  16.0630580357143 12.6106770833333  15.9782366071429 12.4609375  C 15.8934151785714 12.3111979166667  15.7979910714286 12.119140625  15.6919642857143 11.884765625  C 15.5859375 11.650390625  15.4940476190476 11.4029947916667  15.4162946428571 11.142578125  C 16.5260416666667 10.5631510416667  17.4007626488095 9.84700520833333  18.0404575892857 8.994140625  C 18.6801525297619 8.14127604166666  19 7.2265625  19 6.25  C 19 5.1171875  18.5758928571429 4.07063802083333  17.7276785714286 3.1103515625  C 16.8794642857143 2.15006510416667  15.727306547619 1.3916015625  14.2712053571429 0.8349609375  C 12.8151041666667 0.2783203125  11.2247023809524 0  9.5 0  C 7.77529761904762 0  6.18489583333333 0.2783203125  4.72879464285714 0.8349609375  C 3.27269345238095 1.3916015625  2.12053571428572 2.15006510416667  1.27232142857143 3.1103515625  Z " fill-rule="nonzero" fill="#555555" stroke="none" transform="matrix(1 0 0 1 247 209 )" />
  </g>
</svg>