<?xml version="1.0" encoding="utf-8"?>
<svg version="1.1" xmlns:xlink="http://www.w3.org/1999/xlink" width="16px" height="15px" xmlns="http://www.w3.org/2000/svg">
  <g transform="matrix(1 0 0 1 -204 -209 )">
    <path d="M 13.1785714285714 8.046875  C 14.297619047619 6.82291666666667  14.8571428571429 5.6640625  14.8571428571429 4.5703125  C 14.8571428571429 4.04296875  14.7931547619048 3.57747395833333  14.6651785714286 3.173828125  C 14.5372023809524 2.77018229166666  14.3735119047619 2.44954427083333  14.1741071428571 2.2119140625  C 13.9747023809524 1.97428385416667  13.7321428571429 1.78059895833333  13.4464285714286 1.630859375  C 13.1607142857143 1.48111979166666  12.8809523809524 1.38020833333333  12.6071428571429 1.328125  C 12.3333333333333 1.27604166666666  12.0416666666667 1.25  11.7321428571429 1.25  C 11.422619047619 1.25  11.0892857142857 1.3330078125  10.7321428571429 1.4990234375  C 10.375 1.6650390625  10.046130952381 1.87337239583333  9.74553571428571 2.1240234375  C 9.44494047619048 2.37467447916666  9.1875 2.60904947916666  8.97321428571429 2.8271484375  C 8.75892857142857 3.04524739583333  8.58035714285714 3.24544270833333  8.4375 3.427734375  C 8.33035714285714 3.57096354166667  8.18452380952381 3.642578125  8 3.642578125  C 7.81547619047619 3.642578125  7.66964285714286 3.57096354166667  7.5625 3.427734375  C 7.41964285714286 3.24544270833333  7.24107142857143 3.04524739583333  7.02678571428571 2.8271484375  C 6.8125 2.60904947916666  6.55505952380952 2.37467447916666  6.25446428571429 2.1240234375  C 5.95386904761905 1.87337239583333  5.625 1.6650390625  5.26785714285714 1.4990234375  C 4.91071428571429 1.3330078125  4.57738095238095 1.25  4.26785714285714 1.25  C 3.95833333333333 1.25  3.66666666666667 1.27604166666666  3.39285714285714 1.328125  C 3.11904761904762 1.38020833333333  2.83928571428571 1.48111979166666  2.55357142857143 1.630859375  C 2.26785714285714 1.78059895833333  2.02529761904762 1.97428385416667  1.82589285714286 2.2119140625  C 1.6264880952381 2.44954427083333  1.46279761904762 2.77018229166666  1.33482142857143 3.173828125  C 1.20684523809524 3.57747395833333  1.14285714285714 4.04296875  1.14285714285714 4.5703125  C 1.14285714285714 5.6640625  1.69940476190476 6.81966145833333  2.8125 8.037109375  L 8 13.505859375  L 13.1785714285714 8.046875  Z M 14.8660714285714 1.2109375  C 15.6220238095238 2.01822916666667  16 3.13802083333333  16 4.5703125  C 16 6.00911458333333  15.3184523809524 7.47395833333333  13.9553571428571 8.96484375  L 8.39285714285714 14.82421875  C 8.28571428571429 14.94140625  8.15476190476191 15  8 15  C 7.8452380952381 15  7.71428571428572 14.94140625  7.60714285714286 14.82421875  L 2.03571428571429 8.9453125  C 1.97619047619048 8.89322916666667  1.89434523809524 8.80859375  1.79017857142857 8.69140625  C 1.6860119047619 8.57421875  1.52083333333333 8.36100260416667  1.29464285714286 8.0517578125  C 1.06845238095238 7.74251302083333  0.866071428571429 7.42513020833333  0.6875 7.099609375  C 0.508928571428571 6.77408854166667  0.349702380952381 6.38020833333333  0.209821428571429 5.91796875  C 0.0699404761904762 5.45572916666667  0 5.00651041666667  0 4.5703125  C 0 3.13802083333333  0.37797619047619 2.01822916666667  1.13392857142857 1.2109375  C 1.88988095238095 0.403645833333333  2.93452380952381 0  4.26785714285714 0  C 4.63690476190476 0  5.01339285714286 0.0699869791666657  5.39732142857143 0.209960937500001  C 5.78125 0.349934895833332  6.13839285714286 0.538736979166666  6.46875 0.7763671875  C 6.79910714285714 1.01399739583333  7.08333333333333 1.23697916666667  7.32142857142857 1.4453125  C 7.55952380952381 1.65364583333333  7.78571428571429 1.875  8 2.109375  C 8.21428571428571 1.875  8.44047619047619 1.65364583333333  8.67857142857143 1.4453125  C 8.91666666666667 1.23697916666667  9.20089285714286 1.01399739583333  9.53125 0.7763671875  C 9.86160714285714 0.538736979166666  10.21875 0.349934895833332  10.6026785714286 0.209960937500001  C 10.9866071428571 0.0699869791666657  11.3630952380952 0  11.7321428571429 0  C 13.0654761904762 0  14.110119047619 0.403645833333333  14.8660714285714 1.2109375  Z " fill-rule="nonzero" fill="#555555" stroke="none" transform="matrix(1 0 0 1 204 209 )" />
  </g>
</svg>