<?xml version="1.0" encoding="utf-8"?>
<svg version="1.1" xmlns:xlink="http://www.w3.org/1999/xlink" width="23px" height="20px" xmlns="http://www.w3.org/2000/svg">
  <g transform="matrix(1 0 0 1 -635 -278 )">
    <path d="M 17.923828125 11.4192708333333  C 18.1134982638889 11.2543402777778  18.2083333333333 11.0590277777778  18.2083333333333 10.8333333333333  L 18.2083333333333 9.16666666666667  C 18.2083333333333 8.94097222222222  18.1134982638889 8.74565972222222  17.923828125 8.58072916666667  C 17.7341579861111 8.41579861111111  17.5095486111111 8.33333333333333  17.25 8.33333333333333  L 13.4166666666667 8.33333333333333  L 13.4166666666667 5  C 13.4166666666667 4.77430555555555  13.3218315972222 4.57899305555555  13.1321614583333 4.4140625  C 12.9424913194444 4.24913194444444  12.7178819444444 4.16666666666667  12.4583333333333 4.16666666666667  L 10.5416666666667 4.16666666666667  C 10.2821180555556 4.16666666666667  10.0575086805556 4.24913194444444  9.86783854166667 4.4140625  C 9.67816840277778 4.57899305555555  9.58333333333333 4.77430555555555  9.58333333333333 5  L 9.58333333333333 8.33333333333333  L 5.75 8.33333333333333  C 5.49045138888889 8.33333333333333  5.26584201388889 8.41579861111111  5.076171875 8.58072916666667  C 4.88650173611111 8.74565972222222  4.79166666666667 8.94097222222222  4.79166666666667 9.16666666666667  L 4.79166666666667 10.8333333333333  C 4.79166666666667 11.0590277777778  4.88650173611111 11.2543402777778  5.076171875 11.4192708333333  C 5.26584201388889 11.5842013888889  5.49045138888889 11.6666666666667  5.75 11.6666666666667  L 9.58333333333333 11.6666666666667  L 9.58333333333333 15  C 9.58333333333333 15.2256944444444  9.67816840277778 15.4210069444444  9.86783854166667 15.5859375  C 10.0575086805556 15.7508680555556  10.2821180555556 15.8333333333333  10.5416666666667 15.8333333333333  L 12.4583333333333 15.8333333333333  C 12.7178819444444 15.8333333333333  12.9424913194444 15.7508680555556  13.1321614583333 15.5859375  C 13.3218315972222 15.4210069444444  13.4166666666667 15.2256944444444  13.4166666666667 15  L 13.4166666666667 11.6666666666667  L 17.25 11.6666666666667  C 17.5095486111111 11.6666666666667  17.7341579861111 11.5842013888889  17.923828125 11.4192708333333  Z M 21.4576822916667 4.98046875  C 22.4858940972222 6.51258680555555  23 8.18576388888889  23 10  C 23 11.8142361111111  22.4858940972222 13.4874131944444  21.4576822916667 15.01953125  C 20.4294704861111 16.5516493055556  19.0343967013889 17.7647569444444  17.2724609375 18.6588541666667  C 15.5105251736111 19.5529513888889  13.5863715277778 20  11.5 20  C 9.41362847222222 20  7.48947482638889 19.5529513888889  5.7275390625 18.6588541666667  C 3.96560329861111 17.7647569444444  2.57052951388889 16.5516493055556  1.54231770833333 15.01953125  C 0.514105902777778 13.4874131944444  0 11.8142361111111  0 10  C 0 8.18576388888889  0.514105902777778 6.51258680555555  1.54231770833333 4.98046875  C 2.57052951388889 3.44835069444444  3.96560329861111 2.23524305555555  5.7275390625 1.34114583333333  C 7.48947482638889 0.447048611111109  9.41362847222222 0  11.5 0  C 13.5863715277778 0  15.5105251736111 0.447048611111109  17.2724609375 1.34114583333333  C 19.0343967013889 2.23524305555555  20.4294704861111 3.44835069444444  21.4576822916667 4.98046875  Z " fill-rule="nonzero" fill="#7b4d12" stroke="none" transform="matrix(1 0 0 1 635 278 )" />
  </g>
</svg>