<?xml version="1.0" encoding="utf-8"?>
<svg version="1.1" xmlns:xlink="http://www.w3.org/1999/xlink" width="4px" height="19px" xmlns="http://www.w3.org/2000/svg">
  <g transform="matrix(1 0 0 1 -635 -348 )">
    <path d="M 3.70833333333333 14.1960227272727  C 3.90277777777778 14.4479166666667  4 14.7537878787879  4 15.1136363636364  L 4 17.7045454545455  C 4 18.0643939393939  3.90277777777778 18.3702651515151  3.70833333333333 18.6221590909091  C 3.51388888888889 18.874053030303  3.27777777777778 19  3 19  L 1 19  C 0.722222222222222 19  0.486111111111111 18.874053030303  0.291666666666667 18.6221590909091  C 0.0972222222222222 18.3702651515151  0 18.0643939393939  0 17.7045454545455  L 0 15.1136363636364  C 0 14.7537878787879  0.0972222222222222 14.4479166666667  0.291666666666667 14.1960227272727  C 0.486111111111111 13.9441287878788  0.722222222222222 13.8181818181818  1 13.8181818181818  L 3 13.8181818181818  C 3.27777777777778 13.8181818181818  3.51388888888889 13.9441287878788  3.70833333333333 14.1960227272727  Z M 3.70833333333333 7.28693181818182  C 3.90277777777778 7.53882575757575  4 7.84469696969697  4 8.20454545454545  L 4 10.7954545454545  C 4 11.155303030303  3.90277777777778 11.4611742424242  3.70833333333333 11.7130681818182  C 3.51388888888889 11.9649621212121  3.27777777777778 12.0909090909091  3 12.0909090909091  L 1 12.0909090909091  C 0.722222222222222 12.0909090909091  0.486111111111111 11.9649621212121  0.291666666666667 11.7130681818182  C 0.0972222222222222 11.4611742424242  0 11.155303030303  0 10.7954545454545  L 0 8.20454545454545  C 0 7.84469696969697  0.0972222222222222 7.53882575757575  0.291666666666667 7.28693181818182  C 0.486111111111111 7.03503787878788  0.722222222222222 6.90909090909091  1 6.90909090909091  L 3 6.90909090909091  C 3.27777777777778 6.90909090909091  3.51388888888889 7.03503787878788  3.70833333333333 7.28693181818182  Z M 3.70833333333333 0.377840909090909  C 3.90277777777778 0.629734848484847  4 0.93560606060606  4 1.29545454545455  L 4 3.88636363636364  C 4 4.24621212121212  3.90277777777778 4.55208333333333  3.70833333333333 4.80397727272727  C 3.51388888888889 5.05587121212121  3.27777777777778 5.18181818181818  3 5.18181818181818  L 1 5.18181818181818  C 0.722222222222222 5.18181818181818  0.486111111111111 5.05587121212121  0.291666666666667 4.80397727272727  C 0.0972222222222222 4.55208333333333  0 4.24621212121212  0 3.88636363636364  L 0 1.29545454545455  C 0 0.93560606060606  0.0972222222222222 0.629734848484847  0.291666666666667 0.377840909090909  C 0.486111111111111 0.125946969696969  0.722222222222222 0  1 0  L 3 0  C 3.27777777777778 0  3.51388888888889 0.125946969696969  3.70833333333333 0.377840909090909  Z " fill-rule="nonzero" fill="#7f7f7f" stroke="none" transform="matrix(1 0 0 1 635 348 )" />
  </g>
</svg>