<?xml version="1.0" encoding="utf-8"?>
<svg version="1.1" xmlns:xlink="http://www.w3.org/1999/xlink" width="19px" height="14px" xmlns="http://www.w3.org/2000/svg">
  <g transform="matrix(1 0 0 1 -245 -333 )">
    <path d="M 5.455078125 1.80013020833333  C 6.70972842261905 1.37782118055555  8.05803571428572 1.16666666666667  9.5 1.16666666666667  C 10.9419642857143 1.16666666666667  12.290271577381 1.37782118055555  13.544921875 1.80013020833333  C 14.799572172619 2.22243923611111  15.7962239583333 2.79210069444444  16.5348772321429 3.50911458333333  C 17.2735305059524 4.22612847222222  17.6428571428571 5.00086805555555  17.6428571428571 5.83333333333333  C 17.6428571428571 6.51388888888889  17.3901599702381 7.16254340277778  16.884765625 7.779296875  C 16.3793712797619 8.39605034722222  15.667224702381 8.92925347222222  14.7483258928571 9.37890625  L 13.8258928571429 9.83463541666667  L 14.1121651785714 10.7096354166667  C 14.2818080357143 11.2625868055556  14.5292038690476 11.78515625  14.8543526785714 12.27734375  C 13.7799479166667 11.89453125  12.8080357142857 11.375  11.9386160714286 10.71875  L 11.4827008928571 10.3723958333333  L 10.8783482142857 10.4270833333333  C 10.390625 10.4756944444444  9.93117559523809 10.5  9.5 10.5  C 8.05803571428572 10.5  6.70972842261905 10.2888454861111  5.455078125 9.86653645833333  C 4.20042782738095 9.44422743055555  3.20377604166667 8.87456597222222  2.46512276785714 8.15755208333333  C 1.72646949404762 7.44053819444444  1.35714285714286 6.66579861111111  1.35714285714286 5.83333333333333  C 1.35714285714286 5.00086805555555  1.72646949404762 4.22612847222222  2.46512276785714 3.50911458333333  C 3.20377604166667 2.79210069444444  4.20042782738095 2.22243923611111  5.455078125 1.80013020833333  Z M 1.27232142857143 2.90299479166667  C 0.424107142857143 3.79926215277778  0 4.77604166666667  0 5.83333333333333  C 0 6.890625  0.424107142857143 7.86740451388889  1.27232142857143 8.763671875  C 2.12053571428572 9.65993923611111  3.27269345238095 10.3678385416667  4.72879464285714 10.8873697916667  C 6.18489583333333 11.4069010416667  7.77529761904762 11.6666666666667  9.5 11.6666666666667  C 9.99479166666667 11.6666666666667  10.5072544642857 11.6423611111111  11.0373883928571 11.59375  C 12.4369419642857 12.6571180555556  14.0626860119048 13.3923611111111  15.9146205357143 13.7994791666667  C 16.2609747023809 13.8845486111111  16.6638764880952 13.9513888888889  17.1233258928571 14  L 17.1763392857143 14  C 17.2823660714286 14  17.3777901785714 13.9680989583333  17.4626116071429 13.904296875  C 17.5474330357143 13.8404947916667  17.6039806547619 13.7569444444444  17.6322544642857 13.6536458333333  L 17.6322544642857 13.64453125  C 17.6534598214286 13.6202256944444  17.6552269345238 13.5837673611111  17.6375558035714 13.53515625  C 17.619884672619 13.4865451388889  17.6128162202381 13.4561631944444  17.6163504464286 13.4440104166667  C 17.619884672619 13.4318576388889  17.6039806547619 13.4029947916667  17.5686383928571 13.357421875  L 17.5050223214286 13.275390625  C 17.5050223214286 13.275390625  17.4802827380952 13.2495659722222  17.4308035714286 13.1979166666667  C 17.3813244047619 13.1462673611111  17.3530505952381 13.1189236111111  17.3459821428571 13.1158854166667  C 17.2965029761905 13.0672743055556  17.1869419642857 12.9624565972222  17.0172991071429 12.8014322916667  C 16.84765625 12.6404079861111  16.7257254464286 12.5249565972222  16.6515066964286 12.455078125  C 16.5772879464286 12.3851996527778  16.4677269345238 12.2651909722222  16.3228236607143 12.0950520833333  C 16.1779203869048 11.9249131944444  16.0630580357143 11.7699652777778  15.9782366071429 11.6302083333333  C 15.8934151785714 11.4904513888889  15.7979910714286 11.3111979166667  15.6919642857143 11.0924479166667  C 15.5859375 10.8736979166667  15.4940476190476 10.6427951388889  15.4162946428571 10.3997395833333  C 16.5260416666667 9.85894097222222  17.4007626488095 9.19053819444444  18.0404575892857 8.39453125  C 18.6801525297619 7.59852430555555  19 6.74479166666667  19 5.83333333333333  C 19 4.77604166666667  18.5758928571429 3.79926215277778  17.7276785714286 2.90299479166667  C 16.8794642857143 2.00672743055555  15.727306547619 1.298828125  14.2712053571429 0.779296875  C 12.8151041666667 0.259765625  11.2247023809524 0  9.5 0  C 7.77529761904762 0  6.18489583333333 0.259765625  4.72879464285714 0.779296875  C 3.27269345238095 1.298828125  2.12053571428572 2.00672743055555  1.27232142857143 2.90299479166667  Z " fill-rule="nonzero" fill="#555555" stroke="none" transform="matrix(1 0 0 1 245 333 )" />
  </g>
</svg>