<?xml version="1.0" encoding="utf-8"?>
<svg version="1.1" xmlns:xlink="http://www.w3.org/1999/xlink" width="24px" height="20px" xmlns="http://www.w3.org/2000/svg">
  <g transform="matrix(1 0 0 1 -168 -632 )">
    <path d="M 20.5501858736059 11.4263445050663  C 20.5600991325898 11.4471291244479  20.5650557620818 11.4783060535204  20.5650557620818 11.5198752922837  L 20.5650557620818 19.0023382696804  C 20.5650557620818 19.272538321642  20.4708798017348 19.5063652896856  20.2825278810409 19.7038191738114  C 20.094175960347 19.9012730579371  19.8711276332094 20  19.6133828996283 20  L 13.9033457249071 20  L 13.9033457249071 14.0140296180826  L 10.0966542750929 14.0140296180826  L 10.0966542750929 20  L 4.38661710037175 20  C 4.12887236679058 20  3.90582403965304 19.9012730579371  3.71747211895911 19.7038191738114  C 3.52912019826518 19.5063652896856  3.43494423791822 19.272538321642  3.43494423791822 19.0023382696804  L 3.43494423791822 11.5198752922837  C 3.43494423791822 11.5094829825929  3.43742255266419 11.4938945180566  3.44237918215613 11.473109898675  C 3.44733581164808 11.4523252792933  3.44981412639405 11.4367368147571  3.44981412639405 11.4263445050663  L 12 4.03741231488698  L 20.5501858736059 11.4263445050663  Z M 23.9851301115242 10.0779423226812  C 23.9950433705081 10.2182385035074  23.9603469640644 10.3403481423746  23.8810408921933 10.4442712392829  L 22.9591078066914 11.5978176149649  C 22.8798017348203 11.6913484021824  22.7757125154895 11.7485061054819  22.6468401486989 11.7692907248636  L 22.6022304832714 11.7692907248636  C 22.4733581164808 11.7692907248636  22.3692688971499 11.7329176409457  22.2899628252788 11.6601714731099  L 12 2.66562743569758  L 1.71003717472119 11.6601714731099  C 1.5910780669145 11.7433099506365  1.47211895910781 11.7796830345544  1.35315985130112 11.7692907248636  C 1.22428748451053 11.7485061054819  1.12019826517968 11.6913484021824  1.04089219330855 11.5978176149649  L 0.118959107806691 10.4442712392829  C 0.0396530359355638 10.3403481423746  0.00495662949194551 10.2182385035074  0.0148698884758364 10.0779423226812  C 0.0247831474597275 9.93764614185503  0.0793060718711277 9.82592881267862  0.178438661710037 9.74279033515199  L 10.8698884758364 0.405300077942323  C 11.1871127633209 0.135100025980772  11.5638166047088 0  12 0  C 12.4361833952912 0  12.8128872366791 0.135100025980772  13.1301115241636 0.405300077942323  L 16.7583643122677 3.58534684333593  L 16.7583643122677 0.54559625876851  C 16.7583643122677 0.400103923096906  16.8029739776952 0.280592361652376  16.8921933085502 0.187061574434919  C 16.9814126394052 0.0935307872174596  17.09541511772 0.0467653936087298  17.2342007434944 0.0467653936087298  L 20.089219330855 0.0467653936087298  C 20.2280049566295 0.0467653936087298  20.3420074349442 0.0935307872174596  20.4312267657993 0.187061574434919  C 20.5204460966543 0.280592361652376  20.5650557620818 0.400103923096906  20.5650557620818 0.54559625876851  L 20.5650557620818 6.90568978955573  L 23.82156133829 9.74279033515199  C 23.9206939281289 9.82592881267862  23.9752168525403 9.93764614185503  23.9851301115242 10.0779423226812  Z " fill-rule="nonzero" fill="#000000" stroke="none" transform="matrix(1 0 0 1 168 632 )" />
  </g>
</svg>