<?xml version="1.0" encoding="utf-8"?>
<svg version="1.1" xmlns:xlink="http://www.w3.org/1999/xlink" width="34px" height="19px" xmlns="http://www.w3.org/2000/svg">
  <defs>
    <mask fill="white" id="clip2">
      <path d="M 10 19  C 4.40000000000001 19  0 14.82  0 9.5  C 0 4.17999999999998  4.40000000000001 0  10 0  L 24 0  C 29.6 0  34 4.17999999999998  34 9.5  C 34 14.82  29.6 19  24 19  L 14 19  L 10 19  Z " fill-rule="evenodd" />
    </mask>
  </defs>
  <g transform="matrix(1 0 0 1 -45 -355 )">
    <path d="M 10 19  C 4.40000000000001 19  0 14.82  0 9.5  C 0 4.17999999999998  4.40000000000001 0  10 0  L 24 0  C 29.6 0  34 4.17999999999998  34 9.5  C 34 14.82  29.6 19  24 19  L 14 19  L 10 19  Z " fill-rule="nonzero" fill="#f5f5dc" stroke="none" transform="matrix(1 0 0 1 45 355 )" />
    <path d="M 10 19  C 4.40000000000001 19  0 14.82  0 9.5  C 0 4.17999999999998  4.40000000000001 0  10 0  L 24 0  C 29.6 0  34 4.17999999999998  34 9.5  C 34 14.82  29.6 19  24 19  L 14 19  L 10 19  Z " stroke-width="2" stroke="#797979" fill="none" transform="matrix(1 0 0 1 45 355 )" mask="url(#clip2)" />
  </g>
</svg>