<?xml version="1.0" encoding="utf-8"?>
<svg version="1.1" xmlns:xlink="http://www.w3.org/1999/xlink" width="20px" height="18px" xmlns="http://www.w3.org/2000/svg">
  <g transform="matrix(1 0 0 1 -267 -11 )">
    <path d="M 11.3195991091314 15.1280048076923  C 11.3901262063846 15.0594951923077  11.4253897550111 14.9747596153846  11.4253897550111 14.8737980769231  L 11.4253897550111 12.8185096153846  C 11.4253897550111 12.7175480769231  11.3901262063846 12.6328125  11.3195991091314 12.5643028846154  C 11.2490720118782 12.4957932692308  11.1655530809206 12.4615384615385  11.0690423162584 12.4615384615385  L 8.93095768374165 12.4615384615385  C 8.83444691907944 12.4615384615385  8.75092798812175 12.4957932692308  8.6804008908686 12.5643028846154  C 8.60987379361544 12.6328125  8.57461024498886 12.7175480769231  8.57461024498886 12.8185096153846  L 8.57461024498886 14.8737980769231  C 8.57461024498886 14.9747596153846  8.60987379361544 15.0594951923077  8.6804008908686 15.1280048076923  C 8.75092798812175 15.1965144230769  8.83444691907944 15.2307692307692  8.93095768374165 15.2307692307692  L 11.0690423162584 15.2307692307692  C 11.1655530809206 15.2307692307692  11.2490720118782 15.1965144230769  11.3195991091314 15.1280048076923  Z M 11.2861915367483 11.0066105769231  C 11.3567186340015 10.9597355769231  11.3956941351151 10.9002403846154  11.4031180400891 10.828125  L 11.6035634743875 5.86298076923077  C 11.6035634743875 5.77644230769231  11.5664439495174 5.70793269230769  11.4922048997773 5.65745192307692  C 11.3956941351151 5.578125  11.3066072754269 5.53846153846154  11.2249443207127 5.53846153846154  L 8.77505567928731 5.53846153846154  C 8.69339272457313 5.53846153846154  8.60430586488493 5.578125  8.50779510022272 5.65745192307692  C 8.43355605048255 5.70793269230769  8.39643652561247 5.78365384615384  8.39643652561247 5.88461538461538  L 8.58574610244989 10.828125  C 8.58574610244989 10.9002403846154  8.62286562731997 10.9597355769231  8.69710467706013 11.0066105769231  C 8.7713437268003 11.0534855769231  8.86043058648849 11.0769230769231  8.96436525612472 11.0769230769231  L 11.0244988864143 11.0769230769231  C 11.1284335560505 11.0769230769231  11.2156644394952 11.0534855769231  11.2861915367483 11.0066105769231  Z M 10.7238307349666 0.194711538461539  C 10.9465478841871 0.324519230769231  11.1210096510765 0.501201923076922  11.2472160356347 0.724759615384616  L 19.7995545657016 15.9555288461538  C 20.0593912397921 16.4098557692308  20.0519673348181 16.8641826923077  19.7772828507795 17.3185096153846  C 19.6510764662212 17.5276442307692  19.4784706755754 17.6935096153846  19.2594654788419 17.8161057692308  C 19.0404602821084 17.9387019230769  18.8047512991834 18  18.5523385300668 18  L 1.44766146993318 18  C 1.19524870081663 18  0.959539717891611 17.9387019230769  0.740534521158129 17.8161057692308  C 0.521529324424647 17.6935096153846  0.348923533778768 17.5276442307692  0.22271714922049 17.3185096153846  C -0.0519673348181143 16.8641826923077  -0.0593912397921307 16.4098557692308  0.200445434298441 15.9555288461538  L 8.75278396436526 0.724759615384616  C 8.87899034892354 0.501201923076922  9.05345211581292 0.324519230769231  9.27616926503341 0.194711538461539  C 9.4988864142539 0.0649038461538469  9.74016332590943 0  10 0  C 10.2598366740906 0  10.5011135857461 0.0649038461538469  10.7238307349666 0.194711538461539  Z " fill-rule="nonzero" fill="#7f7f7f" stroke="none" transform="matrix(1 0 0 1 267 11 )" />
  </g>
</svg>