<?xml version="1.0" encoding="utf-8"?>
<svg version="1.1" xmlns:xlink="http://www.w3.org/1999/xlink" width="46px" height="46px" xmlns="http://www.w3.org/2000/svg">
  <g transform="matrix(1 0 0 1 -294 -596 )">
    <path d="M 45.9019886363636 35.6434659090909  C 45.9673295454545 35.795928030303  46 36.0246212121212  46 36.3295454545455  C 46 36.9176136363636  45.8910984848485 37.6853693181818  45.6732954545455 38.6328125  C 45.4554924242424 39.5802556818182  45.2267992424242 40.3262310606061  44.9872159090909 40.8707386363636  C 44.5298295454545 41.9597537878788  43.2012310606061 43.1141098484849  41.0014204545455 44.3338068181818  C 38.954071969697 45.4446022727273  36.9285037878788 46  34.9247159090909 46  C 34.3366477272727 46  33.7594696969697 45.961884469697  33.1931818181818 45.8856534090909  C 32.6268939393939 45.8094223484849  32.0007102272727 45.6732954545455  31.3146306818182 45.4772727272727  C 30.6285511363636 45.28125  30.1167140151515 45.1233428030303  29.7791193181818 45.0035511363636  C 29.4415246212121 44.883759469697  28.8371212121212 44.6605113636364  27.9659090909091 44.3338068181818  C 27.094696969697 44.0071022727273  26.5610795454546 43.8110795454545  26.3650568181818 43.7457386363636  C 24.2305871212121 42.983428030303  22.3248106060606 42.0795454545455  20.6477272727273 41.0340909090909  C 17.8816287878788 39.313446969697  15.0066287878788 36.9611742424242  12.0227272727273 33.9772727272727  C 9.03882575757576 30.9933712121212  6.68655303030303 28.1183712121212  4.96590909090909 25.3522727272727  C 3.92045454545455 23.6751893939394  3.01657196969697 21.7694128787879  2.25426136363636 19.6349431818182  C 2.18892045454545 19.4389204545455  1.99289772727273 18.905303030303  1.66619318181818 18.0340909090909  C 1.33948863636364 17.1628787878788  1.11624053030303 16.5584753787879  0.996448863636364 16.2208806818182  C 0.876657196969697 15.8832859848485  0.71875 15.3714488636364  0.522727272727273 14.6853693181818  C 0.326704545454545 13.9992897727273  0.190577651515152 13.3731060606061  0.114346590909091 12.8068181818182  C 0.0381155303030303 12.2405303030303  0 11.6633522727273  0 11.0752840909091  C 0 9.07149621212121  0.555397727272727 7.04592803030303  1.66619318181818 4.99857954545455  C 2.88589015151515 2.79876893939393  4.04024621212121 1.47017045454546  5.12926136363636 1.01278409090909  C 5.67376893939394 0.773200757575754  6.41974431818182 0.544507575757571  7.3671875 0.326704545454545  C 8.31463068181818 0.108901515151513  9.08238636363636 0  9.67045454545455 0  C 9.97537878787879 0  10.204071969697 0.0326704545454555  10.3565340909091 0.0980113636363613  C 10.7485795454545 0.228693181818183  11.3257575757576 1.0563446969697  12.0880681818182 2.58096590909091  C 12.3276515151515 2.99479166666666  12.6543560606061 3.58285984848484  13.0681818181818 4.34517045454546  C 13.4820075757576 5.10748106060606  13.8631628787879 5.79900568181818  14.2116477272727 6.41974431818182  C 14.5601325757576 7.04048295454546  14.8977272727273 7.62310606060606  15.2244318181818 8.16761363636364  C 15.2897727272727 8.25473484848484  15.4803503787879 8.52698863636364  15.7961647727273 8.984375  C 16.1119791666667 9.44176136363636  16.3461174242424 9.82836174242424  16.4985795454545 10.1441761363636  C 16.6510416666667 10.459990530303  16.7272727272727 10.7703598484848  16.7272727272727 11.0752840909091  C 16.7272727272727 11.5108901515151  16.4169034090909 12.0553977272727  15.7961647727273 12.7088068181818  C 15.1754261363636 13.3622159090909  14.5002367424242 13.9611742424242  13.7705965909091 14.5056818181818  C 13.0409564393939 15.0501893939394  12.3657670454545 15.6273674242424  11.7450284090909 16.2372159090909  C 11.1242897727273 16.8470643939394  10.8139204545455 17.3480113636364  10.8139204545455 17.7400568181818  C 10.8139204545455 17.9360795454545  10.8683712121212 18.1811079545455  10.9772727272727 18.4751420454545  C 11.0861742424242 18.7691761363636  11.178740530303 18.9924242424242  11.2549715909091 19.1448863636364  C 11.3312026515152 19.2973484848485  11.4836647727273 19.5587121212121  11.7123579545455 19.9289772727273  C 11.9410511363636 20.2992424242424  12.0662878787879 20.5061553030303  12.0880681818182 20.5497159090909  C 13.7433712121212 23.5336174242424  15.6382575757576 26.092803030303  17.7727272727273 28.2272727272727  C 19.907196969697 30.3617424242424  22.4663825757576 32.2566287878788  25.4502840909091 33.9119318181818  C 25.4938446969697 33.9337121212121  25.7007575757576 34.0589488636364  26.0710227272727 34.2876420454545  C 26.4412878787879 34.5163352272727  26.7026515151515 34.6687973484848  26.8551136363636 34.7450284090909  C 27.0075757575758 34.821259469697  27.2308238636364 34.9138257575758  27.5248579545455 35.0227272727273  C 27.8188920454545 35.1316287878788  28.0639204545455 35.1860795454545  28.2599431818182 35.1860795454545  C 28.6519886363636 35.1860795454545  29.1529356060606 34.8757102272727  29.7627840909091 34.2549715909091  C 30.3726325757576 33.6342329545455  30.9498106060606 32.9590435606061  31.4943181818182 32.2294034090909  C 32.0388257575758 31.4997632575758  32.6377840909091 30.8245738636364  33.2911931818182 30.2038352272727  C 33.9446022727273 29.5830965909091  34.4891098484849 29.2727272727273  34.9247159090909 29.2727272727273  C 35.2296401515152 29.2727272727273  35.540009469697 29.3489583333333  35.8558238636364 29.5014204545455  C 36.1716382575758 29.6538825757576  36.5582386363636 29.8880208333333  37.015625 30.2038352272727  C 37.4730113636364 30.5196496212121  37.7452651515152 30.7102272727273  37.8323863636364 30.7755681818182  C 38.3768939393939 31.1022727272727  38.9595170454545 31.4398674242424  39.5802556818182 31.7883522727273  C 40.2009943181818 32.1368371212121  40.8925189393939 32.5179924242424  41.6548295454545 32.9318181818182  C 42.4171401515152 33.3456439393939  43.0052083333333 33.6723484848485  43.4190340909091 33.9119318181818  C 44.9436553030303 34.6742424242424  45.7713068181818 35.2514204545455  45.9019886363636 35.6434659090909  Z " fill-rule="nonzero" fill="#ffffff" stroke="none" transform="matrix(1 0 0 1 294 596 )" />
  </g>
</svg>