<?xml version="1.0" encoding="utf-8"?>
<svg version="1.1" xmlns:xlink="http://www.w3.org/1999/xlink" width="24px" height="18px" xmlns="http://www.w3.org/2000/svg">
  <g transform="matrix(1 0 0 1 -231 -425 )">
    <path d="M 10.8028846153846 1.54430379746835  C 10.9855769230769 1.70464135021097  11.0769230769231 1.89451476793249  11 2.11392405063291  L 11 15.8860759493671  C 11.0769230769231 16.1054852320675  10.9855769230769 16.295358649789  10.8028846153846 16.4556962025316  C 10.6201923076923 16.6160337552743  10.4038461538462 16.6962025316456  10.1538461538462 16.6962025316456  C 9.90384615384616 16.6962025316456  9.6875 16.6160337552743  9.50480769230769 16.4556962025316  L 4.70192307692308 12.2405063291139  L 0.923076923076923 12.2405063291139  C 0.673076923076923 12.2405063291139  0.456730769230769 12.1603375527426  0.274038461538462 12  C 0.0913461538461538 11.8396624472574  0 11.6497890295359  0 11.4303797468354  L 0 6.56962025316456  C 0 6.35021097046413  0.0913461538461538 6.16033755274261  0.274038461538462 6  C 0.456730769230769 5.83966244725738  0.673076923076923 5.75949367088608  0.923076923076923 5.75949367088608  L 4.70192307692308 5.75949367088608  L 9.50480769230769 1.54430379746835  C 9.6875 1.38396624472574  9.90384615384616 1.30379746835443  10.1538461538462 1.30379746835443  C 10.4038461538462 1.30379746835443  10.6201923076923 1.38396624472574  10.8028846153846 1.54430379746835  Z M 16.0024038461538 7.20253164556962  C 16.4110576923077 7.75949367088608  16.6153846153846 8.35864978902953  16.6153846153846 9  C 16.6153846153846 9.64135021097046  16.4110576923077 10.2383966244726  16.0024038461538 10.7911392405063  C 15.59375 11.3438818565401  15.0528846153846 11.7383966244726  14.3798076923077 11.9746835443038  C 14.2836538461539 12.0168776371308  14.1634615384615 12.0379746835443  14.0192307692308 12.0379746835443  C 13.7692307692308 12.0379746835443  13.5528846153846 11.9599156118143  13.3701923076923 11.8037974683544  C 13.1875 11.6476793248945  13.0961538461538 11.4556962025316  13.0961538461538 11.2278481012658  C 13.0961538461538 11.0506329113924  13.1538461538462 10.9008438818565  13.2692307692308 10.7784810126582  C 13.3846153846154 10.6561181434599  13.5240384615385 10.5506329113924  13.6875 10.4620253164557  C 13.8509615384615 10.373417721519  14.0144230769231 10.2763713080169  14.1778846153846 10.1708860759494  C 14.3413461538462 10.0654008438819  14.4807692307692 9.91350210970464  14.5961538461538 9.71518987341772  C 14.7115384615385 9.5168776371308  14.7692307692308 9.27848101265823  14.7692307692308 9  C 14.7692307692308 8.72151898734177  14.7115384615385 8.4831223628692  14.5961538461538 8.28481012658228  C 14.4807692307692 8.08649789029536  14.3413461538462 7.93459915611814  14.1778846153846 7.82911392405063  C 14.0144230769231 7.72362869198312  13.8509615384615 7.62658227848101  13.6875 7.5379746835443  C 13.5240384615385 7.44936708860759  13.3846153846154 7.34388185654008  13.2692307692308 7.22151898734177  C 13.1538461538462 7.09915611814346  13.0961538461538 6.94936708860759  13.0961538461538 6.77215189873418  C 13.0961538461538 6.54430379746835  13.1875 6.35232067510548  13.3701923076923 6.19620253164557  C 13.5528846153846 6.04008438818565  13.7692307692308 5.9620253164557  14.0192307692308 5.9620253164557  C 14.1634615384615 5.9620253164557  14.2836538461539 5.9831223628692  14.3798076923077 6.0253164556962  C 15.0528846153846 6.25316455696203  15.59375 6.64556962025317  16.0024038461538 7.20253164556962  Z M 19.0817307692308 5.42405063291139  C 19.8990384615385 6.5168776371308  20.3076923076923 7.70886075949367  20.3076923076923 9  C 20.3076923076923 10.2911392405063  19.8990384615385 11.4831223628692  19.0817307692308 12.5759493670886  C 18.2644230769231 13.668776371308  17.1826923076923 14.464135021097  15.8365384615385 14.9620253164557  C 15.7115384615385 15.0042194092827  15.5913461538462 15.0253164556962  15.4759615384615 15.0253164556962  C 15.2163461538462 15.0253164556962  14.9951923076923 14.9451476793249  14.8125 14.7848101265823  C 14.6298076923077 14.6244725738397  14.5384615384615 14.4345991561181  14.5384615384615 14.2151898734177  C 14.5384615384615 13.8860759493671  14.7259615384615 13.6371308016878  15.1009615384615 13.4683544303797  C 15.6394230769231 13.2236286919831  16.0048076923077 13.0379746835443  16.1971153846154 12.9113924050633  C 16.9086538461539 12.4556962025316  17.4639423076923 11.8839662447257  17.8629807692308 11.1962025316456  C 18.2620192307692 10.5084388185654  18.4615384615385 9.77637130801688  18.4615384615385 9  C 18.4615384615385 8.22362869198312  18.2620192307692 7.4915611814346  17.8629807692308 6.80379746835443  C 17.4639423076923 6.11603375527426  16.9086538461539 5.54430379746835  16.1971153846154 5.08860759493671  C 16.0048076923077 4.9620253164557  15.6394230769231 4.77637130801688  15.1009615384615 4.53164556962025  C 14.7259615384615 4.36286919831224  14.5384615384615 4.11392405063291  14.5384615384615 3.78481012658228  C 14.5384615384615 3.56540084388185  14.6298076923077 3.37552742616034  14.8125 3.21518987341772  C 14.9951923076923 3.05485232067511  15.2115384615385 2.9746835443038  15.4615384615385 2.9746835443038  C 15.5865384615385 2.9746835443038  15.7115384615385 2.9957805907173  15.8365384615385 3.0379746835443  C 17.1826923076923 3.53586497890295  18.2644230769231 4.33122362869198  19.0817307692308 5.42405063291139  Z M 22.1682692307692 3.65189873417722  C 23.3894230769231 5.27637130801688  24 7.0590717299578  24 9  C 24 10.9409282700422  23.3894230769231 12.7236286919831  22.1682692307692 14.3481012658228  C 20.9471153846154 15.9725738396624  19.3221153846154 17.168776371308  17.2932692307692 17.9367088607595  C 17.1682692307692 17.9789029535865  17.0432692307692 18  16.9182692307692 18  C 16.6682692307692 18  16.4519230769231 17.9198312236287  16.2692307692308 17.7594936708861  C 16.0865384615385 17.5991561181435  15.9951923076923 17.4092827004219  15.9951923076923 17.1898734177215  C 15.9951923076923 16.8860759493671  16.1826923076923 16.6371308016878  16.5576923076923 16.4430379746835  C 16.625 16.4092827004219  16.7331730769231 16.3649789029536  16.8822115384615 16.3101265822785  C 17.03125 16.2552742616034  17.1394230769231 16.210970464135  17.2067307692308 16.1772151898734  C 17.6490384615385 15.9662447257384  18.0432692307692 15.7510548523207  18.3894230769231 15.5316455696203  C 19.5721153846154 14.7637130801688  20.4951923076923 13.8059071729958  21.1586538461538 12.6582278481013  C 21.8221153846154 11.5105485232068  22.1538461538462 10.2911392405063  22.1538461538462 9  C 22.1538461538462 7.70886075949367  21.8221153846154 6.48945147679325  21.1586538461538 5.34177215189873  C 20.4951923076923 4.19409282700422  19.5721153846154 3.23628691983122  18.3894230769231 2.46835443037975  C 18.0432692307692 2.24894514767932  17.6490384615385 2.0337552742616  17.2067307692308 1.82278481012658  C 17.1394230769231 1.78902953586498  17.03125 1.74472573839662  16.8822115384615 1.68987341772152  C 16.7331730769231 1.63502109704641  16.625 1.59071729957806  16.5576923076923 1.55696202531646  C 16.1826923076923 1.36286919831223  15.9951923076923 1.11392405063291  15.9951923076923 0.810126582278482  C 15.9951923076923 0.590717299578057  16.0865384615385 0.400843881856538  16.2692307692308 0.240506329113924  C 16.4519230769231 0.0801687763713073  16.6682692307692 0  16.9182692307692 0  C 17.0432692307692 0  17.1682692307692 0.021097046413501  17.2932692307692 0.0632911392405069  C 19.3221153846154 0.831223628691981  20.9471153846154 2.02742616033755  22.1682692307692 3.65189873417722  Z " fill-rule="nonzero" fill="#000000" stroke="none" transform="matrix(1 0 0 1 231 425 )" />
  </g>
</svg>