<?xml version="1.0" encoding="utf-8"?>
<svg version="1.1" xmlns:xlink="http://www.w3.org/1999/xlink" width="17px" height="14px" xmlns="http://www.w3.org/2000/svg">
  <g transform="matrix(1 0 0 1 -203 -681 )">
    <path d="M 16.7897135416667 11.4078125  C 16.9299045138889 11.5463541666667  17 11.7104166666667  17 11.9  L 17 13.3  C 17 13.4895833333333  16.9299045138889 13.6536458333333  16.7897135416667 13.7921875  C 16.6495225694444 13.9307291666667  16.4835069444444 14  16.2916666666667 14  L 0.708333333333333 14  C 0.516493055555556 14  0.350477430555556 13.9307291666667  0.210286458333333 13.7921875  C 0.0700954861111111 13.6536458333333  0 13.4895833333333  0 13.3  L 0 11.9  C 0 11.7104166666667  0.0700954861111111 11.5463541666667  0.210286458333333 11.4078125  C 0.350477430555556 11.2692708333333  0.516493055555556 11.2  0.708333333333333 11  L 16.2916666666667 11  C 16.4835069444444 11.2  16.6495225694444 11.2692708333333  16.7897135416667 11.4078125  Z M 16.7897135416667 5.8078125  C 16.9299045138889 5.94635416666667  17 6.11041666666667  17 6.3  L 17 7.7  C 17 7.88958333333333  16.9299045138889 8.05364583333333  16.7897135416667 8.1921875  C 16.6495225694444 8.33072916666667  16.4835069444444 8.4  16.2916666666667 8.4  L 0.708333333333333 8.4  C 0.516493055555556 8.4  0.350477430555556 8.33072916666667  0.210286458333333 8.1921875  C 0.0700954861111111 8.05364583333333  0 7.88958333333333  0 7.7  L 0 6.3  C 0 6.11041666666667  0.0700954861111111 5.94635416666667  0.210286458333333 5.8078125  C 0.350477430555556 5.66927083333333  0.516493055555556 5.6  0.708333333333333 5.6  L 16.2916666666667 5.6  C 16.4835069444444 5.6  16.6495225694444 5.66927083333333  16.7897135416667 5.8078125  Z M 16.7897135416667 0.207812500000001  C 16.9299045138889 0.346354166666666  17 0.510416666666666  17 0.700000000000001  L 17 2.1  C 17 2.28958333333333  16.9299045138889 2.45364583333333  16.7897135416667 2.5921875  C 16.6495225694444 2.73072916666667  16.4835069444444 2.8  16.2916666666667 3  L 0.708333333333333 3  C 0.516493055555556 2.8  0.350477430555556 2.73072916666667  0.210286458333333 2.5921875  C 0.0700954861111111 2.45364583333333  0 2.28958333333333  0 2.1  L 0 0.700000000000001  C 0 0.510416666666666  0.0700954861111111 0.346354166666666  0.210286458333333 0.207812500000001  C 0.350477430555556 0.0692708333333325  0.516493055555556 0  0.708333333333333 0  L 16.2916666666667 0  C 16.4835069444444 0  16.6495225694444 0.0692708333333325  16.7897135416667 0.207812500000001  Z " fill-rule="nonzero" fill="#333333" stroke="none" transform="matrix(1 0 0 1 203 681 )" />
  </g>
</svg>