<?xml version="1.0" encoding="utf-8"?>
<svg version="1.1" xmlns:xlink="http://www.w3.org/1999/xlink" width="29px" height="28px" xmlns="http://www.w3.org/2000/svg">
  <g transform="matrix(1 0 0 1 -61 -474 )">
    <path d="M 13.52466367713 21  L 14.4349775784753 21  L 16.3206278026906 18.6931818181818  L 13.8497757847534 15.6704545454545  L 11.9641255605381 17.9772727272727  L 11.9641255605381 19.0909090909091  L 13.52466367713 19.0909090909091  L 13.52466367713 21  Z M 21.5711883408072 7.33806818181818  C 21.7554185351271 7.11268939393939  21.7608370702541 6.89393939393939  21.5874439461883 6.68181818181818  C 21.4140508221226 6.46969696969697  21.2352391629297 6.47632575757576  21.0510089686099 6.70170454545455  L 15.3615470852018 13.6619318181818  C 15.1773168908819 13.8873106060606  15.1718983557549 14.1060606060606  15.3452914798206 14.3181818181818  C 15.5186846038864 14.530303030303  15.6974962630792 14.5236742424242  15.8817264573991 14.2982954545455  L 21.5711883408072 7.33806818181818  Z M 22.5627802690583 17.9176136363636  C 22.7795216741405 18.0236742424242  22.8878923766816 18.2159090909091  22.8878923766816 18.4943181818182  L 22.8878923766816 22.2727272727273  C 22.8878923766816 23.8503787878788  22.4300261584454 25.1993371212121  21.5142937219731 26.3196022727273  C 20.5985612855008 27.4398674242424  19.495889387145 28  18.2062780269058 28  L 4.68161434977578 28  C 3.39200298953662 28  2.28933109118087 27.4398674242424  1.37359865470852 26.3196022727273  C 0.457866218236173 25.1993371212121  0 23.8503787878788  0 22.2727272727273  L 0 5.72727272727273  C 0 4.14962121212121  0.457866218236173 2.80066287878788  1.37359865470852 1.68039772727273  C 2.28933109118087 0.560132575757573  3.39200298953662 0  4.68161434977578 0  L 18.2062780269058 0  C 18.8890134529148 0  19.5229820627803 0.165719696969695  20.1081838565022 0.49715909090909  C 20.2707399103139 0.589962121212119  20.3682735426009 0.742424242424242  20.4007847533632 0.954545454545454  C 20.4332959641256 1.17992424242424  20.3845291479821 1.37215909090909  20.2544843049327 1.53125  L 19.4579596412556 2.50568181818182  C 19.3062406576981 2.69128787878788  19.1328475336323 2.74431818181818  18.9377802690583 2.66477272727273  C 18.6885276532138 2.58522727272727  18.4446935724963 2.54545454545455  18.2062780269058 3  L 4.68161434977578 3  C 3.96636771300448 2.54545454545455  3.35407324364724 2.85700757575757  2.84473094170404 3.48011363636364  C 2.33538863976084 4.1032196969697  2.08071748878924 4.85227272727273  2 5.72727272727273  L 2 22.2727272727273  C 2.08071748878924 23.1477272727273  2.33538863976084 23.8967803030303  2.84473094170404 24.5198863636364  C 3.35407324364724 25.1429924242424  3.96636771300448 25.4545454545455  4.68161434977578 25  L 18.2062780269058 25  C 18.9215246636771 25.4545454545455  19.5338191330344 25.1429924242424  20.0431614349776 24.5198863636364  C 20.5525037369208 23.8967803030303  20.8071748878924 23.1477272727273  20.8071748878924 22.2727272727273  L 20.8071748878924 19.7670454545455  C 20.8071748878924 19.594696969697  20.8559417040359 19.4488636363636  20.9534753363229 19.3295454545455  L 21.9938340807175 18.0568181818182  C 22.1563901345291 17.8579545454545  22.3460388639761 17.811553030303  22.5627802690583 17.9176136363636  Z M 10.4035874439462 17.1818181818182  L 21.3273542600897 3.81818181818182  L 26.0089686098655 9.54545454545455  L 15.085201793722 22.9090909090909  L 10.4035874439462 22.9090909090909  L 10.4035874439462 17.1818181818182  Z M 29 5.09090909090909  C 29 5.62121212121212  28.8482810164425 6.0719696969697  28.5448430493274 6.44318181818182  L 27.0493273542601 8.27272727272727  L 22.3677130044843 2.54545454545455  L 23.8632286995516 0.71590909090909  C 24.1666666666667 0.344696969696967  24.5351270553064 0.159090909090911  24.9686098654709 0.159090909090911  C 25.4020926756353 0.159090909090911  25.770553064275 0.344696969696967  26.0739910313901 0.71590909090909  L 28.5448430493274 3.73863636363636  C 28.8482810164425 4.10984848484848  29 4.56060606060606  29 5.09090909090909  Z " fill-rule="nonzero" fill="#000000" stroke="none" transform="matrix(1 0 0 1 61 474 )" />
  </g>
</svg>