<?xml version="1.0" encoding="utf-8"?>
<svg version="1.1" xmlns:xlink="http://www.w3.org/1999/xlink" width="20px" height="15px" xmlns="http://www.w3.org/2000/svg">
  <g transform="matrix(1 0 0 1 -236 -371 )">
    <path d="M 11.3195991091314 12.6066706730769  C 11.3901262063846 12.5495793269231  11.4253897550111 12.4789663461538  11.4253897550111 12.3948317307692  L 11.4253897550111 10.6820913461538  C 11.4253897550111 10.5979567307692  11.3901262063846 10.52734375  11.3195991091314 10.4702524038462  C 11.2490720118782 10.4131610576923  11.1655530809206 10.3846153846154  11.0690423162584 10.3846153846154  L 8.93095768374165 10.3846153846154  C 8.83444691907944 10.3846153846154  8.75092798812175 10.4131610576923  8.6804008908686 10.4702524038462  C 8.60987379361544 10.52734375  8.57461024498886 10.5979567307692  8.57461024498886 10.6820913461538  L 8.57461024498886 12.3948317307692  C 8.57461024498886 12.4789663461538  8.60987379361544 12.5495793269231  8.6804008908686 12.6066706730769  C 8.75092798812175 12.6637620192308  8.83444691907944 12.6923076923077  8.93095768374165 12.6923076923077  L 11.0690423162584 12.6923076923077  C 11.1655530809206 12.6923076923077  11.2490720118782 12.6637620192308  11.3195991091314 12.6066706730769  Z M 11.2861915367483 9.17217548076923  C 11.3567186340015 9.13311298076923  11.3956941351151 9.08353365384615  11.4031180400891 9.0234375  L 11.6035634743875 4.88581730769231  C 11.6035634743875 4.81370192307692  11.5664439495174 4.75661057692308  11.4922048997773 4.71454326923077  C 11.3956941351151 4.6484375  11.3066072754269 4.61538461538462  11.2249443207127 4.61538461538462  L 8.77505567928731 4.61538461538462  C 8.69339272457313 4.61538461538462  8.60430586488493 4.6484375  8.50779510022272 4.71454326923077  C 8.43355605048255 4.75661057692308  8.39643652561247 4.81971153846154  8.39643652561247 4.90384615384615  L 8.58574610244989 9.0234375  C 8.58574610244989 9.08353365384615  8.62286562731997 9.13311298076923  8.69710467706013 9.17217548076923  C 8.7713437268003 9.21123798076923  8.86043058648849 9.23076923076923  8.96436525612472 9.23076923076923  L 11.0244988864143 9.23076923076923  C 11.1284335560505 9.23076923076923  11.2156644394952 9.21123798076923  11.2861915367483 9.17217548076923  Z M 10.7238307349666 0.162259615384616  C 10.9465478841871 0.270432692307692  11.1210096510765 0.417668269230768  11.2472160356347 0.603966346153847  L 19.7995545657016 13.2962740384615  C 20.0593912397921 13.6748798076923  20.0519673348181 14.0534855769231  19.7772828507795 14.4320913461538  C 19.6510764662212 14.6063701923077  19.4784706755754 14.7445913461538  19.2594654788419 14.8467548076923  C 19.0404602821084 14.9489182692308  18.8047512991834 15  18.5523385300668 15  L 1.44766146993318 15  C 1.19524870081663 15  0.959539717891611 14.9489182692308  0.740534521158129 14.8467548076923  C 0.521529324424647 14.7445913461538  0.348923533778768 14.6063701923077  0.22271714922049 14.4320913461538  C -0.0519673348181143 14.0534855769231  -0.0593912397921307 13.6748798076923  0.200445434298441 13.2962740384615  L 8.75278396436526 0.603966346153847  C 8.87899034892354 0.417668269230768  9.05345211581292 0.270432692307692  9.27616926503341 0.162259615384616  C 9.4988864142539 0.0540865384615391  9.74016332590943 0  10 0  C 10.2598366740906 0  10.5011135857461 0.0540865384615391  10.7238307349666 0.162259615384616  Z " fill-rule="nonzero" fill="#d9001b" stroke="none" transform="matrix(1 0 0 1 236 371 )" />
  </g>
</svg>