<?xml version="1.0" encoding="utf-8"?>
<svg version="1.1" xmlns:xlink="http://www.w3.org/1999/xlink" width="17px" height="15px" xmlns="http://www.w3.org/2000/svg">
  <g transform="matrix(1 0 0 1 -428 -185 )">
    <path d="M 13.065034965035 7.5  L 16.2272727272727 9.00390625  C 16.5918414918415 9.17317708333333  16.8276223776224 9.42545572916666  16.9346153846154 9.7607421875  C 17.0416083916084 10.0960286458333  16.9920745920746 10.4134114583333  16.786013986014 10.712890625  L 16.0251748251748 11.787109375  C 15.8191142191142 12.0865885416667  15.5120046620047 12.2802734375  15.1038461538462 12.3681640625  C 14.6956876456876 12.4560546875  14.309324009324 12.4153645833333  13.9447552447552 12.24609375  L 10.7825174825175 10.751953125  L 10.7825174825175 13.75  C 10.7825174825175 14.0885416666667  10.6319347319347 14.3815104166667  10.3307692307692 14.62890625  C 10.0296037296037 14.8763020833333  9.67296037296037 15  9.26083916083916 15  L 7.73916083916084 15  C 7.32703962703963 15  6.97039627039627 14.8763020833333  6.66923076923077 14.62890625  C 6.36806526806527 14.3815104166667  6.21748251748252 14.0885416666667  6.21748251748252 13.75  L 6.21748251748252 10.751953125  L 3.05524475524475 12.24609375  C 2.69067599067599 12.4153645833333  2.30431235431235 12.4560546875  1.89615384615385 12.3681640625  C 1.48799533799534 12.2802734375  1.18088578088578 12.0865885416667  0.974825174825175 11.787109375  L 0.213986013986014 10.712890625  C 0.00792540792540798 10.4134114583333  -0.0416083916083916 10.0960286458333  0.0653846153846154 9.7607421875  C 0.172377622377622 9.42545572916666  0.408158508158508 9.17317708333333  0.772727272727273 9.00390625  L 3.93496503496503 7.5  L 0.772727272727273 5.99609375  C 0.408158508158508 5.82682291666667  0.172377622377622 5.57454427083333  0.0653846153846154 5.2392578125  C -0.0416083916083916 4.90397135416667  0.00792540792540798 4.58658854166666  0.213986013986014 4.287109375  L 0.974825174825175 3.212890625  C 1.18088578088578 2.91341145833333  1.48799533799534 2.7197265625  1.89615384615385 2.6318359375  C 2.30431235431235 2.5439453125  2.69067599067599 2.58463541666667  3.05524475524475 2.75390625  L 6.21748251748252 4.248046875  L 6.21748251748252 1.25  C 6.21748251748252 0.911458333333333  6.36806526806527 0.618489583333333  6.66923076923077 0.371093750000001  C 6.97039627039627 0.123697916666665  7.32703962703963 0  7.73916083916084 0  L 9.26083916083916 0  C 9.67296037296037 0  10.0296037296037 0.123697916666665  10.3307692307692 0.371093750000001  C 10.6319347319347 0.618489583333333  10.7825174825175 0.911458333333333  10.7825174825175 1.25  L 10.7825174825175 4.248046875  L 13.9447552447552 2.75390625  C 14.309324009324 2.58463541666667  14.6956876456876 2.5439453125  15.1038461538462 2.6318359375  C 15.5120046620047 2.7197265625  15.8191142191142 2.91341145833333  16.0251748251748 3.212890625  L 16.786013986014 4.287109375  C 16.9920745920746 4.58658854166666  17.0416083916084 4.90397135416667  16.9346153846154 5.2392578125  C 16.8276223776224 5.57454427083333  16.5918414918415 5.82682291666667  16.2272727272727 5.99609375  L 13.065034965035 7.5  Z " fill-rule="nonzero" fill="#ff7a48" stroke="none" transform="matrix(1 0 0 1 428 185 )" />
  </g>
</svg>