<?xml version="1.0" encoding="utf-8"?>
<svg version="1.1" xmlns:xlink="http://www.w3.org/1999/xlink" width="36px" height="22px" xmlns="http://www.w3.org/2000/svg">
  <g transform="matrix(1 0 0 1 -775 -833 )">
    <path d="M 19.5380859375 14.41171875  C 20.0126953125 13.32890625  20.25 12.1916666666667  20.25 11  C 20.25 9.80833333333333  20.0126953125 8.67109375  19.5380859375 7.58828125  C 19.0634765625 6.50546875  18.421875 5.56875  17.61328125 4.778125  C 16.8046875 3.9875  15.8466796875 3.36015625  14.7392578125 2.89609375  C 13.6318359375 2.43203125  12.46875 2.2  11.25 2.2  C 10.03125 2.2  8.8681640625 2.43203125  7.7607421875 2.89609375  C 6.6533203125 3.36015625  5.6953125 3.9875  4.88671875 4.778125  C 4.078125 5.56875  3.4365234375 6.50546875  2.9619140625 7.58828125  C 2.4873046875 8.67109375  2.25 9.80833333333333  2.25 11  C 2.25 12.1916666666667  2.4873046875 13.32890625  2.9619140625 14.41171875  C 3.4365234375 15.49453125  4.078125 16.43125  4.88671875 17.221875  C 5.6953125 18.0125  6.6533203125 18.63984375  7.7607421875 19.10390625  C 8.8681640625 19.56796875  10.03125 19.8  11.25 19.8  C 12.46875 19.8  13.6318359375 19.56796875  14.7392578125 19.10390625  C 15.8466796875 18.63984375  16.8046875 18.0125  17.61328125 17.221875  C 18.421875 16.43125  19.0634765625 15.49453125  19.5380859375 14.41171875  Z M 33.0380859375 14.41171875  C 33.5126953125 13.32890625  33.75 12.1916666666667  33.75 11  C 33.75 9.80833333333333  33.5126953125 8.67109375  33.0380859375 7.58828125  C 32.5634765625 6.50546875  31.921875 5.56875  31.11328125 4.778125  C 30.3046875 3.9875  29.3466796875 3.36015625  28.2392578125 2.89609375  C 27.1318359375 2.43203125  25.96875 2.2  24.75 2.2  L 17.96484375 2.2  C 19.359375 3.23125  20.4638671875 4.51458333333333  21.2783203125 6.05  C 22.0927734375 7.58541666666667  22.5 9.23541666666666  22.5 11  C 22.5 12.7645833333333  22.0927734375 14.4145833333333  21.2783203125 15.95  C 20.4638671875 17.4854166666667  19.359375 18.76875  17.96484375 19.8  L 24.75 19.8  C 25.96875 19.8  27.1318359375 19.56796875  28.2392578125 19.10390625  C 29.3466796875 18.63984375  30.3046875 18.0125  31.11328125 17.221875  C 31.921875 16.43125  32.5634765625 15.49453125  33.0380859375 14.41171875  Z M 35.103515625 6.72890625  C 35.701171875 8.08671875  36 9.51041666666667  36 11  C 36 12.4895833333333  35.701171875 13.91328125  35.103515625 15.27109375  C 34.505859375 16.62890625  33.7060546875 17.79765625  32.7041015625 18.77734375  C 31.7021484375 19.75703125  30.5068359375 20.5390625  29.1181640625 21.1234375  C 27.7294921875 21.7078125  26.2734375 22  24.75 22  L 11.25 22  C 9.7265625 22  8.2705078125 21.7078125  6.8818359375 21.1234375  C 5.4931640625 20.5390625  4.2978515625 19.75703125  3.2958984375 18.77734375  C 2.2939453125 17.79765625  1.494140625 16.62890625  0.896484375 15.27109375  C 0.298828125 13.91328125  0 12.4895833333333  0 11  C 0 9.51041666666667  0.298828125 8.08671875  0.896484375 6.72890625  C 1.494140625 5.37109375  2.2939453125 4.20234375  3.2958984375 3.22265625  C 4.2978515625 2.24296875  5.4931640625 1.4609375  6.8818359375 0.876562499999999  C 8.2705078125 0.2921875  9.7265625 0  11.25 0  L 24.75 0  C 26.2734375 0  27.7294921875 0.2921875  29.1181640625 0.876562499999999  C 30.5068359375 1.4609375  31.7021484375 2.24296875  32.7041015625 3.22265625  C 33.7060546875 4.20234375  34.505859375 5.37109375  35.103515625 6.72890625  Z " fill-rule="nonzero" fill="#000000" stroke="none" transform="matrix(1 0 0 1 775 833 )" />
  </g>
</svg>